<svg width="1440" height="1025" viewBox="0 0 1440 1025" fill="none" xmlns="http://www.w3.org/2000/svg">
<rect width="1362.42" height="1024" fill="url(#paint0_linear)"/>
<path d="M818.743 583.708C805.494 897.828 1176.3 1008.79 1363.36 1025V0H1081.83C999.652 63.6864 831.991 269.589 818.743 583.708Z" fill="white"/>
<path d="M1267.5 763.867C1255.93 740.251 1239.53 719.946 1219.61 704.569C1218.19 703.483 1216.55 702.799 1214.83 702.576C1217.18 685.52 1216.68 666.674 1207.97 652.461C1187.31 618.737 1082.02 653.541 1082.02 653.541C1008.21 625.262 944.244 661.155 944.244 661.155C944.244 661.155 862.566 647.015 825.175 657.897C807.54 663.028 803.257 682.908 803.657 702.493H803.599C802.035 702.49 800.491 702.876 799.082 703.624C797.672 704.372 796.434 705.462 795.458 706.812C785.513 720.545 755.47 762.843 756.289 771.011C757.274 780.803 789.746 908.056 788.277 969.514L1241.92 963.977C1241.92 963.977 1249.43 840.304 1268.23 772.607C1269.04 769.703 1268.78 766.559 1267.5 763.867V763.867Z" fill="#3F3D56"/>
<path opacity="0.1" d="M794.189 771.565L812.884 730.227L828.623 810.715L828.807 848.075L794.189 771.565Z" fill="black"/>
<path opacity="0.1" d="M1223.22 771.565L1204.53 730.227L1182.84 806.543L1187.02 849.921L1223.22 771.565Z" fill="black"/>
<path d="M827.254 808.519L1182.87 806.368L1186.82 849.875L828.623 848.786L827.254 808.519Z" fill="#3F3D56"/>
<path opacity="0.1" d="M827.254 808.519L1182.87 806.368L1186.82 849.875L828.623 848.786L827.254 808.519Z" fill="black"/>
<path opacity="0.1" d="M1179.94 845.639H835.879C831.051 845.639 827.137 849.965 827.137 855.302V882.75C827.137 888.086 831.051 892.413 835.879 892.413H1179.94C1184.77 892.413 1188.69 888.086 1188.69 882.75V855.302C1188.69 849.965 1184.77 845.639 1179.94 845.639Z" fill="white"/>
<path d="M1114.7 689.166C1114.7 689.166 1113.5 687.32 1112.08 688.316C1111.4 688.806 1108.22 693.236 1105.1 697.74C1103.56 699.945 1102.03 702.17 1100.82 703.942C1099.33 706.12 1098.32 707.633 1098.32 707.633L1097.71 708.879L1094.07 716.42L1090.63 723.508L1089.8 726.849L1101.39 731.205L1114.58 727.227L1114.01 724.523L1113.91 724.061L1114.02 717.841L1114.32 700.305L1114.46 692.414V691.491L1114.7 689.166Z" fill="#FFE09C"/>
<path d="M1088.16 732.396C1088.16 732.396 1100.69 737.333 1107.11 734.749C1107.11 734.749 1112.66 732.792 1114.85 730.9C1114.85 730.9 1117.18 729.553 1114.01 725.16C1114.01 725.16 1105.91 730.651 1098.23 728.492L1090.56 726.323L1088.16 732.396Z" fill="#E7C4C3"/>
<path d="M1102.13 726.148C1104.09 724.883 1104.88 722.374 1103.91 720.544C1102.94 718.715 1100.57 718.258 1098.62 719.523C1096.67 720.788 1095.87 723.297 1096.84 725.127C1097.81 726.956 1100.18 727.413 1102.13 726.148Z" fill="#FF7F8E"/>
<path d="M1110.46 715.11C1112.42 713.845 1113.21 711.336 1112.24 709.507C1111.27 707.677 1108.9 707.22 1106.95 708.485C1105 709.751 1104.2 712.259 1105.17 714.089C1106.14 715.918 1108.51 716.376 1110.46 715.11Z" fill="#FF7F8E"/>
<path d="M1114.01 717.841C1113.38 717.551 1112.7 717.43 1112.02 717.49C1111.34 717.549 1110.69 717.787 1110.11 718.182C1108.15 719.447 1107.35 721.957 1108.33 723.785C1109.3 725.612 1111.67 726.073 1113.61 724.809C1113.75 724.717 1113.88 724.624 1114 724.523L1113.9 724.061L1114.01 717.841Z" fill="#FF7F8E"/>
<path d="M1099.84 710.522C1099.61 710.098 1099.3 709.732 1098.93 709.449C1098.56 709.166 1098.15 708.972 1097.71 708.879L1094.06 716.42C1094.7 716.738 1095.4 716.877 1096.09 716.826C1096.79 716.774 1097.47 716.533 1098.07 716.124C1100.02 714.86 1100.81 712.35 1099.84 710.522Z" fill="#FF7F8E"/>
<path d="M1107.96 699.475C1107.66 698.941 1107.24 698.502 1106.74 698.198C1106.24 697.895 1105.68 697.737 1105.11 697.74C1103.58 699.945 1102.05 702.17 1100.84 703.942L1100.89 704.052C1101.86 705.898 1104.23 706.332 1106.18 705.068C1108.14 703.803 1108.91 701.302 1107.96 699.475Z" fill="#FF7F8E"/>
<path d="M1114.46 692.405C1114.03 692.524 1113.61 692.711 1113.23 692.959C1111.27 694.223 1110.48 696.734 1111.45 698.561C1111.75 699.097 1112.18 699.538 1112.68 699.842C1113.18 700.146 1113.74 700.302 1114.31 700.296L1114.46 692.405Z" fill="#FF7F8E"/>
<path d="M1095.01 722.668L1094.34 721.422C1095.34 721.092 1096.26 720.525 1097.05 719.761C1097.1 719.705 1097.14 719.641 1097.18 719.585C1098.01 718.422 1097.84 720.84 1097.84 720.84C1097.84 720.84 1095.79 722.769 1095.01 722.668Z" fill="#94CC79"/>
<path d="M1104.86 720.739L1104.19 719.484C1105.19 719.152 1106.12 718.585 1106.9 717.822C1106.9 717.767 1106.99 717.712 1107.03 717.647C1107.87 716.493 1107.69 718.902 1107.69 718.902C1107.69 718.902 1105.64 720.84 1104.86 720.739Z" fill="#94CC79"/>
<path d="M1103.96 715.571L1103.29 714.315C1104.29 713.986 1105.21 713.423 1106 712.663C1106.04 712.599 1106.09 712.543 1106.13 712.488C1106.97 711.325 1106.79 713.734 1106.79 713.734C1106.79 713.734 1104.74 715.654 1103.96 715.571Z" fill="#94CC79"/>
<path d="M1105.15 706.249L1104.49 704.994C1105.49 704.662 1106.41 704.095 1107.19 703.332C1107.19 703.277 1107.28 703.222 1107.32 703.157C1108.16 701.994 1107.98 704.412 1107.98 704.412C1107.98 704.412 1105.93 706.341 1105.15 706.249Z" fill="#94CC79"/>
<path d="M1110.81 694.971L1110.15 693.716C1111.14 693.385 1112.06 692.818 1112.84 692.054C1112.89 692 1112.94 691.941 1112.98 691.879C1113.81 690.725 1113.65 693.134 1113.65 693.134C1113.65 693.134 1111.58 695.063 1110.81 694.971Z" fill="#94CC79"/>
<path d="M1110.17 706.48L1109.5 705.224C1110.5 704.897 1111.43 704.334 1112.21 703.572C1112.21 703.508 1112.3 703.452 1112.34 703.397C1113.18 702.234 1113 704.643 1113 704.643C1113 704.643 1110.95 706.581 1110.17 706.48Z" fill="#94CC79"/>
<path d="M1086.11 728.492C1086.11 728.492 1084.5 733.106 1088.16 732.368C1089.79 730.282 1090.9 727.768 1091.39 725.067C1091.39 725.067 1099.3 705.917 1101.64 704.163C1101.64 704.163 1111.94 688.593 1113.05 688.363C1113.05 688.363 1113.41 686.849 1109.81 690.052C1106.21 693.254 1098.33 705.584 1098.33 705.584L1090.82 719.124L1089.05 724.523L1086.11 728.492Z" fill="#E7C4C3"/>
<path opacity="0.2" d="M1086.11 728.492C1086.11 728.492 1084.5 733.106 1088.16 732.368C1089.79 730.282 1090.9 727.768 1091.39 725.067C1091.39 725.067 1099.3 705.917 1101.64 704.163C1101.64 704.163 1111.94 688.593 1113.05 688.363C1113.05 688.363 1113.41 686.849 1109.81 690.052C1106.21 693.254 1098.33 705.584 1098.33 705.584L1090.82 719.124L1089.05 724.523L1086.11 728.492Z" fill="white"/>
<path d="M961.904 822.233C963.282 827.239 964.978 832.13 966.98 836.871C972.73 835.542 978.386 833.759 983.906 831.536C984.081 831.472 980.741 826.645 980.39 826.248C979.03 824.586 977.409 823.211 975.606 822.187C973.844 821.338 971.673 821.984 969.761 822.095C967.156 822.242 964.537 822.289 961.904 822.233Z" fill="#FBBEBE"/>
<path d="M975.639 829.811C972.767 828.814 971.014 825.611 969.845 822.529C968.676 819.446 967.732 816.068 965.511 813.816C965.089 813.887 964.69 814.073 964.349 814.356C964.008 814.64 963.736 815.012 963.557 815.441C963.21 816.305 962.823 817.149 962.396 817.969C961.478 819.446 959.891 820.166 958.681 821.421C957.47 822.676 956.794 824.587 955.533 825.851C953.946 827.439 951.709 827.835 949.63 828.362C946.409 829.17 943.299 830.442 940.378 832.146C939.303 832.863 938.154 833.433 936.954 833.844C935.634 834.128 934.281 834.178 932.947 833.991L923.762 833.272C922.944 833.156 922.114 833.193 921.307 833.382C920.378 833.757 919.588 834.461 919.059 835.384C918.53 836.307 918.293 837.398 918.384 838.486C918.502 839.57 918.821 840.616 919.321 841.557C919.821 842.499 920.491 843.317 921.29 843.959C922.895 845.22 924.663 846.206 926.534 846.885C934.546 850.233 942.796 852.838 951.199 854.674V856.686C957.041 859.869 963.466 861.523 969.978 861.522C970.458 861.56 970.94 861.468 971.381 861.255C971.983 860.773 972.405 860.064 972.567 859.261C974.778 852.113 976.068 844.656 976.399 837.111C976.563 835.202 976.43 833.276 976.007 831.416C975.506 829.571 977.226 830.355 975.631 829.635" fill="#2F2E41"/>
<path d="M1152.09 791.472C1124.81 793.318 1097.81 784.449 1070.54 783.507C1067.15 783.27 1063.74 783.512 1060.4 784.227C1056.89 785.095 1053.62 786.848 1050.38 788.528C1035.73 796.059 1020.58 802.298 1005.44 808.528L988.056 815.69C984.582 817.12 980.983 818.569 977.284 818.32C975.614 818.209 973.585 817.932 972.659 819.455C969.828 824.07 971.164 830.89 973.034 836.068C973.635 837.748 974.704 839.575 976.291 839.76C977.435 839.889 978.503 839.16 979.631 838.837C982.795 837.914 985.952 840.258 989.208 840.636C993.233 841.107 996.965 838.578 1000.76 837.028C1007.06 834.453 1013.95 834.536 1020.57 833.336C1031.68 831.287 1041.96 825.593 1051.58 819.105C1055.24 816.631 1058.95 813.982 1063.15 813.078C1067.99 812.035 1072.96 813.41 1077.71 814.924C1089.02 818.458 1100.15 822.648 1111.06 827.475C1116.8 830.023 1122.51 832.745 1128.49 834.508C1141.42 838.267 1155.1 837.384 1167.55 831.989C1171.91 830.078 1176.66 826.709 1176.91 821.504C1177.05 818.532 1174.97 815.967 1173.57 813.382C1172.69 811.749 1171.79 810.124 1170.82 808.555C1166.08 800.932 1160.37 790.928 1152.09 791.472Z" fill="#2F2E41"/>
<path opacity="0.1" d="M1152.09 791.472C1124.81 793.318 1097.81 784.449 1070.54 783.507C1067.15 783.27 1063.74 783.512 1060.4 784.227C1056.89 785.095 1053.62 786.848 1050.38 788.528C1035.73 796.059 1020.58 802.298 1005.44 808.528L988.056 815.69C984.582 817.12 980.983 818.569 977.284 818.32C975.614 818.209 973.585 817.932 972.659 819.455C969.828 824.07 971.164 830.89 973.034 836.068C973.635 837.748 974.704 839.575 976.291 839.76C977.435 839.889 978.503 839.16 979.631 838.837C982.795 837.914 985.952 840.258 989.208 840.636C993.233 841.107 996.965 838.578 1000.76 837.028C1007.06 834.453 1013.95 834.536 1020.57 833.336C1031.68 831.287 1041.96 825.593 1051.58 819.105C1055.24 816.631 1058.95 813.982 1063.15 813.078C1067.99 812.035 1072.96 813.41 1077.71 814.924C1089.02 818.458 1100.15 822.648 1111.06 827.475C1116.8 830.023 1122.51 832.745 1128.49 834.508C1141.42 838.267 1155.1 837.384 1167.55 831.989C1171.91 830.078 1176.66 826.709 1176.91 821.504C1177.05 818.532 1174.97 815.967 1173.57 813.382C1172.69 811.749 1171.79 810.124 1170.82 808.555C1166.08 800.932 1160.37 790.928 1152.09 791.472Z" fill="black"/>
<path d="M1014.27 823.701C1018.54 825.307 1022.85 826.786 1027.2 828.14C1029.63 823.728 1034.18 820.655 1035.22 815.616C1035.26 815.504 1035.28 815.384 1035.28 815.263C1035.28 815.141 1035.25 815.022 1035.21 814.912C1035.16 814.802 1035.09 814.704 1035.01 814.625C1034.93 814.546 1034.83 814.487 1034.72 814.453C1031.61 812.549 1028.16 811.43 1024.61 811.177C1021.81 810.983 1020.53 814.213 1019.25 816.493C1018.74 817.406 1015.42 824.135 1014.27 823.701Z" fill="#FBBEBE"/>
<path d="M1020.29 820.48C1019.01 820.241 1017.79 819.713 1016.71 818.928C1015.63 818.144 1014.71 817.119 1014.01 815.92C1013.41 814.758 1012.76 813.152 1011.56 813.272C1010.36 813.392 1009.89 814.831 1009.67 816.04C1008.86 820.617 1007.69 825.105 1006.16 829.451C1004.62 833.806 1002.02 837.602 998.643 840.415C997.057 841.624 995.303 842.538 993.75 843.811C992.356 844.947 991.145 846.386 989.575 847.263C988.549 847.788 987.489 848.226 986.402 848.574C984.809 849.195 983.285 850.016 981.86 851.019C980.608 851.819 979.549 852.94 978.771 854.287C978.377 854.968 978.147 855.75 978.102 856.557C978.056 857.364 978.197 858.171 978.512 858.901C978.842 859.498 979.283 860.01 979.805 860.405C980.328 860.799 980.92 861.067 981.543 861.19C982.786 861.43 984.055 861.467 985.308 861.301C990.277 860.895 995.245 860.378 1000.21 859.916C1002.31 859.776 1004.4 859.467 1006.46 858.993C1007.55 858.698 1008.61 858.32 1009.7 858.006C1011.56 857.478 1013.46 857.169 1015.38 857.083C1015.94 857.034 1016.5 857.09 1017.05 857.249C1018.2 857.664 1019.01 858.929 1020.2 859.187C1020.96 859.268 1021.73 859.154 1022.45 858.855C1026.02 857.775 1029.79 857.803 1033.49 857.581C1035.16 857.489 1037.03 857.148 1037.78 855.532C1038.71 853.521 1037.16 851.269 1036.55 849.072C1036.24 847.691 1036.07 846.277 1036.03 844.854C1035.75 841.344 1034.82 837.935 1033.3 834.84C1032.03 832.275 1030.31 829.432 1031.19 826.673C1031.49 825.75 1032.09 824.827 1032.03 823.904C1031.74 819.483 1022.55 821.006 1020.29 820.48Z" fill="#2F2E41"/>
<path d="M1111.18 743.101C1106.35 740.744 1102.49 736.492 1100.33 731.168C1099.87 730.024 1099.49 728.833 1099.06 727.679C1097.63 723.839 1095.4 720.423 1092.56 717.702C1092.26 717.334 1091.88 717.042 1091.47 716.848C1091.05 716.654 1090.6 716.561 1090.15 716.576C1089.71 716.724 1089.32 716.996 1089.01 717.365C1088.7 717.735 1088.48 718.189 1088.38 718.681C1088.13 719.731 1088.07 720.825 1088.2 721.902C1088.44 724.438 1088.84 726.954 1089.38 729.433L1090.7 736.087C1090.86 737.113 1091.14 738.112 1091.54 739.059C1092.1 740.181 1092.85 741.176 1093.75 741.994C1094.96 743.231 1096.19 744.421 1097.43 745.584C1099.16 747.419 1101.42 748.528 1103.82 748.722C1109.23 749.83 1114.74 751.436 1119.32 755.34C1119.26 755.34 1119.32 750.873 1119.22 750.365C1119.01 749.027 1118.84 747.698 1118.05 746.793C1116.26 744.763 1113.35 744.181 1111.18 743.101Z" fill="#FBBEBE"/>
<path opacity="0.1" d="M1111.18 743.101C1106.35 740.744 1102.49 736.492 1100.33 731.168C1099.87 730.024 1099.49 728.833 1099.06 727.679C1097.63 723.839 1095.4 720.423 1092.56 717.702C1092.26 717.334 1091.88 717.042 1091.47 716.848C1091.05 716.654 1090.6 716.561 1090.15 716.576C1089.71 716.724 1089.32 716.996 1089.01 717.365C1088.7 717.735 1088.48 718.189 1088.38 718.681C1088.13 719.731 1088.07 720.825 1088.2 721.902C1088.44 724.438 1088.84 726.954 1089.38 729.433L1090.7 736.087C1090.86 737.113 1091.14 738.112 1091.54 739.059C1092.1 740.181 1092.85 741.176 1093.75 741.994C1094.96 743.231 1096.19 744.421 1097.43 745.584C1099.16 747.419 1101.42 748.528 1103.82 748.722C1109.23 749.83 1114.74 751.436 1119.32 755.34C1119.26 755.34 1119.32 750.873 1119.22 750.365C1119.01 749.027 1118.84 747.698 1118.05 746.793C1116.26 744.763 1113.35 744.181 1111.18 743.101Z" fill="black"/>
<path d="M1166.73 692.147C1170.4 692.147 1173.37 688.845 1173.37 684.772C1173.37 680.7 1170.4 677.398 1166.73 677.398C1163.07 677.398 1160.1 680.7 1160.1 684.772C1160.1 688.845 1163.07 692.147 1166.73 692.147Z" fill="#2F2E41"/>
<path d="M1162.63 680.315C1160.83 680.093 1158.83 679.936 1157.38 681.155C1156.62 681.9 1156 682.819 1155.59 683.849C1154.1 686.671 1152.94 689.688 1152.14 692.83C1151.55 695.525 1151.45 698.367 1150.71 700.988C1149.35 705.898 1145.87 710.042 1145.47 715.164C1145.29 717.453 1145.64 720.139 1144.12 721.708C1143.75 722.053 1143.36 722.361 1142.94 722.631C1141.89 723.408 1141 724.421 1140.32 725.603C1139.87 726.664 1139.24 727.625 1138.47 728.436C1137.12 729.544 1134.88 729.424 1134.21 731.14C1133.54 732.857 1135.26 734.832 1134.86 736.678C1134.54 738.191 1133.01 738.884 1131.96 739.917C1130.6 741.237 1129.99 743.221 1129.45 745.123C1127.23 745.586 1124.95 745.514 1122.76 744.91C1120.57 744.306 1118.52 743.185 1116.76 741.625C1118.61 746.664 1118.65 752.229 1118.73 757.674C1118.73 759.437 1118.73 761.422 1117.56 762.649C1122.85 762.778 1128 764.356 1133.15 765.649C1135.41 766.212 1137.85 766.701 1139.95 765.649C1141.13 764.945 1142.19 764.006 1143.06 762.88C1145.87 759.733 1148.81 756.309 1149.49 751.943C1149.88 749.507 1149.49 746.996 1149.61 744.56C1149.87 741.499 1150.43 738.478 1151.28 735.552C1152.76 729.484 1153.76 723.282 1154.26 717.02C1154.56 713.162 1157.6 710.051 1159.17 706.59C1162.18 700.075 1165.24 693.282 1165.46 685.963C1165.57 683.545 1164.82 680.582 1162.63 680.315Z" fill="#2F2E41"/>
<path opacity="0.1" d="M1162.63 680.315C1160.83 680.093 1158.83 679.936 1157.38 681.155C1156.62 681.9 1156 682.819 1155.59 683.849C1154.1 686.671 1152.94 689.688 1152.14 692.83C1151.55 695.525 1151.45 698.367 1150.71 700.988C1149.35 705.898 1145.87 710.042 1145.47 715.164C1145.29 717.453 1145.64 720.139 1144.12 721.708C1143.75 722.053 1143.36 722.361 1142.94 722.631C1141.89 723.408 1141 724.421 1140.32 725.603C1139.87 726.664 1139.24 727.625 1138.47 728.436C1137.12 729.544 1134.88 729.424 1134.21 731.14C1133.54 732.857 1135.26 734.832 1134.86 736.678C1134.54 738.191 1133.01 738.884 1131.96 739.917C1130.6 741.237 1129.99 743.221 1129.45 745.123C1127.23 745.586 1124.95 745.514 1122.76 744.91C1120.57 744.306 1118.52 743.185 1116.76 741.625C1118.61 746.664 1118.65 752.229 1118.73 757.674C1118.73 759.437 1118.73 761.422 1117.56 762.649C1122.85 762.778 1128 764.356 1133.15 765.649C1135.41 766.212 1137.85 766.701 1139.95 765.649C1141.13 764.945 1142.19 764.006 1143.06 762.88C1145.87 759.733 1148.81 756.309 1149.49 751.943C1149.88 749.507 1149.49 746.996 1149.61 744.56C1149.87 741.499 1150.43 738.478 1151.28 735.552C1152.76 729.484 1153.76 723.282 1154.26 717.02C1154.56 713.162 1157.6 710.051 1159.17 706.59C1162.18 700.075 1165.24 693.282 1165.46 685.963C1165.57 683.545 1164.82 680.582 1162.63 680.315Z" fill="black"/>
<path d="M1156.39 797.822C1150.71 794.832 1146.55 789.266 1141.96 784.495C1133.19 775.395 1122.46 768.953 1113.25 760.416C1107.13 754.767 1101.67 748.178 1094.96 743.443C1089.05 739.292 1082.36 736.702 1075.4 735.875C1074.6 735.718 1073.78 735.762 1073 736.004C1072.12 736.435 1071.35 737.105 1070.77 737.952C1067.79 741.662 1065.15 745.68 1062.87 749.95C1051.18 771.869 1034.58 790.328 1020.83 810.697C1020.39 811.181 1020.14 811.826 1020.11 812.507C1020.08 813.188 1020.27 813.858 1020.66 814.388L1023.46 820.443C1025.02 823.839 1027.53 827.826 1030.91 827.115C1032.45 826.802 1033.68 825.547 1034.81 824.347L1047.34 811.084L1060.51 797.166C1068.22 789.017 1076.06 780.674 1081.1 770.254C1085.02 777.785 1092 782.713 1096.79 789.635C1098.61 792.257 1100.13 795.173 1101.71 797.942C1104.32 802.39 1107.28 806.571 1110.24 810.743L1125.34 832.053C1127.4 834.951 1129.52 837.923 1132.33 839.889C1135.91 842.39 1140.27 843.054 1144.47 843.47C1150.15 844.03 1155.84 844.258 1161.54 844.153C1165.88 844.07 1170.36 843.756 1174.26 841.624C1178.16 839.492 1181.35 835.163 1181.15 830.29C1180.92 827.786 1180.17 825.373 1178.98 823.23C1173.61 812.247 1166.56 803.156 1156.39 797.822Z" fill="#2F2E41"/>
<path d="M1170.82 695.552C1173.63 695.552 1175.92 693.011 1175.92 689.876C1175.92 686.741 1173.63 684.2 1170.82 684.2C1168 684.2 1165.72 686.741 1165.72 689.876C1165.72 693.011 1168 695.552 1170.82 695.552Z" fill="#E8E8F0"/>
<path d="M1169.69 685.612C1170.84 688.139 1171.04 691.063 1170.25 693.752C1169.46 696.406 1168.36 698.932 1166.97 701.265C1165.77 703.674 1164.34 705.93 1162.7 707.993C1170.58 708.418 1178.22 705.003 1185.16 700.859C1190.76 697.537 1196.33 693.42 1199.36 687.2C1198.47 687.438 1197.54 687.466 1196.65 687.283C1195.75 687.1 1194.89 686.71 1194.14 686.138C1192.64 684.981 1191.3 683.595 1190.15 682.022L1186.19 677.103C1185.26 676.034 1184.45 674.851 1183.76 673.577C1182.9 671.835 1182.54 669.848 1182.72 667.874C1181.15 669.693 1179.39 671.303 1177.48 672.673C1174.66 674.703 1171.54 676.18 1168.71 678.21C1167.71 678.921 1165.47 680.056 1166.05 681.524C1166.63 682.991 1168.91 684.062 1169.69 685.612Z" fill="#FBBEBE"/>
<path opacity="0.1" d="M1169.69 685.612C1170.84 688.139 1171.04 691.063 1170.25 693.752C1169.46 696.406 1168.36 698.932 1166.97 701.265C1165.77 703.674 1164.34 705.93 1162.7 707.993C1170.58 708.418 1178.22 705.003 1185.16 700.859C1190.76 697.537 1196.33 693.42 1199.36 687.2C1198.47 687.438 1197.54 687.466 1196.65 687.283C1195.75 687.1 1194.89 686.71 1194.14 686.138C1192.64 684.981 1191.3 683.595 1190.15 682.022L1186.19 677.103C1185.26 676.034 1184.45 674.851 1183.76 673.577C1182.9 671.835 1182.54 669.848 1182.72 667.874C1181.15 669.693 1179.39 671.303 1177.48 672.673C1174.66 674.703 1171.54 676.18 1168.71 678.21C1167.71 678.921 1165.47 680.056 1166.05 681.524C1166.63 682.991 1168.91 684.062 1169.69 685.612Z" fill="black"/>
<path d="M1169.8 686.471C1168.32 689.239 1168 692.47 1169.8 694.98C1170.02 695.294 1170.85 697.232 1171.21 697.25C1171.56 697.212 1171.88 697.031 1172.11 696.743C1174.02 694.814 1175.45 692.35 1177.12 690.162C1178.79 687.975 1180.92 685.991 1183.48 685.548C1186.56 685.022 1189.54 686.821 1192.23 688.566C1193.41 689.198 1194.43 690.124 1195.22 691.27C1195.79 692.406 1196.13 693.666 1196.21 694.962C1197.14 702.723 1197.12 710.587 1197.09 718.413C1197.09 724.08 1197.09 729.774 1196.09 735.33C1195.59 738.21 1194.84 741.025 1194.48 743.923C1194.22 746.481 1194.12 749.056 1194.17 751.629V762.409C1194.1 764.387 1194.23 766.368 1194.55 768.316C1195.01 770.679 1196.02 772.857 1196.69 775.155C1197.39 777.796 1197.87 780.502 1198.12 783.24L1199.46 794.398C1199.87 797.914 1200.18 801.781 1198.26 804.55C1197.43 805.824 1196.25 806.848 1195.37 808.122C1192.03 812.866 1193.13 819.649 1191.75 825.454C1190.67 829.704 1188.43 833.487 1185.35 836.299C1182.99 838.514 1179.94 840.249 1176.91 839.63C1172.81 838.791 1170.35 834.093 1169.23 829.598C1168.11 825.104 1167.71 820.277 1165.29 816.511C1163.31 813.429 1160.28 811.49 1157.47 809.294C1154.67 807.097 1152 804.264 1151.4 800.535C1151.13 798.911 1151.3 797.24 1151.14 795.598C1150.92 793.515 1150.2 791.536 1149.05 789.868C1147.9 788.201 1146.37 786.906 1144.61 786.119C1142.51 785.196 1139.92 784.892 1138.76 782.769C1141.82 780.868 1143.84 777.351 1144.91 773.65C1145.98 769.949 1146.19 766.018 1146.4 762.141L1147.1 749.174C1147.41 743.378 1147.55 737.638 1149.87 732.432C1150.89 730.097 1152.18 727.919 1153.26 725.621C1154.68 722.387 1155.89 719.047 1156.89 715.626C1158.56 710.31 1160.23 704.994 1161.73 699.613C1162.33 697.014 1163.22 694.508 1164.39 692.156C1165.57 689.904 1167.43 686.96 1169.8 686.471Z" fill="#EC3838"/>
<path d="M1143.75 770.715L1146.85 770.835L1147.51 765.658C1147.6 764.619 1147.82 763.6 1148.16 762.631C1148.68 761.609 1149.28 760.642 1149.95 759.742C1153.01 754.97 1152.78 748.667 1153.54 742.843C1154.55 735.109 1157.47 727.873 1160.36 720.757L1166.41 705.907C1167.61 703.385 1168.18 700.558 1168.08 697.712C1168.14 695.414 1168.75 687.07 1168.8 684.791C1168.8 683.942 1167.13 684.412 1166.76 683.656C1166.01 682.004 1164.97 686.48 1163.56 687.458C1162.15 688.436 1161.37 690.227 1160.77 691.944C1159.47 695.681 1158.68 699.613 1157.43 703.388C1156.19 707.163 1154.54 710.873 1151.8 713.54C1150.57 714.74 1149.15 715.681 1147.98 716.964C1144.23 721.062 1143.86 727.532 1143.73 733.374C1143.66 736.798 1143.03 770.715 1143.75 770.715Z" fill="#2F2E41"/>
<path d="M1188.44 680.278C1185.42 681.588 1183.77 685.206 1182.92 688.676C1182.08 692.147 1181.73 695.857 1180.11 698.967C1176.32 706.249 1166.67 708.372 1164 716.244C1163.17 718.819 1163.17 721.643 1162.93 724.384C1162.44 730.024 1160.76 735.46 1160.27 741.108C1160.01 745.489 1160.1 749.887 1160.55 754.25L1163.89 798.726C1164.38 805.187 1164.36 812.044 1162.88 818.283C1166.29 819.012 1169.85 818.034 1173.01 816.437C1176.18 814.841 1179.08 812.644 1182.12 810.789C1187.37 807.586 1193.15 805.325 1197.75 801.061C1198.58 800.346 1199.29 799.474 1199.85 798.486C1200.77 796.733 1200.85 794.601 1201.29 792.626C1201.68 791.047 1202.19 789.504 1202.8 788.011C1204.48 783.529 1205.95 778.951 1207.19 774.296C1208.04 771.21 1208.72 768.065 1209.2 764.883C1209.57 762.354 1209.77 759.788 1209.97 757.231C1210.21 753.226 1210.93 749.273 1212.11 745.473C1215.04 736.417 1216.71 726.918 1217.04 717.306C1217.14 715.918 1217.05 714.522 1216.78 713.162C1216.27 711.512 1215.58 709.933 1214.75 708.455C1213.34 705.538 1212.5 702.327 1211.18 699.355C1208.19 692.663 1202.91 687.578 1197.38 683.323C1194.69 681.247 1191.52 678.949 1188.44 680.278Z" fill="#2F2E41"/>
<path d="M1117.9 752.838C1115.51 751.447 1113.34 749.622 1111.48 747.439C1110.65 746.35 1109.95 745.123 1109.09 744.052C1106.92 741.492 1104.1 739.716 1101 738.958C1097.93 738.212 1094.79 737.874 1091.64 737.952C1089.54 737.803 1087.43 738.085 1085.41 738.782C1084.41 739.146 1083.5 739.787 1082.78 740.644C1082.06 741.501 1081.55 742.547 1081.29 743.683C1080.83 746.452 1082.47 749.137 1084.43 750.919C1086.26 752.567 1088.41 753.72 1090.71 754.287C1092.59 754.646 1094.48 754.89 1096.38 755.016C1107.55 756.309 1117.52 763.027 1127.27 769.146C1135.87 774.53 1144.64 779.557 1153.57 784.227C1153.92 781.269 1154.07 778.285 1154.01 775.302C1153.96 773.078 1153.86 769.682 1151.96 768.371C1149.74 766.848 1146.11 766.525 1143.61 765.602C1137.85 763.517 1132.23 761.004 1126.78 758.081C1123.77 756.45 1120.81 754.703 1117.9 752.838Z" fill="#FBBEBE"/>
<path d="M1186.51 667.064C1189.32 655.248 1182.98 643.164 1172.35 640.074C1161.71 636.984 1150.82 644.059 1148.01 655.875C1145.19 667.691 1151.54 679.775 1162.17 682.865C1172.8 685.955 1183.7 678.88 1186.51 667.064Z" fill="#FBBEBE"/>
<path d="M1194.13 705.363C1192.35 707.652 1191.46 710.605 1190.26 713.319C1187.81 718.912 1183.95 723.711 1182.02 729.562C1179.99 735.727 1180.05 743.055 1176.06 747.901C1175.37 748.741 1174.53 749.553 1174.33 750.669C1174.31 751.348 1174.24 752.023 1174.12 752.691C1173.56 754.444 1170.95 754.537 1170.47 756.327C1170.32 756.853 1170.4 757.425 1170.22 757.942C1169.82 759.096 1168.45 759.271 1167.52 759.973C1165.58 761.422 1165.97 764.781 1164.6 766.876C1163.99 767.66 1163.21 768.251 1162.33 768.589C1161.45 768.926 1160.5 768.998 1159.59 768.796C1157.78 768.385 1156.04 767.666 1154.43 766.664C1153.85 766.313 1153.22 766.096 1152.57 766.027C1151.8 766.054 1151.05 766.333 1150.43 766.83C1146.75 769.414 1145.02 774.536 1145.05 779.373C1145.07 784.209 1146.58 788.86 1148.11 793.383C1148.33 794.145 1148.67 794.854 1149.13 795.468C1150.35 796.89 1152.47 796.668 1154.09 795.875C1155.71 795.081 1157.18 793.835 1158.92 793.484C1162 792.866 1165.01 795.21 1168.1 795.016C1170.39 794.869 1172.42 793.401 1174.32 791.98C1177.36 789.709 1180.44 787.365 1182.67 784.153C1184.04 782.178 1185.04 779.936 1186.23 777.822C1187.76 775.247 1189.43 772.781 1191.24 770.439L1202.71 754.915C1203.87 753.445 1204.9 751.867 1205.8 750.199C1206.85 747.946 1207.65 745.567 1208.21 743.111C1209.3 738.967 1210.4 734.804 1210.59 730.476C1210.65 726.924 1210.37 723.376 1209.75 719.89C1209.36 716.416 1208.51 713.022 1207.25 709.811C1204.88 704.052 1198.81 699.318 1194.13 705.363Z" fill="#2F2E41"/>
<path d="M1228.83 695.488C1229.75 691.699 1229.84 687.724 1229.1 683.889C1228.36 680.054 1226.8 676.469 1224.56 673.43C1227.6 659.06 1220.97 644.671 1209.28 639.346C1209.69 625.871 1201.97 613.504 1190.07 610.034C1177.71 606.444 1165.02 613.661 1159.69 626.49C1152.17 622.179 1144.22 622.641 1141.6 627.708C1138.86 633.005 1142.98 641.339 1150.79 646.314C1153.25 647.904 1155.94 649.006 1158.74 649.572C1159.95 653.336 1161.85 656.781 1164.33 659.683C1166.81 662.586 1169.82 664.882 1173.15 666.425C1172.94 671.873 1174.11 677.276 1176.53 682.029C1178.95 686.781 1182.52 690.694 1186.84 693.328C1187.31 697.115 1188.58 700.728 1190.54 703.877C1190.31 704.538 1190.11 705.213 1189.96 705.898C1187.5 716.189 1192.81 726.655 1201.8 729.267C1210.8 731.879 1220.08 725.658 1222.53 715.367C1223.19 712.624 1223.3 709.756 1222.86 706.96C1225.75 703.798 1227.81 699.835 1228.83 695.488V695.488Z" fill="#3F3D56"/>
<path opacity="0.1" d="M1146.75 630.384C1149.37 625.317 1157.32 624.847 1164.84 629.166C1170.16 616.337 1182.86 609.111 1195.22 612.71C1195.78 612.867 1196.33 613.061 1196.89 613.264C1194.78 611.822 1192.48 610.734 1190.08 610.034C1177.71 606.444 1165.03 613.661 1159.7 626.49C1152.18 622.179 1144.23 622.641 1141.61 627.708C1138.87 633.005 1142.99 641.339 1150.79 646.314C1152.26 647.246 1153.8 648.019 1155.4 648.621C1147.94 643.582 1144.08 635.553 1146.75 630.384Z" fill="black"/>
<path opacity="0.1" d="M1195.12 708.575C1195.27 707.889 1195.47 707.214 1195.7 706.554C1193.74 703.401 1192.47 699.785 1192 695.995C1187.68 693.363 1184.11 689.452 1181.69 684.701C1179.27 679.95 1178.1 674.548 1178.31 669.101C1174.98 667.558 1171.97 665.262 1169.49 662.36C1167.01 659.457 1165.11 656.013 1163.9 652.248C1162.27 651.926 1160.67 651.409 1159.14 650.707C1160.41 654.219 1162.31 657.414 1164.71 660.108C1167.11 662.802 1169.98 664.94 1173.14 666.397C1172.93 671.845 1174.11 677.249 1176.52 682.001C1178.94 686.753 1182.51 690.666 1186.83 693.3C1187.3 697.087 1188.57 700.7 1190.53 703.849C1190.3 704.51 1190.11 705.185 1189.95 705.871C1187.5 716.124 1192.77 726.553 1201.71 729.211C1198.84 726.921 1196.68 723.718 1195.5 720.031C1194.32 716.344 1194.19 712.348 1195.12 708.575V708.575Z" fill="black"/>
<path d="M1175.84 669.083C1177.19 667.952 1177.17 665.419 1175.8 663.426C1174.43 661.433 1172.23 660.735 1170.88 661.866C1169.54 662.998 1169.55 665.531 1170.92 667.524C1172.29 669.517 1174.49 670.215 1175.84 669.083Z" fill="#FBBEBE"/>
<path d="M931.059 474.308C938.572 474.308 944.661 467.577 944.661 459.273C944.661 450.97 938.572 444.239 931.059 444.239C923.547 444.239 917.458 450.97 917.458 459.273C917.458 467.577 923.547 474.308 931.059 474.308Z" fill="#3F3D56"/>
<path d="M960.576 547.275C981.646 547.275 998.727 522.813 998.727 492.637C998.727 462.462 981.646 438 960.576 438C939.506 438 922.426 462.462 922.426 492.637C922.426 522.813 939.506 547.275 960.576 547.275Z" fill="#3F3D56"/>
<path opacity="0.1" d="M960.576 530.773C941.463 530.773 925.632 510.644 922.852 484.386C922.562 487.125 922.417 489.88 922.417 492.637C922.417 522.808 939.501 547.275 960.576 547.275C981.651 547.275 998.727 522.808 998.727 492.637C998.727 489.88 998.582 487.125 998.293 484.386C995.52 510.681 979.689 530.773 960.576 530.773Z" fill="black"/>
<path d="M1041.87 652.655C1041.04 656.346 1037.52 659.355 1033.61 661.432C1025.38 665.815 1015.24 667.117 1005.4 667.56C1002.89 667.728 1000.38 667.675 997.883 667.403C992.731 666.729 987.955 664.302 984.975 660.841C984.549 660.463 984.255 659.935 984.14 659.346C984.16 658.992 984.245 658.647 984.388 658.33C984.532 658.013 984.731 657.73 984.975 657.5C990.227 651.169 998.977 647.274 1007.76 644.505C1014.44 642.373 1026.08 636.854 1033.37 637.602C1040.45 638.275 1042.91 647.948 1041.87 652.655Z" fill="#3F3D56"/>
<path opacity="0.1" d="M1041.87 652.655C1041.04 656.346 1037.52 659.355 1033.61 661.432C1025.38 665.815 1015.24 667.117 1005.4 667.56C1002.89 667.728 1000.38 667.675 997.883 667.403C992.731 666.729 987.955 664.302 984.975 660.841C984.549 660.463 984.255 659.935 984.14 659.346C984.16 658.992 984.245 658.647 984.388 658.33C984.532 658.013 984.731 657.73 984.975 657.5C990.227 651.169 998.977 647.274 1007.76 644.505C1014.44 642.373 1026.08 636.854 1033.37 637.602C1040.45 638.275 1042.91 647.948 1041.87 652.655Z" fill="black"/>
<path d="M937.28 624.837C934.776 630.268 934.323 636.574 936.019 642.373C937.749 648.14 940.989 653.209 945.329 656.937C955.992 666.397 970.621 667.698 984.256 667.578C996.213 667.459 1008.15 666.553 1020.01 664.865C1023.96 664.302 1027.95 663.637 1031.61 661.893C1036.06 659.761 1039.96 655.857 1041.55 650.818C1043.15 645.779 1042.02 639.54 1038.21 636.162C1034.87 633.19 1030.34 632.784 1026.09 632.47L1001.75 630.855C1004.15 628.16 1007.35 626.637 1010.28 624.69C1014.17 622.087 1016.75 617.731 1019.58 613.808C1023.75 607.939 1028.76 602.807 1033.77 597.703C1034.61 602.724 1037.44 606.85 1040.82 610.32C1044.2 613.79 1048.1 616.577 1051.62 619.872C1060.14 627.865 1066.27 638.718 1075.23 646.102C1081.39 644.31 1087.15 641.131 1092.15 636.762L1088.67 629.794C1088.39 629.064 1087.93 628.428 1087.36 627.948C1086.37 627.283 1085.1 627.625 1083.95 627.44C1080.9 626.933 1079.56 623.029 1078.36 619.881C1075.07 611.224 1068.76 604.515 1063.33 597.26C1059.37 591.912 1055.86 586.176 1052.85 580.122C1051.04 576.513 1049.39 572.738 1046.92 569.628C1044.46 566.518 1041.03 564.09 1037.29 564.09C1033.95 564.09 1030.94 565.936 1028.1 567.782C1019.45 573.461 1011.13 579.728 1003.19 586.545C999.011 590.108 994.894 593.882 990.018 596.07C987.964 596.993 985.843 597.62 983.831 598.737C980.382 600.703 977.76 604.025 974.938 606.97C964.885 617.482 951.116 624.293 937.28 624.837Z" fill="#605D82"/>
<path d="M988.181 549.988C988.073 553.205 987.454 556.376 986.352 559.356C985.795 560.836 984.967 562.174 983.922 563.286C982.876 564.397 981.634 565.259 980.274 565.816C978.339 566.39 976.31 566.462 974.345 566.029C972.628 565.824 970.976 565.193 969.511 564.183C967.231 562.448 966.096 559.356 965.678 556.329C965.261 553.301 965.453 550.21 965.185 547.164C964.925 544.702 964.501 542.265 963.916 539.873C963.741 539.079 963.557 538.285 963.373 537.492C963.19 536.698 963.031 535.904 962.872 535.11C962.714 534.317 962.589 533.625 962.472 532.868C962.355 532.111 962.288 531.594 962.23 530.957C962.176 529.054 961.896 527.167 961.395 525.346C960.919 524.167 960.322 523.052 959.616 522.023C959.315 521.543 959.023 521.1 958.781 520.574C958.004 519.289 957.642 517.75 957.754 516.209C957.786 515.97 957.839 515.735 957.913 515.507C957.938 515.419 957.969 515.333 958.004 515.249C958.302 515.159 958.576 514.99 958.801 514.757C959.027 514.523 959.197 514.233 959.299 513.911C959.413 513.215 959.358 512.499 959.14 511.834C958.895 510.906 958.556 510.011 958.13 509.167C957.854 508.613 956.911 507.607 956.902 506.97C956.902 505.688 959.157 504.654 960.075 504.146C962.881 502.591 966.011 501.89 969.143 502.116C971.147 502.263 973.318 502.946 974.429 504.811C975.431 506.481 975.264 508.65 975.723 510.597C975.761 510.882 975.868 511.15 976.032 511.373C976.25 511.592 976.524 511.731 976.817 511.77C977.306 511.879 977.808 511.9 978.303 511.834V511.834C978.435 511.826 978.567 511.805 978.695 511.77C979.468 511.612 980.198 511.265 980.833 510.754C981.251 510.625 981.668 510.533 982.077 510.45H982.127C983.797 516.246 984.006 522.448 985.367 528.373C986.043 531.308 987.037 534.206 987.146 537.233C987.146 537.362 987.146 537.501 987.146 537.63C987.146 538.608 987.095 539.587 987.146 540.556C987.161 540.99 987.205 541.421 987.279 541.848C987.43 542.535 987.614 543.213 987.83 543.878C987.889 544.091 987.947 544.303 987.997 544.524C988.039 544.679 988.072 544.836 988.097 544.995V544.995C988.342 546.646 988.37 548.328 988.181 549.988V549.988Z" fill="#FBBEBE"/>
<path d="M964.901 512.074C975.711 512.074 984.474 502.389 984.474 490.441C984.474 478.493 975.711 468.807 964.901 468.807C954.092 468.807 945.329 478.493 945.329 490.441C945.329 502.389 954.092 512.074 964.901 512.074Z" fill="#FBBEBE"/>
<path d="M1089.17 608.317C1088.6 602.421 1086.7 596.776 1083.65 591.898L1085.18 601.912C1084.55 602.113 1083.87 602.105 1083.24 601.891C1082.61 601.676 1082.05 601.263 1081.63 600.703C1080.81 599.565 1080.18 598.27 1079.77 596.882C1077.55 590.781 1074.64 585.014 1071.11 579.716C1058.65 578.562 1046.33 572.858 1035.37 566.195C1024.42 559.531 1014.16 551.566 1003.34 544.635C1001.46 543.384 999.506 542.28 997.491 541.331C994.109 539.836 990.31 539.061 987.104 537.298L986.461 536.919C985.734 536.488 985.046 535.982 984.407 535.406C984.063 535.092 983.737 534.756 983.43 534.4C981.828 532.344 980.557 529.999 979.672 527.469C977.952 523.26 977.334 518.175 975.623 513.966C976.412 513.154 977.297 512.461 978.253 511.908V511.908L978.67 511.677C979.35 511.326 980.057 511.042 980.783 510.828C981.2 510.699 981.618 510.607 982.027 510.524H982.077C984.018 510.178 986.005 510.352 987.872 511.031C990.594 512.056 992.882 514.086 995.186 516.015C998.818 519.052 1002.59 521.913 1005.89 525.392C1007.78 527.395 1009.51 529.591 1011.54 531.41C1013.23 532.853 1015.01 534.161 1016.87 535.323L1049.89 557.058C1053.61 559.503 1057.34 561.958 1060.98 564.561C1066.52 568.502 1071.84 572.775 1077.18 577.048L1086.61 584.598C1087.64 585.338 1088.55 586.275 1089.28 587.367C1089.93 588.59 1090.33 589.953 1090.46 591.363C1091.24 597.047 1090.8 602.856 1089.17 608.317V608.317Z" fill="#FBBEBE"/>
<path d="M993.04 566.259C991.713 572.803 985.734 576.762 982.603 582.512C978.712 589.646 980.299 597.943 981.768 606.121L973.761 613.744C972.291 615.138 970.813 616.513 969.235 617.777C966.92 619.497 964.502 621.039 961.996 622.392L954.915 626.416C952.718 627.78 950.391 628.869 947.976 629.664C943.317 630.984 938.374 630.061 933.781 628.538C933.238 628.382 932.716 628.146 932.228 627.837C931.942 627.647 931.692 627.396 931.494 627.099C931.036 626.199 930.871 625.154 931.026 624.136C931.494 615.571 933.389 607.182 935.276 598.857C936.268 593.858 937.611 588.951 939.292 584.183C940.949 580.101 942.854 576.147 944.995 572.351C947.5 567.671 950.005 562.955 953.345 558.94C954.773 557.205 956.368 555.563 957.219 553.403C958.397 550.431 957.938 547.025 958.18 543.795C958.36 541.363 958.943 538.989 959.9 536.79V536.79C960.411 535.607 961.027 534.482 961.737 533.431C962.062 534.261 962.38 535.092 962.705 535.913L963.332 537.538C963.607 538.23 963.874 538.931 964.167 539.624C964.946 541.605 965.72 543.589 966.488 545.576C967.317 548.08 968.504 550.42 970.003 552.508C971.598 554.501 973.944 555.95 976.332 555.664C977.454 555.457 978.52 554.977 979.453 554.259C980.386 553.541 981.162 552.602 981.726 551.511C982.845 549.325 983.653 546.963 984.123 544.506C984.781 541.516 984.872 538.408 984.39 535.378C983.555 529.536 981.342 523.574 979.714 518.147C979.05 516.339 978.666 514.42 978.578 512.471C978.577 512.251 978.597 512.031 978.637 511.816V511.65C979.317 511.299 980.024 511.014 980.749 510.801C981.167 510.671 981.584 510.579 981.994 510.496C983.43 519.11 984.869 527.705 986.31 536.283C986.31 536.486 986.386 536.689 986.419 536.892C986.619 538.128 986.828 539.356 987.062 540.583C987.296 541.811 987.496 542.808 987.747 543.906C987.83 544.275 987.922 544.654 988.014 545.023C988.273 546.038 988.557 547.035 988.849 548.031C990.886 554.058 994.285 560.066 993.04 566.259Z" fill="#EC3838"/>
<path d="M1072.48 658.248C1072.41 659.518 1072.63 660.789 1073.12 661.939C1074.34 664.413 1077.3 664.976 1079.8 665.206C1094.66 666.56 1109.61 666.059 1124.37 663.711C1125.17 663.647 1125.95 663.378 1126.64 662.927C1128.73 661.302 1127.47 657.343 1125.15 656.069C1122.83 654.796 1120.14 655.146 1117.64 654.565C1115.14 653.867 1112.76 652.726 1110.59 651.187C1105.5 647.951 1100.49 644.567 1095.56 641.035C1092.61 638.94 1089.13 636.706 1085.82 637.952C1076.81 641.312 1072.41 647.532 1072.48 658.248Z" fill="#2F2E41"/>
<path d="M962.947 534.677L962.872 535.129L962.747 535.886C962.338 538.211 961.829 540.5 961.252 542.835C959.658 549.194 957.528 555.461 955.408 561.626L938.366 611.28C936.929 615.451 935.502 619.586 933.873 623.702C933.331 625.059 932.771 626.471 932.203 627.819C930.208 632.775 928.287 637.897 927.653 643.185C927.235 646.683 926.818 650.255 927.444 653.716C928.07 657.177 929.949 660.564 932.963 661.838C934.416 662.465 936.495 663.305 936.094 664.976C935.886 665.899 934.942 666.342 934.09 666.489C932.974 666.688 931.831 666.612 930.744 666.266C929.657 665.92 928.653 665.312 927.803 664.486C926.216 662.936 924.989 660.509 922.876 660.25C921.415 660.075 920.071 661.044 918.702 661.718C913.232 664.486 906.87 662.548 901.125 660.583C901.576 658.017 903.914 656.319 906.227 655.811C908.54 655.303 910.945 655.654 913.316 655.589C914.074 655.633 914.827 655.417 915.47 654.971C916.052 654.397 916.467 653.645 916.664 652.811C918.186 647.821 919.317 642.695 920.046 637.491C920.814 632.046 921.131 626.526 922.217 621.155C923.052 616.965 924.371 612.904 925.49 608.788C927.662 600.316 929.443 591.728 930.826 583.057C931.526 579.457 932.028 575.814 932.329 572.148C932.521 569.102 932.429 566.038 932.696 563.011C933.139 559.066 933.882 555.17 934.917 551.363C935.936 547.201 936.946 543.057 937.965 538.904C939.468 532.757 941.079 526.38 944.887 521.608C946.208 519.926 947.829 518.563 949.647 517.602C951.466 516.642 953.444 516.105 955.458 516.024C956.213 516.021 956.966 516.11 957.704 516.292L958.071 516.393C958.878 516.623 959.651 516.977 960.367 517.446C961.545 516.615 962.138 516.91 962.922 518.175C963.604 519.525 963.925 521.061 963.849 522.605C963.909 526.652 963.607 530.695 962.947 534.677Z" fill="#FBBEBE"/>
<path d="M964.233 539.577L964.183 539.633L963.916 539.928L961.253 542.872L959.942 536.799L955.458 515.997C956.213 515.993 956.967 516.083 957.704 516.264C957.736 516.025 957.789 515.79 957.863 515.563L958.071 516.366L959.591 522.079L962.472 532.923L962.948 534.714L964.233 539.577Z" fill="#EC3838"/>
<path d="M979.188 458.535H956.76C951.227 458.535 946.74 463.494 946.74 469.61V476.8C946.74 482.917 951.227 487.875 956.76 487.875H979.188C984.722 487.875 989.208 482.917 989.208 476.8V469.61C989.208 463.494 984.722 458.535 979.188 458.535Z" fill="#3F3D56"/>
<path d="M991.688 474.308C999.2 474.308 1005.29 467.577 1005.29 459.273C1005.29 450.97 999.2 444.239 991.688 444.239C984.176 444.239 978.086 450.97 978.086 459.273C978.086 467.577 984.176 474.308 991.688 474.308Z" fill="#3F3D56"/>
<path opacity="0.1" d="M991.362 444.23H990.861C994.364 444.396 997.674 446.051 1000.1 448.85C1002.53 451.649 1003.88 455.375 1003.88 459.25C1003.88 463.126 1002.53 466.852 1000.1 469.651C997.674 472.45 994.364 474.105 990.861 474.271H991.362C994.97 474.271 998.429 472.687 1000.98 469.868C1003.53 467.048 1004.96 463.224 1004.96 459.237C1004.96 455.249 1003.53 451.425 1000.98 448.606C998.429 445.786 994.97 444.202 991.362 444.202V444.23Z" fill="black"/>
<path opacity="0.1" d="M931.059 444.23H931.56C928.057 444.396 924.747 446.051 922.322 448.85C919.896 451.649 918.542 455.375 918.542 459.25C918.542 463.126 919.896 466.852 922.322 469.651C924.747 472.45 928.057 474.105 931.56 474.271H931.059C929.273 474.271 927.504 473.882 925.854 473.127C924.204 472.371 922.704 471.264 921.441 469.868C920.178 468.471 919.176 466.814 918.493 464.99C917.809 463.166 917.458 461.211 917.458 459.237C917.458 457.262 917.809 455.307 918.493 453.483C919.176 451.659 920.178 450.002 921.441 448.606C922.704 447.209 924.204 446.102 925.854 445.347C927.504 444.591 929.273 444.202 931.059 444.202V444.23Z" fill="black"/>
<path opacity="0.1" d="M989.625 484.931H955.157C954.102 484.931 953.09 484.468 952.344 483.645C951.597 482.821 951.176 481.704 951.174 480.538V483.463C951.176 484.63 951.597 485.749 952.343 486.574C953.09 487.399 954.101 487.863 955.157 487.866H989.659C990.714 487.863 991.726 487.399 992.473 486.574C993.219 485.749 993.639 484.63 993.642 483.463V480.538C993.639 481.118 993.534 481.692 993.331 482.227C993.128 482.762 992.831 483.247 992.458 483.655C992.085 484.063 991.643 484.386 991.157 484.605C990.671 484.824 990.15 484.935 989.625 484.931V484.931Z" fill="black"/>
<path d="M1106.56 638.829C1106.56 638.829 1108.71 639.244 1109.06 637.315C1109.24 636.393 1108.64 630.467 1107.97 624.542C1107.64 621.626 1107.29 618.718 1107.01 616.393C1106.67 613.541 1106.41 611.575 1106.41 611.575L1106.02 610.135L1103.7 601.515L1101.51 593.393L1099.9 590.2L1088.3 596.439L1081.09 610.218L1083.33 611.778L1083.72 612.055L1087.84 616.817L1099.38 630.2L1104.57 636.226L1105.18 636.928L1106.56 638.829Z" fill="#FFE09C"/>
<path d="M1097.44 584.718C1097.44 584.718 1084.73 591.308 1081.67 598.469C1081.67 598.469 1078.82 604.496 1078.46 607.699C1078.46 607.699 1077.62 610.624 1082.89 611.344C1082.89 611.344 1085.29 600.592 1092.48 595.922L1099.68 591.261L1097.44 584.718Z" fill="#E7C4C3"/>
<path d="M1100.75 601.26C1101.37 598.704 1100.28 596.161 1098.33 595.581C1096.37 595 1094.28 596.602 1093.66 599.158C1093.04 601.714 1094.12 604.257 1096.08 604.838C1098.04 605.418 1100.13 603.817 1100.75 601.26Z" fill="#FF7F8E"/>
<path d="M1099.37 617.97C1099.99 615.424 1098.9 612.893 1096.95 612.318C1095 611.744 1092.92 613.342 1092.3 615.888C1091.69 618.435 1092.77 620.965 1094.73 621.54C1096.68 622.115 1098.76 620.516 1099.37 617.97Z" fill="#FF7F8E"/>
<path d="M1087.84 616.817C1088.5 616.518 1089.09 616.049 1089.56 615.447C1090.03 614.845 1090.36 614.128 1090.53 613.356C1091.15 610.809 1090.07 608.271 1088.11 607.699C1086.16 607.127 1084.08 608.723 1083.47 611.27C1083.42 611.443 1083.38 611.618 1083.36 611.797L1083.75 612.073L1087.84 616.817Z" fill="#FF7F8E"/>
<path d="M1103.36 610.661C1103.82 610.789 1104.29 610.809 1104.76 610.718C1105.22 610.627 1105.67 610.429 1106.06 610.135L1103.73 601.515C1103.04 601.799 1102.43 602.266 1101.94 602.876C1101.45 603.486 1101.1 604.22 1100.93 605.013C1100.32 607.588 1101.4 610.089 1103.36 610.661Z" fill="#FF7F8E"/>
<path d="M1104.7 625.576C1105.29 625.728 1105.9 625.713 1106.47 625.532C1107.05 625.351 1107.58 625.011 1108 624.542C1107.68 621.626 1107.32 618.718 1107.04 616.393H1106.93C1104.98 615.811 1102.9 617.417 1102.28 619.964C1101.66 622.512 1102.76 625.004 1104.7 625.576Z" fill="#FF7F8E"/>
<path d="M1104.57 636.199C1104.81 635.752 1104.99 635.27 1105.11 634.768C1105.73 632.221 1104.64 629.692 1102.69 629.12C1102.1 628.961 1101.48 628.975 1100.9 629.16C1100.31 629.344 1099.78 629.693 1099.35 630.172L1104.57 636.199Z" fill="#FF7F8E"/>
<path d="M1098.83 597.602L1100.17 597.999C1099.64 599.067 1099.33 600.247 1099.26 601.46C1099.26 601.54 1099.26 601.62 1099.26 601.7C1099.43 603.223 1097.92 601.303 1097.92 601.303C1097.92 601.303 1098.18 598.174 1098.83 597.602Z" fill="#94CC79"/>
<path d="M1092.75 607.126L1094.09 607.523C1093.56 608.586 1093.25 609.765 1093.18 610.975C1093.18 611.055 1093.18 611.135 1093.18 611.215C1093.36 612.738 1091.84 610.818 1091.84 610.818C1091.84 610.818 1092.09 607.689 1092.75 607.126Z" fill="#94CC79"/>
<path d="M1096.9 610.274L1098.24 610.661C1097.72 611.729 1097.4 612.91 1097.33 614.122C1097.33 614.202 1097.33 614.282 1097.33 614.362C1097.51 615.885 1095.99 613.965 1095.99 613.965C1095.99 613.965 1096.27 610.837 1096.9 610.274Z" fill="#94CC79"/>
<path d="M1102.25 618.22L1103.59 618.608C1103.06 619.674 1102.75 620.855 1102.68 622.069C1102.68 622.149 1102.68 622.229 1102.68 622.309C1102.86 623.832 1101.35 621.912 1101.35 621.912C1101.35 621.912 1101.61 618.783 1102.25 618.22Z" fill="#94CC79"/>
<path d="M1105.58 631.298L1106.92 631.695C1106.39 632.76 1106.08 633.937 1106.01 635.147C1106 635.226 1106 635.307 1106.01 635.387C1106.19 636.909 1104.67 634.999 1104.67 634.999C1104.67 634.999 1104.93 631.861 1105.58 631.298Z" fill="#94CC79"/>
<path d="M1098.33 622.152L1099.67 622.549C1099.14 623.627 1098.84 624.822 1098.77 626.047C1098.77 626.126 1098.77 626.207 1098.77 626.286C1098.95 627.809 1097.44 625.899 1097.44 625.899C1097.44 625.899 1097.69 622.715 1098.33 622.152Z" fill="#94CC79"/>
<path d="M1101.57 585.936C1101.57 585.936 1099.66 581.146 1097.4 584.718C1097.59 587.618 1098.45 590.415 1099.9 592.84C1099.9 592.84 1106.82 613.652 1106.25 616.836C1106.25 616.836 1108.98 636.937 1108.3 638.063C1108.3 638.063 1109.05 639.484 1109.59 634.141C1110.12 628.797 1107.78 613.098 1107.78 613.098L1104.34 596.78L1102.05 591.243L1101.57 585.936Z" fill="#E7C4C3"/>
<path opacity="0.2" d="M1101.57 585.936C1101.57 585.936 1099.66 581.146 1097.4 584.718C1097.59 587.618 1098.45 590.415 1099.9 592.84C1099.9 592.84 1106.82 613.652 1106.25 616.836C1106.25 616.836 1108.98 636.937 1108.3 638.063C1108.3 638.063 1109.05 639.484 1109.59 634.141C1110.12 628.797 1107.78 613.098 1107.78 613.098L1104.34 596.78L1102.05 591.243L1101.57 585.936Z" fill="white"/>
<path d="M1078.61 593.873C1078.61 593.873 1082.04 604.801 1085.18 601.893L1082.68 587.616L1078.61 593.873Z" fill="#FBBEBE"/>
<path d="M843.895 638.755C843.895 638.755 874.163 695.118 881.236 702.65C881.236 702.65 911.479 737.352 896.107 734.952C894.98 734.777 872.844 714.094 871.55 710.697C870.256 707.301 828.406 647.209 828.406 647.209L834.376 641.136L843.895 638.755Z" fill="#A0616A"/>
<path opacity="0.1" d="M843.895 638.755C843.895 638.755 874.163 695.118 881.236 702.65C881.236 702.65 911.479 737.352 896.107 734.952C894.98 734.777 872.844 714.094 871.55 710.697C870.256 707.301 828.406 647.209 828.406 647.209L834.376 641.136L843.895 638.755Z" fill="black"/>
<path d="M871.575 822.833C871.575 822.833 861.889 836.216 865.931 841.569C869.972 846.922 890.103 857.157 896.6 856.732C903.463 856.289 926.467 857.655 927.277 846.026C927.277 846.026 928.889 840.673 907.905 839.778C886.922 838.883 893.368 814.794 893.368 814.794L871.575 822.833Z" fill="#2F2E41"/>
<path d="M756.147 709.516C756.147 709.516 746.461 746.092 775.518 752.34L806.997 750.559C806.997 750.559 851.393 740.739 863.509 747.882C863.509 747.882 868.352 748.805 866.732 755.912C865.112 763.018 869.154 811.232 869.154 811.232V827.291C869.154 827.291 896.6 827.291 899.831 823.719C899.831 823.719 897.409 809.441 899.831 797.877C902.252 786.313 895.798 749.691 895.798 749.691L895.155 727.716C895.106 724.993 894.402 722.333 893.115 720.011C891.828 717.688 890.004 715.786 887.832 714.5C886.306 713.607 884.608 713.129 882.881 713.106C882.881 713.106 827.989 703.296 808.617 705.077C789.245 706.858 756.147 709.516 756.147 709.516Z" fill="#605D82"/>
<path d="M810.229 592.627C810.229 592.627 824.757 611.363 826.369 617.611C827.98 623.859 845.774 639.89 845.774 639.89C845.774 639.89 832.857 650.596 835.278 655.949C837.7 661.302 818.328 638.109 818.328 638.109L795.675 601.552L810.229 592.627Z" fill="#EC3838"/>
<path opacity="0.1" d="M810.229 592.627C810.229 592.627 824.757 611.363 826.369 617.611C827.98 623.859 845.774 639.89 845.774 639.89C845.774 639.89 832.857 650.596 835.278 655.949C837.7 661.302 818.328 638.109 818.328 638.109L795.675 601.552L810.229 592.627Z" fill="black"/>
<path d="M819.889 571.215C819.889 571.215 812.625 597.057 812.625 606.905C812.625 616.753 781.948 604.229 782.758 598.876C783.568 593.523 800.518 573.892 801.328 565.862C802.138 557.833 819.889 571.215 819.889 571.215Z" fill="#A0616A"/>
<path opacity="0.1" d="M795.675 589.056C795.675 589.056 767.419 581.026 763.386 626.536C759.353 672.045 766.609 677.389 754.502 705.049C742.394 732.709 836.84 708.621 836.84 708.621C836.84 708.621 831.997 702.373 816.658 705.049L809.394 680.961C809.394 680.961 806.972 670.255 820.699 670.255C834.426 670.255 827.964 639.023 827.964 639.023C827.964 639.023 820.699 612.258 816.658 609.581C812.617 606.905 805.386 590.846 795.675 589.056Z" fill="black"/>
<path d="M795.675 587.284C795.675 587.284 767.419 579.254 763.386 624.754C759.353 670.255 766.609 675.617 754.502 703.277C742.394 730.937 836.84 706.849 836.84 706.849C836.84 706.849 831.997 700.601 816.658 703.277L809.394 679.189C809.394 679.189 806.997 668.501 820.724 668.501C834.452 668.501 827.989 637.269 827.989 637.269C827.989 637.269 820.724 610.504 816.683 607.828C812.642 605.151 805.386 589.056 795.675 587.284Z" fill="#EC3838"/>
<path d="M812.65 587.274C827.361 587.274 839.286 574.093 839.286 557.833C839.286 541.573 827.361 528.392 812.65 528.392C797.939 528.392 786.014 541.573 786.014 557.833C786.014 574.093 797.939 587.274 812.65 587.274Z" fill="#A0616A"/>
<path d="M807.507 708.584L874.447 752.811L936.729 688.667L862.482 660.084L809.051 700.287L807.507 708.584Z" fill="#DADAE5"/>
<path d="M886.505 584.782L865.672 653.264L934.742 675.22L964.225 582.614L886.505 584.782Z" fill="#DADAE5"/>
<path opacity="0.03" d="M880.944 579.725L886.596 585.438L964.317 583.269L966.104 577.657L880.944 579.725Z" fill="black"/>
<path opacity="0.03" d="M860.428 649.323L880.944 579.725L886.596 585.438L866.29 652.202L860.428 649.323Z" fill="black"/>
<path d="M880.852 579.07L886.505 584.782L964.225 582.614L966.012 577.002L880.852 579.07Z" fill="#EFF0F4"/>
<path d="M860.336 648.677L880.852 579.07L886.505 584.782L866.198 651.547L860.336 648.677Z" fill="#EFF0F4"/>
<path opacity="0.03" d="M880.852 579.07L889.494 588.003L967.223 585.835L966.012 577.002L880.852 579.07Z" fill="black"/>
<path opacity="0.03" d="M860.336 648.677L880.852 579.07L889.494 588.003L869.187 654.768L860.336 648.677Z" fill="black"/>
<path opacity="0.03" d="M860.47 649.655L862.357 662.899L937.063 691.565L934.884 676.198L860.47 649.655Z" fill="black"/>
<path opacity="0.03" d="M805.244 693.18L860.47 649.655L862.883 662.89L808.634 707.486L805.244 693.18Z" fill="black"/>
<path d="M860.336 648.677L861.956 660.093L936.662 688.759L934.742 675.22L860.336 648.677Z" fill="#EFF0F4"/>
<path d="M805.102 692.193L860.336 648.677L862.482 660.084L808.233 704.68L805.102 692.193Z" fill="#EFF0F4"/>
<path opacity="0.03" d="M860.336 648.677L861.956 660.093L936.662 688.759L934.742 675.22L860.336 648.677Z" fill="black"/>
<path opacity="0.03" d="M805.102 692.193L860.336 648.677L862.482 660.084L808.233 704.68L805.102 692.193Z" fill="black"/>
<path d="M805.102 692.193L807.598 708.649L874.356 752.737L872.711 735.801L805.102 692.193Z" fill="#CCCAD6"/>
<path d="M835.52 689.59C835.52 689.59 834.36 692.036 836.13 693.162C836.965 693.697 843.002 695.008 849.064 696.263C852.036 696.872 855.017 697.463 857.414 697.924C860.336 698.496 862.357 698.847 862.357 698.847H863.893L873.178 699.041L881.912 699.225L885.611 698.386L883.482 682.345L872.427 668.917L870.114 671.076L869.721 671.445L863.643 674.713L846.492 683.942L838.777 688.095L837.875 688.584L835.52 689.59Z" fill="#FFE09C"/>
<path d="M891.857 697.333C891.857 697.333 889.778 679.798 883.782 673.651C883.782 673.651 878.856 668.114 875.825 666.6C875.825 666.6 873.245 664.579 870.707 670.67C870.707 670.67 880.451 677.26 882.555 687.514L884.651 697.767L891.857 697.333Z" fill="#E7C4C3"/>
<path d="M880.138 691.074C881.379 688.927 880.527 685.873 878.234 684.254C875.941 682.635 873.076 683.064 871.835 685.212C870.594 687.36 871.446 690.413 873.739 692.032C876.032 693.651 878.897 693.222 880.138 691.074Z" fill="#FF7F8E"/>
<path d="M864.907 687.266C866.148 685.118 865.296 682.065 863.003 680.446C860.71 678.827 857.845 679.256 856.604 681.403C855.362 683.551 856.215 686.605 858.508 688.224C860.801 689.843 863.666 689.414 864.907 687.266Z" fill="#FF7F8E"/>
<path d="M863.643 674.722C863.707 675.63 863.969 676.507 864.405 677.279C864.841 678.052 865.439 678.697 866.148 679.161C868.436 680.776 871.3 680.352 872.535 678.238C873.771 676.125 872.928 673.042 870.632 671.427C870.475 671.316 870.313 671.215 870.147 671.122L869.755 671.491L863.643 674.722Z" fill="#FF7F8E"/>
<path d="M864.311 695.478C864.026 695.984 863.842 696.55 863.768 697.14C863.695 697.73 863.735 698.331 863.885 698.902L873.17 699.096C873.134 698.157 872.886 697.243 872.449 696.437C872.011 695.631 871.398 694.958 870.665 694.482C868.41 692.903 865.546 693.337 864.311 695.478Z" fill="#FF7F8E"/>
<path d="M849.181 691.944C848.828 692.592 848.632 693.33 848.611 694.086C848.591 694.843 848.746 695.592 849.064 696.263C852.036 696.872 855.017 697.463 857.414 697.924L857.489 697.804C858.725 695.663 857.873 692.608 855.585 690.993C853.297 689.378 850.425 689.802 849.181 691.944Z" fill="#FF7F8E"/>
<path d="M838.777 688.113C839.134 688.554 839.544 688.939 839.996 689.258C842.284 690.873 845.148 690.448 846.383 688.335C846.739 687.684 846.936 686.942 846.955 686.182C846.974 685.422 846.814 684.669 846.492 683.997L838.777 688.113Z" fill="#FF7F8E"/>
<path d="M878.706 694.555L877.871 696.023C877.006 695.025 875.954 694.247 874.79 693.743L874.548 693.679C872.986 693.365 875.383 692.211 875.383 692.211C875.383 692.211 878.38 693.586 878.706 694.555Z" fill="#94CC79"/>
<path d="M871.45 683.96L870.615 685.437C869.751 684.435 868.699 683.654 867.534 683.148L867.292 683.083C865.738 682.779 868.127 681.616 868.127 681.616C868.127 681.616 871.124 682.991 871.45 683.96Z" fill="#94CC79"/>
<path d="M866.924 687.883L866.089 689.35C865.224 688.352 864.173 687.574 863.008 687.07L862.766 687.006C861.204 686.692 863.601 685.538 863.601 685.538C863.601 685.538 866.59 686.895 866.924 687.883Z" fill="#94CC79"/>
<path d="M857.263 691.574L856.428 693.051C855.565 692.049 854.513 691.268 853.347 690.762L853.105 690.698C851.544 690.393 853.94 689.23 853.94 689.23C853.94 689.23 856.929 690.568 857.263 691.574Z" fill="#94CC79"/>
<path d="M843.269 691.021L842.434 692.497C841.567 691.496 840.512 690.715 839.345 690.208L839.103 690.144C837.549 689.839 839.937 688.676 839.937 688.676C839.937 688.676 842.927 690.042 843.269 691.021Z" fill="#94CC79"/>
<path d="M854.75 685.483L853.915 686.951C853.051 685.949 852 685.167 850.834 684.662L850.592 684.597C849.03 684.292 851.427 683.13 851.427 683.13C851.427 683.13 854.416 684.505 854.75 685.483Z" fill="#94CC79"/>
<path d="M889.193 701.883C889.193 701.883 894.562 701.237 891.823 697.333C888.915 696.549 885.872 696.606 882.989 697.5C882.989 697.5 860.136 698.626 857.172 696.817C857.172 696.817 836.464 693.125 835.629 691.962C835.629 691.962 833.959 692.368 839.036 694.86C844.112 697.352 860.353 699.955 860.353 699.955L877.579 701.468L883.774 700.619L889.193 701.883Z" fill="#E7C4C3"/>
<path opacity="0.2" d="M889.193 701.883C889.193 701.883 894.562 701.237 891.823 697.333C888.915 696.549 885.872 696.606 882.989 697.5C882.989 697.5 860.136 698.626 857.172 696.817C857.172 696.817 836.464 693.125 835.629 691.962C835.629 691.962 833.959 692.368 839.036 694.86C844.112 697.352 860.353 699.955 860.353 699.955L877.579 701.468L883.774 700.619L889.193 701.883Z" fill="white"/>
<path d="M872.911 692.83C872.66 693.693 872.6 694.61 872.735 695.504C872.87 696.398 873.197 697.244 873.688 697.97C875.257 700.416 878.055 701.21 879.942 699.742C881.829 698.275 882.071 695.128 880.493 692.636C880.384 692.47 880.267 692.303 880.15 692.147L879.649 692.331L872.911 692.83Z" fill="#FF7F8E"/>
<path d="M872.711 735.801L934.742 675.22L936.645 688.593L874.355 752.737L872.711 735.801Z" fill="#CCCAD6"/>
<path d="M942.791 678.672L934.742 675.22L966.012 577.002L971.974 581.654L942.791 678.672Z" fill="#CCCAD6"/>
<g opacity="0.1">
<path opacity="0.1" d="M892.45 821.827C892.512 819.451 892.823 817.091 893.376 814.794L892.967 814.951C892.567 817.215 892.393 819.521 892.45 821.827Z" fill="white"/>
<path opacity="0.1" d="M896.6 854.933C890.103 855.357 869.963 845.113 865.931 839.76C865.398 839.038 865.073 838.158 864.995 837.231C864.876 837.983 864.898 838.755 865.058 839.498C865.219 840.24 865.516 840.939 865.931 841.55C869.963 846.903 890.103 857.138 896.6 856.714C903.463 856.271 926.467 857.637 927.277 846.008C927.333 845.695 927.295 845.371 927.168 845.085C925.315 855.772 903.288 854.517 896.6 854.933Z" fill="white"/>
</g>
<path d="M920.188 638.395C920.188 638.395 921.624 636.549 920.322 635.22C919.695 634.574 914.786 632.101 909.842 629.683C907.413 628.502 904.966 627.339 903.021 626.416L898.971 624.505L897.66 624.136L889.769 621.912L882.346 619.817L879.006 619.715L877.888 633.919L884.893 647.837L887.248 646.508L887.657 646.277L893.443 644.837L909.792 640.813L917.132 638.968L917.967 638.755L920.188 638.395Z" fill="#FFE09C"/>
<path d="M873.495 619.281C873.495 619.281 872.084 634.713 876.084 641.293C876.084 641.293 879.29 647.089 881.595 649.083C881.595 649.083 883.432 651.372 886.713 646.739C886.713 646.739 879.583 638.949 879.658 629.729L879.725 620.5L873.495 619.281Z" fill="#E7C4C3"/>
<path d="M888.384 634.148C889.833 632.592 889.66 629.798 887.998 627.909C886.336 626.019 883.815 625.749 882.366 627.305C880.918 628.861 881.091 631.655 882.753 633.544C884.415 635.434 886.936 635.704 888.384 634.148Z" fill="#FF7F8E"/>
<path d="M900.701 640.772C902.15 639.215 901.977 636.422 900.315 634.532C898.653 632.643 896.132 632.373 894.683 633.929C893.235 635.485 893.408 638.278 895.07 640.168C896.732 642.058 899.253 642.328 900.701 640.772Z" fill="#FF7F8E"/>
<path d="M893.477 644.847C893.588 644.061 893.527 643.258 893.301 642.503C893.074 641.749 892.688 641.065 892.174 640.509C890.504 638.663 887.999 638.349 886.538 639.909C885.077 641.469 885.269 644.256 886.93 646.148C887.041 646.278 887.158 646.401 887.281 646.517L887.69 646.286L893.477 644.847Z" fill="#FF7F8E"/>
<path d="M896.708 626.969C897.043 626.601 897.304 626.157 897.472 625.669C897.64 625.18 897.713 624.658 897.685 624.136L889.794 621.912C889.658 622.714 889.704 623.54 889.927 624.318C890.15 625.096 890.543 625.801 891.072 626.37C892.709 628.271 895.23 628.538 896.708 626.969Z" fill="#FF7F8E"/>
<path d="M908.949 633.356C909.372 632.877 909.676 632.286 909.832 631.639C909.989 630.993 909.992 630.313 909.842 629.664C907.413 628.483 904.966 627.32 903.021 626.397L902.929 626.48C901.484 628.04 901.66 630.837 903.321 632.729C904.983 634.621 907.504 634.916 908.949 633.356Z" fill="#FF7F8E"/>
<path d="M917.132 638.967C916.911 638.509 916.629 638.089 916.297 637.722C914.627 635.83 912.122 635.562 910.669 637.122C910.244 637.599 909.939 638.191 909.784 638.838C909.629 639.485 909.629 640.166 909.784 640.813L917.132 638.967Z" fill="#FF7F8E"/>
<path d="M884.183 624.57L885.177 623.508C885.737 624.552 886.495 625.449 887.398 626.139L887.59 626.25C888.868 626.859 886.596 627.311 886.596 627.311C886.596 627.311 884.325 625.474 884.183 624.57Z" fill="#94CC79"/>
<path d="M888.492 635.276L889.477 634.205C890.036 635.252 890.794 636.153 891.698 636.845L891.89 636.946C893.168 637.565 890.897 638.017 890.897 638.017C890.897 638.017 888.592 636.125 888.492 635.276Z" fill="#94CC79"/>
<path d="M893.059 632.904L894.053 631.833C894.612 632.88 895.369 633.781 896.274 634.473L896.466 634.574C897.743 635.193 895.472 635.645 895.472 635.645C895.472 635.645 893.168 633.808 893.059 632.904Z" fill="#94CC79"/>
<path d="M901.977 631.907L902.97 630.837C903.528 631.882 904.283 632.782 905.183 633.476L905.384 633.587C906.653 634.196 904.39 634.648 904.39 634.648C904.39 634.648 902.085 632.812 901.977 631.907Z" fill="#94CC79"/>
<path d="M913.842 635.47L914.836 634.399C915.39 635.447 916.145 636.348 917.048 637.039L917.249 637.14C918.518 637.758 916.255 638.211 916.255 638.211C916.255 638.211 913.951 636.365 913.842 635.47Z" fill="#94CC79"/>
<path d="M903.021 637.638L904.014 636.577C904.574 637.621 905.332 638.518 906.235 639.207C906.295 639.253 906.359 639.291 906.427 639.318C907.705 639.927 905.434 640.389 905.434 640.389C905.434 640.389 903.129 638.543 903.021 637.638Z" fill="#94CC79"/>
<path d="M876.568 615.977C876.568 615.977 871.867 615.341 873.495 619.281C875.836 620.602 878.443 621.238 881.069 621.127C881.069 621.127 900.783 625.244 902.987 627.44C902.987 627.44 919.996 635.174 920.522 636.374C920.522 636.374 922.017 636.374 918.142 633.135C914.268 629.895 900.883 624.035 900.883 624.035L886.454 618.912L881.01 618.257L876.568 615.977Z" fill="#E7C4C3"/>
<path opacity="0.2" d="M876.568 615.977C876.568 615.977 871.867 615.341 873.495 619.281C875.836 620.602 878.443 621.238 881.069 621.127C881.069 621.127 900.783 625.244 902.987 627.44C902.987 627.44 919.996 635.174 920.522 636.374C920.522 636.374 922.017 636.374 918.142 633.135C914.268 629.895 900.883 624.035 900.883 624.035L886.454 618.912L881.01 618.257L876.568 615.977Z" fill="white"/>
<path d="M852.529 637.472C854.927 636.081 857.097 634.256 858.95 632.073C859.785 630.984 860.486 629.757 861.346 628.686C863.514 626.126 866.332 624.35 869.429 623.592C872.502 622.846 875.644 622.508 878.789 622.586C880.894 622.437 883.006 622.719 885.018 623.416C886.025 623.78 886.932 624.421 887.653 625.278C888.375 626.135 888.887 627.181 889.143 628.317C889.602 631.086 887.966 633.771 886.004 635.553C884.176 637.201 882.026 638.354 879.724 638.921C877.848 639.28 875.956 639.524 874.055 639.65C862.883 640.943 852.913 647.661 843.16 653.781C834.56 659.161 829.684 658.912 820.758 663.582C820.407 660.629 816.366 662.918 816.424 659.936C816.474 657.712 816.575 654.316 818.478 653.005C820.691 651.482 824.323 651.159 826.828 650.236C832.583 648.151 838.204 645.638 843.653 642.715C846.665 641.084 849.623 639.337 852.529 637.472Z" fill="#A0616A"/>
<path opacity="0.1" d="M778.75 629.212L821.559 672.036C821.559 672.036 829.634 654.196 832.055 654.196C834.477 654.196 802.998 601.589 802.998 601.589C802.998 601.589 794.923 590.883 790.08 596.236C785.238 601.589 770.675 597.98 778.75 629.212Z" fill="black"/>
<path d="M777.94 627.431L820.724 670.255C820.724 670.255 828.799 652.405 831.22 652.405C833.642 652.405 802.154 599.798 802.154 599.798C802.154 599.798 794.08 589.083 789.237 594.436C784.394 599.789 769.865 596.199 777.94 627.431Z" fill="#EC3838"/>
<path d="M848.379 551.945C849.313 550.796 850.072 549.487 850.625 548.068C854.316 538.839 848.463 527.247 838.468 524.072C833.458 522.457 827.847 522.78 822.845 521.064C818.821 519.688 815.431 517.086 811.74 515.055C804.804 511.278 797.131 509.458 789.404 509.758C781.847 510.053 773.631 512.988 770.533 519.439C766.008 528.835 774.333 540.666 769.289 549.813C765.582 556.532 756.589 558.516 749.133 561.432C741.413 564.383 734.385 569.198 728.559 575.525C722.714 581.986 718.539 590.846 721.478 598.857C723.19 603.555 727.056 607.228 730.128 611.28C735.255 617.928 738.254 626.26 738.66 634.984C739.066 643.708 736.857 652.336 732.375 659.53C730.938 661.81 729.26 664.034 728.667 666.618C727.248 672.784 732.976 678.986 739.597 680.185C746.219 681.385 753.091 678.653 758.242 674.62C762.999 670.996 766.827 666.074 769.356 660.333C775.477 645.991 771.176 629.877 770.567 614.436C770.492 612.636 770.567 610.68 771.711 609.268C773.481 607.154 776.821 607.21 779.676 606.933C787.066 606.213 793.871 601.635 797.002 595.322C802.989 583.177 796.017 566.204 806.48 557.067C819.647 545.567 838.601 563.749 848.379 551.945Z" fill="#3F3D56"/>
<path opacity="0.1" d="M838.468 524.035H838.384C842.292 529.038 843.762 535.793 841.44 541.626C840.887 543.045 840.129 544.354 839.194 545.503C829.417 557.307 810.462 539.125 797.295 550.625C786.832 559.762 793.804 576.734 787.818 588.88C784.711 595.193 777.881 599.771 770.492 600.491C767.636 600.768 764.296 600.712 762.526 602.826C761.349 604.238 761.307 606.194 761.382 607.994C761.991 623.435 766.292 639.549 760.171 653.891C757.642 659.632 753.814 664.554 749.058 668.178C743.906 672.193 737.042 674.962 730.412 673.762L729.953 673.651C731.085 675.399 732.521 676.881 734.177 678.009C735.833 679.137 737.675 679.89 739.597 680.222C746.227 681.413 753.049 678.644 758.242 674.62C762.999 670.996 766.827 666.074 769.356 660.333C775.477 645.991 771.176 629.877 770.567 614.436C770.492 612.636 770.567 610.68 771.711 609.268C773.481 607.154 776.821 607.21 779.676 606.933C787.066 606.213 793.871 601.635 797.002 595.322C802.989 583.177 796.017 566.204 806.48 557.067C819.647 545.567 838.601 563.749 848.379 551.945C849.313 550.796 850.072 549.487 850.625 548.068C854.316 538.811 848.463 527.293 838.468 524.035Z" fill="black"/>
<defs>
<linearGradient id="paint0_linear" x1="225.177" y1="143" x2="796.791" y2="995.343" gradientUnits="userSpaceOnUse">
<stop stop-color="#FC0A0A"/>
<stop offset="0.255208" stop-color="#FC2308" stop-opacity="0.76"/>
<stop offset="0.5" stop-color="#FC0505" stop-opacity="0.9"/>
<stop offset="0.744792" stop-color="#FDE403" stop-opacity="0.8"/>
<stop offset="1" stop-color="#FD6A00"/>
</linearGradient>
</defs>
</svg>
