<svg width="1440" height="1025" viewBox="0 0 1440 1025" fill="none" xmlns="http://www.w3.org/2000/svg">
<rect width="1440" height="1024" fill="url(#paint0_linear)"/>
<path d="M865.365 583.708C851.362 897.828 1243.29 1008.79 1441 1025V0H1143.43C1056.58 63.6864 879.369 269.589 865.365 583.708Z" fill="white"/>
<path d="M1339.68 763.867C1327.45 740.251 1310.12 719.946 1289.06 704.569C1287.56 703.483 1285.82 702.799 1284.01 702.576C1286.49 685.52 1285.97 666.674 1276.76 652.461C1254.92 618.737 1143.63 653.541 1143.63 653.541C1065.62 625.262 998.013 661.155 998.013 661.155C998.013 661.155 911.684 647.015 872.164 657.897C853.525 663.028 848.998 682.908 849.421 702.493H849.359C847.707 702.49 846.075 702.876 844.585 703.624C843.095 704.372 841.786 705.462 840.755 706.812C830.244 720.545 798.49 762.843 799.355 771.011C800.396 780.803 834.718 908.056 833.165 969.514L1312.64 963.977C1312.64 963.977 1320.58 840.304 1340.45 772.607C1341.31 769.703 1341.03 766.559 1339.68 763.867Z" fill="#3F3D56"/>
<path opacity="0.1" d="M839.413 771.565L859.173 730.227L875.809 810.715L876.003 848.075L839.413 771.565Z" fill="black"/>
<path opacity="0.1" d="M1292.88 771.565L1273.12 730.227L1250.2 806.543L1254.61 849.921L1292.88 771.565Z" fill="black"/>
<path d="M874.362 808.519L1250.23 806.368L1254.4 849.875L875.809 848.786L874.362 808.519Z" fill="#3F3D56"/>
<path opacity="0.1" d="M874.362 808.519L1250.23 806.368L1254.4 849.875L875.809 848.786L874.362 808.519Z" fill="black"/>
<path opacity="0.1" d="M1247.13 845.639H883.478C878.375 845.639 874.238 849.965 874.238 855.302V882.75C874.238 888.086 878.375 892.413 883.478 892.413H1247.13C1252.24 892.413 1256.38 888.086 1256.38 882.75V855.302C1256.38 849.965 1252.24 845.639 1247.13 845.639Z" fill="white"/>
<path d="M1178.17 689.166C1178.17 689.166 1176.9 687.32 1175.4 688.316C1174.69 688.806 1171.33 693.236 1168.02 697.74C1166.4 699.945 1164.79 702.17 1163.51 703.942C1161.93 706.12 1160.86 707.633 1160.86 707.633L1160.22 708.879L1156.37 716.42L1152.74 723.508L1151.86 726.849L1164.11 731.205L1178.05 727.227L1177.45 724.523L1177.34 724.061L1177.46 717.841L1177.78 700.305L1177.93 692.414V691.491L1178.17 689.166Z" fill="#FFE09C"/>
<path d="M1150.13 732.396C1150.13 732.396 1163.36 737.333 1170.15 734.749C1170.15 734.749 1176.02 732.792 1178.33 730.9C1178.33 730.9 1180.79 729.553 1177.45 725.16C1177.45 725.16 1168.88 730.651 1160.77 728.492L1152.66 726.323L1150.13 732.396Z" fill="#E7C4C3"/>
<path d="M1164.89 726.148C1166.96 724.883 1167.8 722.374 1166.78 720.544C1165.75 718.715 1163.25 718.258 1161.18 719.523C1159.12 720.788 1158.27 723.297 1159.3 725.127C1160.32 726.956 1162.83 727.413 1164.89 726.148Z" fill="#FF7F8E"/>
<path d="M1173.7 715.11C1175.76 713.845 1176.6 711.336 1175.58 709.507C1174.55 707.677 1172.05 707.22 1169.98 708.485C1167.92 709.751 1167.08 712.259 1168.1 714.089C1169.13 715.918 1171.63 716.376 1173.7 715.11Z" fill="#FF7F8E"/>
<path d="M1177.45 717.841C1176.79 717.551 1176.06 717.43 1175.35 717.49C1174.63 717.549 1173.93 717.787 1173.32 718.182C1171.25 719.447 1170.41 721.957 1171.44 723.785C1172.47 725.612 1174.97 726.073 1177.03 724.809C1177.17 724.717 1177.31 724.624 1177.44 724.523L1177.34 724.061L1177.45 717.841Z" fill="#FF7F8E"/>
<path d="M1162.47 710.522C1162.23 710.098 1161.9 709.732 1161.51 709.449C1161.12 709.166 1160.68 708.972 1160.21 708.879L1156.36 716.42C1157.03 716.738 1157.77 716.877 1158.51 716.826C1159.25 716.774 1159.97 716.533 1160.59 716.124C1162.66 714.86 1163.5 712.35 1162.47 710.522Z" fill="#FF7F8E"/>
<path d="M1171.05 699.475C1170.73 698.941 1170.29 698.502 1169.76 698.198C1169.24 697.895 1168.64 697.737 1168.04 697.74C1166.42 699.945 1164.8 702.17 1163.52 703.942L1163.58 704.052C1164.6 705.898 1167.11 706.332 1169.17 705.068C1171.24 703.803 1172.06 701.302 1171.05 699.475Z" fill="#FF7F8E"/>
<path d="M1177.92 692.405C1177.46 692.524 1177.03 692.711 1176.62 692.959C1174.56 694.223 1173.72 696.734 1174.74 698.561C1175.06 699.097 1175.51 699.538 1176.04 699.842C1176.57 700.146 1177.16 700.302 1177.77 700.296L1177.92 692.405Z" fill="#FF7F8E"/>
<path d="M1157.36 722.668L1156.66 721.422C1157.71 721.092 1158.69 720.525 1159.52 719.761C1159.57 719.705 1159.61 719.641 1159.66 719.585C1160.54 718.422 1160.36 720.84 1160.36 720.84C1160.36 720.84 1158.18 722.769 1157.36 722.668Z" fill="#94CC79"/>
<path d="M1167.78 720.739L1167.07 719.484C1168.13 719.152 1169.1 718.585 1169.93 717.822C1169.93 717.767 1170.03 717.712 1170.07 717.647C1170.95 716.493 1170.77 718.902 1170.77 718.902C1170.77 718.902 1168.6 720.84 1167.78 720.739Z" fill="#94CC79"/>
<path d="M1166.82 715.571L1166.12 714.315C1167.17 713.986 1168.15 713.423 1168.98 712.663C1169.02 712.599 1169.07 712.543 1169.12 712.488C1170 711.325 1169.82 713.734 1169.82 713.734C1169.82 713.734 1167.65 715.654 1166.82 715.571Z" fill="#94CC79"/>
<path d="M1168.09 706.249L1167.38 704.994C1168.44 704.662 1169.41 704.095 1170.24 703.332C1170.24 703.277 1170.34 703.222 1170.38 703.157C1171.26 701.994 1171.08 704.412 1171.08 704.412C1171.08 704.412 1168.91 706.341 1168.09 706.249Z" fill="#94CC79"/>
<path d="M1174.06 694.971L1173.36 693.716C1174.42 693.385 1175.39 692.818 1176.21 692.054C1176.27 692 1176.31 691.941 1176.36 691.879C1177.24 690.725 1177.06 693.134 1177.06 693.134C1177.06 693.134 1174.88 695.063 1174.06 694.971Z" fill="#94CC79"/>
<path d="M1173.39 706.48L1172.68 705.224C1173.74 704.897 1174.72 704.334 1175.54 703.572C1175.54 703.508 1175.64 703.452 1175.68 703.397C1176.57 702.234 1176.38 704.643 1176.38 704.643C1176.38 704.643 1174.21 706.581 1173.39 706.48Z" fill="#94CC79"/>
<path d="M1147.96 728.492C1147.96 728.492 1146.26 733.106 1150.13 732.368C1151.85 730.282 1153.02 727.768 1153.54 725.067C1153.54 725.067 1161.9 705.917 1164.37 704.163C1164.37 704.163 1175.26 688.593 1176.44 688.363C1176.44 688.363 1176.81 686.849 1173.01 690.052C1169.21 693.254 1160.88 705.584 1160.88 705.584L1152.93 719.124L1151.06 724.523L1147.96 728.492Z" fill="#E7C4C3"/>
<path opacity="0.2" d="M1147.96 728.492C1147.96 728.492 1146.26 733.106 1150.13 732.368C1151.85 730.282 1153.02 727.768 1153.54 725.067C1153.54 725.067 1161.9 705.917 1164.37 704.163C1164.37 704.163 1175.26 688.593 1176.44 688.363C1176.44 688.363 1176.81 686.849 1173.01 690.052C1169.21 693.254 1160.88 705.584 1160.88 705.584L1152.93 719.124L1151.06 724.523L1147.96 728.492Z" fill="white"/>
<path d="M1016.68 822.233C1018.14 827.239 1019.93 832.13 1022.04 836.871C1028.12 835.542 1034.1 833.759 1039.93 831.536C1040.12 831.472 1036.59 826.645 1036.22 826.248C1034.78 824.586 1033.07 823.211 1031.16 822.187C1029.3 821.338 1027 821.984 1024.98 822.095C1022.23 822.242 1019.46 822.289 1016.68 822.233Z" fill="#FBBEBE"/>
<path d="M1031.2 829.811C1028.16 828.814 1026.31 825.611 1025.07 822.529C1023.84 819.446 1022.84 816.068 1020.49 813.816C1020.05 813.887 1019.62 814.073 1019.26 814.356C1018.9 814.64 1018.62 815.012 1018.43 815.441C1018.06 816.305 1017.65 817.149 1017.2 817.969C1016.23 819.446 1014.55 820.166 1013.27 821.421C1011.99 822.676 1011.28 824.587 1009.95 825.851C1008.27 827.439 1005.9 827.835 1003.71 828.362C1000.3 829.17 997.014 830.442 993.927 832.146C992.791 832.863 991.576 833.433 990.309 833.844C988.913 834.128 987.483 834.178 986.073 833.991L976.365 833.272C975.5 833.156 974.623 833.193 973.77 833.382C972.788 833.757 971.953 834.461 971.394 835.384C970.836 836.307 970.585 837.398 970.681 838.486C970.806 839.57 971.143 840.616 971.671 841.557C972.2 842.499 972.908 843.317 973.752 843.959C975.449 845.22 977.317 846.206 979.295 846.885C987.763 850.233 996.483 852.838 1005.36 854.674V856.686C1011.54 859.869 1018.33 861.523 1025.21 861.522C1025.72 861.56 1026.23 861.468 1026.7 861.255C1027.33 860.773 1027.78 860.064 1027.95 859.261C1030.29 852.113 1031.65 844.656 1032 837.111C1032.17 835.202 1032.03 833.276 1031.58 831.416C1031.06 829.571 1032.87 830.355 1031.19 829.635" fill="#2F2E41"/>
<path d="M1217.69 791.472C1188.86 793.318 1160.33 784.449 1131.51 783.507C1127.92 783.27 1124.31 783.512 1120.78 784.227C1117.08 785.095 1113.62 786.848 1110.19 788.528C1094.7 796.059 1078.69 802.298 1062.69 808.528L1044.32 815.69C1040.65 817.12 1036.84 818.569 1032.94 818.32C1031.17 818.209 1029.03 817.932 1028.05 819.455C1025.05 824.07 1026.47 830.89 1028.44 836.068C1029.08 837.748 1030.21 839.575 1031.88 839.76C1033.09 839.889 1034.22 839.16 1035.42 838.837C1038.76 837.914 1042.1 840.258 1045.54 840.636C1049.79 841.107 1053.74 838.578 1057.75 837.028C1064.41 834.453 1071.69 834.536 1078.69 833.336C1090.42 831.287 1101.3 825.593 1111.46 819.105C1115.33 816.631 1119.25 813.982 1123.7 813.078C1128.8 812.035 1134.06 813.41 1139.08 814.924C1151.03 818.458 1162.8 822.648 1174.33 827.475C1180.4 830.023 1186.43 832.745 1192.75 834.508C1206.42 838.267 1220.88 837.384 1234.04 831.989C1238.65 830.078 1243.67 826.709 1243.93 821.504C1244.08 818.532 1241.88 815.967 1240.4 813.382C1239.47 811.749 1238.52 810.124 1237.49 808.555C1232.49 800.932 1226.45 790.928 1217.69 791.472Z" fill="#2F2E41"/>
<path opacity="0.1" d="M1217.69 791.472C1188.86 793.318 1160.33 784.449 1131.51 783.507C1127.92 783.27 1124.31 783.512 1120.78 784.227C1117.08 785.095 1113.62 786.848 1110.19 788.528C1094.7 796.059 1078.69 802.298 1062.69 808.528L1044.32 815.69C1040.65 817.12 1036.84 818.569 1032.94 818.32C1031.17 818.209 1029.03 817.932 1028.05 819.455C1025.05 824.07 1026.47 830.89 1028.44 836.068C1029.08 837.748 1030.21 839.575 1031.88 839.76C1033.09 839.889 1034.22 839.16 1035.42 838.837C1038.76 837.914 1042.1 840.258 1045.54 840.636C1049.79 841.107 1053.74 838.578 1057.75 837.028C1064.41 834.453 1071.69 834.536 1078.69 833.336C1090.42 831.287 1101.3 825.593 1111.46 819.105C1115.33 816.631 1119.25 813.982 1123.7 813.078C1128.8 812.035 1134.06 813.41 1139.08 814.924C1151.03 818.458 1162.8 822.648 1174.33 827.475C1180.4 830.023 1186.43 832.745 1192.75 834.508C1206.42 838.267 1220.88 837.384 1234.04 831.989C1238.65 830.078 1243.67 826.709 1243.93 821.504C1244.08 818.532 1241.88 815.967 1240.4 813.382C1239.47 811.749 1238.52 810.124 1237.49 808.555C1232.49 800.932 1226.45 790.928 1217.69 791.472Z" fill="black"/>
<path d="M1072.03 823.701C1076.54 825.307 1081.09 826.786 1085.69 828.14C1088.26 823.728 1093.07 820.655 1094.17 815.616C1094.21 815.504 1094.23 815.384 1094.23 815.263C1094.23 815.141 1094.2 815.022 1094.16 814.912C1094.11 814.802 1094.03 814.704 1093.95 814.625C1093.86 814.546 1093.76 814.487 1093.64 814.453C1090.36 812.549 1086.71 811.43 1082.96 811.177C1079.99 810.983 1078.64 814.213 1077.29 816.493C1076.75 817.406 1073.24 824.135 1072.03 823.701Z" fill="#FBBEBE"/>
<path d="M1078.39 820.48C1077.04 820.241 1075.75 819.713 1074.61 818.928C1073.47 818.144 1072.49 817.119 1071.75 815.92C1071.11 814.758 1070.43 813.152 1069.16 813.272C1067.89 813.392 1067.4 814.831 1067.17 816.04C1066.31 820.617 1065.07 825.105 1063.45 829.451C1061.83 833.806 1059.08 837.602 1055.51 840.415C1053.83 841.624 1051.98 842.538 1050.34 843.811C1048.86 844.947 1047.59 846.386 1045.93 847.263C1044.84 847.788 1043.72 848.226 1042.57 848.574C1040.89 849.195 1039.28 850.016 1037.77 851.019C1036.45 851.819 1035.33 852.94 1034.51 854.287C1034.09 854.968 1033.85 855.75 1033.8 856.557C1033.75 857.364 1033.9 858.171 1034.23 858.901C1034.58 859.498 1035.05 860.01 1035.6 860.405C1036.15 860.799 1036.78 861.067 1037.44 861.19C1038.75 861.43 1040.09 861.467 1041.42 861.301C1046.67 860.895 1051.92 860.378 1057.17 859.916C1059.39 859.776 1061.59 859.467 1063.77 858.993C1064.93 858.698 1066.05 858.32 1067.2 858.006C1069.16 857.478 1071.17 857.169 1073.2 857.083C1073.79 857.034 1074.39 857.09 1074.96 857.249C1076.18 857.664 1077.04 858.929 1078.3 859.187C1079.1 859.268 1079.91 859.154 1080.67 858.855C1084.45 857.775 1088.43 857.803 1092.34 857.581C1094.1 857.489 1096.08 857.148 1096.87 855.532C1097.86 853.521 1096.22 851.269 1095.58 849.072C1095.25 847.691 1095.07 846.277 1095.03 844.854C1094.73 841.344 1093.75 837.935 1092.14 834.84C1090.8 832.275 1088.98 829.432 1089.91 826.673C1090.23 825.75 1090.86 824.827 1090.79 823.904C1090.49 819.483 1080.78 821.006 1078.39 820.48Z" fill="#2F2E41"/>
<path d="M1174.46 743.101C1169.35 740.744 1165.27 736.492 1162.99 731.168C1162.5 730.024 1162.1 728.833 1161.64 727.679C1160.13 723.839 1157.78 720.423 1154.78 717.702C1154.46 717.334 1154.06 717.042 1153.62 716.848C1153.18 716.654 1152.7 716.561 1152.23 716.576C1151.77 716.724 1151.35 716.996 1151.02 717.365C1150.69 717.735 1150.46 718.189 1150.36 718.681C1150.09 719.731 1150.03 720.825 1150.16 721.902C1150.42 724.438 1150.84 726.954 1151.42 729.433L1152.81 736.087C1152.98 737.113 1153.28 738.112 1153.69 739.059C1154.29 740.181 1155.08 741.176 1156.03 741.994C1157.31 743.231 1158.61 744.421 1159.92 745.584C1161.76 747.419 1164.14 748.528 1166.67 748.722C1172.39 749.83 1178.22 751.436 1183.05 755.34C1182.99 755.34 1183.05 750.873 1182.95 750.365C1182.73 749.027 1182.55 747.698 1181.72 746.793C1179.82 744.763 1176.74 744.181 1174.46 743.101Z" fill="#FBBEBE"/>
<path opacity="0.1" d="M1174.46 743.101C1169.35 740.744 1165.27 736.492 1162.99 731.168C1162.5 730.024 1162.1 728.833 1161.64 727.679C1160.13 723.839 1157.78 720.423 1154.78 717.702C1154.46 717.334 1154.06 717.042 1153.62 716.848C1153.18 716.654 1152.7 716.561 1152.23 716.576C1151.77 716.724 1151.35 716.996 1151.02 717.365C1150.69 717.735 1150.46 718.189 1150.36 718.681C1150.09 719.731 1150.03 720.825 1150.16 721.902C1150.42 724.438 1150.84 726.954 1151.42 729.433L1152.81 736.087C1152.98 737.113 1153.28 738.112 1153.69 739.059C1154.29 740.181 1155.08 741.176 1156.03 741.994C1157.31 743.231 1158.61 744.421 1159.92 745.584C1161.76 747.419 1164.14 748.528 1166.67 748.722C1172.39 749.83 1178.22 751.436 1183.05 755.34C1182.99 755.34 1183.05 750.873 1182.95 750.365C1182.73 749.027 1182.55 747.698 1181.72 746.793C1179.82 744.763 1176.74 744.181 1174.46 743.101Z" fill="black"/>
<path d="M1233.17 692.147C1237.05 692.147 1240.19 688.845 1240.19 684.772C1240.19 680.7 1237.05 677.398 1233.17 677.398C1229.3 677.398 1226.16 680.7 1226.16 684.772C1226.16 688.845 1229.3 692.147 1233.17 692.147Z" fill="#2F2E41"/>
<path d="M1228.83 680.315C1226.93 680.093 1224.82 679.936 1223.29 681.155C1222.48 681.9 1221.83 682.819 1221.39 683.849C1219.82 686.671 1218.6 689.688 1217.75 692.83C1217.12 695.525 1217.01 698.367 1216.24 700.988C1214.8 705.898 1211.12 710.042 1210.7 715.164C1210.51 717.453 1210.88 720.139 1209.27 721.708C1208.88 722.053 1208.46 722.361 1208.02 722.631C1206.91 723.408 1205.97 724.421 1205.26 725.603C1204.78 726.664 1204.11 727.625 1203.3 728.436C1201.87 729.544 1199.5 729.424 1198.8 731.14C1198.09 732.857 1199.91 734.832 1199.49 736.678C1199.14 738.191 1197.53 738.884 1196.42 739.917C1194.99 741.237 1194.33 743.221 1193.77 745.123C1191.42 745.586 1189.01 745.514 1186.69 744.91C1184.38 744.306 1182.22 743.185 1180.35 741.625C1182.3 746.664 1182.35 752.229 1182.44 757.674C1182.44 759.437 1182.44 761.422 1181.2 762.649C1186.79 762.778 1192.23 764.356 1197.68 765.649C1200.06 766.212 1202.65 766.701 1204.86 765.649C1206.11 764.945 1207.23 764.006 1208.15 762.88C1211.12 759.733 1214.23 756.309 1214.95 751.943C1215.35 749.507 1214.95 746.996 1215.07 744.56C1215.35 741.499 1215.94 738.478 1216.84 735.552C1218.41 729.484 1219.46 723.282 1219.99 717.02C1220.31 713.162 1223.52 710.051 1225.18 706.59C1228.35 700.075 1231.59 693.282 1231.83 685.963C1231.95 683.545 1231.15 680.582 1228.83 680.315Z" fill="#2F2E41"/>
<path opacity="0.1" d="M1228.83 680.315C1226.93 680.093 1224.82 679.936 1223.29 681.155C1222.48 681.9 1221.83 682.819 1221.39 683.849C1219.82 686.671 1218.6 689.688 1217.75 692.83C1217.12 695.525 1217.01 698.367 1216.24 700.988C1214.8 705.898 1211.12 710.042 1210.7 715.164C1210.51 717.453 1210.88 720.139 1209.27 721.708C1208.88 722.053 1208.46 722.361 1208.02 722.631C1206.91 723.408 1205.97 724.421 1205.26 725.603C1204.78 726.664 1204.11 727.625 1203.3 728.436C1201.87 729.544 1199.5 729.424 1198.8 731.14C1198.09 732.857 1199.91 734.832 1199.49 736.678C1199.14 738.191 1197.53 738.884 1196.42 739.917C1194.99 741.237 1194.33 743.221 1193.77 745.123C1191.42 745.586 1189.01 745.514 1186.69 744.91C1184.38 744.306 1182.22 743.185 1180.35 741.625C1182.3 746.664 1182.35 752.229 1182.44 757.674C1182.44 759.437 1182.44 761.422 1181.2 762.649C1186.79 762.778 1192.23 764.356 1197.68 765.649C1200.06 766.212 1202.65 766.701 1204.86 765.649C1206.11 764.945 1207.23 764.006 1208.15 762.88C1211.12 759.733 1214.23 756.309 1214.95 751.943C1215.35 749.507 1214.95 746.996 1215.07 744.56C1215.35 741.499 1215.94 738.478 1216.84 735.552C1218.41 729.484 1219.46 723.282 1219.99 717.02C1220.31 713.162 1223.52 710.051 1225.18 706.59C1228.35 700.075 1231.59 693.282 1231.83 685.963C1231.95 683.545 1231.15 680.582 1228.83 680.315Z" fill="black"/>
<path d="M1222.24 797.822C1216.24 794.832 1211.84 789.266 1206.99 784.495C1197.72 775.395 1186.38 768.953 1176.64 760.416C1170.18 754.767 1164.41 748.178 1157.31 743.443C1151.07 739.292 1143.99 736.702 1136.63 735.875C1135.79 735.718 1134.92 735.762 1134.1 736.004C1133.17 736.435 1132.36 737.105 1131.74 737.952C1128.6 741.662 1125.8 745.68 1123.39 749.95C1111.04 771.869 1093.49 790.328 1078.96 810.697C1078.5 811.181 1078.23 811.826 1078.2 812.507C1078.16 813.188 1078.37 813.858 1078.78 814.388L1081.74 820.443C1083.39 823.839 1086.05 827.826 1089.61 827.115C1091.24 826.802 1092.54 825.547 1093.74 824.347L1106.98 811.084L1120.9 797.166C1129.05 789.017 1137.34 780.674 1142.66 770.254C1146.81 777.785 1154.19 782.713 1159.24 789.635C1161.17 792.257 1162.77 795.173 1164.45 797.942C1167.2 802.39 1170.34 806.571 1173.46 810.743L1189.43 832.053C1191.6 834.951 1193.84 837.923 1196.81 839.889C1200.6 842.39 1205.2 843.054 1209.64 843.47C1215.64 844.03 1221.66 844.258 1227.68 844.153C1232.27 844.07 1237 843.756 1241.12 841.624C1245.25 839.492 1248.63 835.163 1248.41 830.29C1248.16 827.786 1247.38 825.373 1246.11 823.23C1240.45 812.247 1232.99 803.156 1222.24 797.822Z" fill="#2F2E41"/>
<path d="M1237.49 695.552C1240.47 695.552 1242.88 693.011 1242.88 689.876C1242.88 686.741 1240.47 684.2 1237.49 684.2C1234.51 684.2 1232.1 686.741 1232.1 689.876C1232.1 693.011 1234.51 695.552 1237.49 695.552Z" fill="#E8E8F0"/>
<path d="M1236.3 685.612C1237.51 688.139 1237.72 691.063 1236.89 693.752C1236.05 696.406 1234.89 698.932 1233.42 701.265C1232.16 703.674 1230.65 705.93 1228.91 707.993C1237.23 708.418 1245.31 705.003 1252.65 700.859C1258.56 697.537 1264.46 693.42 1267.65 687.2C1266.71 687.438 1265.74 687.466 1264.79 687.283C1263.84 687.1 1262.93 686.71 1262.14 686.138C1260.55 684.981 1259.13 683.595 1257.92 682.022L1253.74 677.103C1252.75 676.034 1251.89 674.851 1251.17 673.577C1250.26 671.835 1249.88 669.848 1250.06 667.874C1248.4 669.693 1246.55 671.303 1244.53 672.673C1241.55 674.703 1238.26 676.18 1235.26 678.21C1234.21 678.921 1231.84 680.056 1232.45 681.524C1233.06 682.991 1235.48 684.062 1236.3 685.612Z" fill="#FBBEBE"/>
<path opacity="0.1" d="M1236.3 685.612C1237.51 688.139 1237.72 691.063 1236.89 693.752C1236.05 696.406 1234.89 698.932 1233.42 701.265C1232.16 703.674 1230.65 705.93 1228.91 707.993C1237.23 708.418 1245.31 705.003 1252.65 700.859C1258.56 697.537 1264.46 693.42 1267.65 687.2C1266.71 687.438 1265.74 687.466 1264.79 687.283C1263.84 687.1 1262.93 686.71 1262.14 686.138C1260.55 684.981 1259.13 683.595 1257.92 682.022L1253.74 677.103C1252.75 676.034 1251.89 674.851 1251.17 673.577C1250.26 671.835 1249.88 669.848 1250.06 667.874C1248.4 669.693 1246.55 671.303 1244.53 672.673C1241.55 674.703 1238.26 676.18 1235.26 678.21C1234.21 678.921 1231.84 680.056 1232.45 681.524C1233.06 682.991 1235.48 684.062 1236.3 685.612Z" fill="black"/>
<path d="M1236.41 686.471C1234.85 689.239 1234.51 692.47 1236.41 694.98C1236.65 695.294 1237.52 697.232 1237.9 697.25C1238.27 697.212 1238.61 697.031 1238.86 696.743C1240.88 694.814 1242.39 692.35 1244.15 690.162C1245.92 687.975 1248.17 685.991 1250.87 685.548C1254.12 685.022 1257.28 686.821 1260.13 688.566C1261.37 689.198 1262.45 690.124 1263.29 691.27C1263.89 692.406 1264.24 693.666 1264.33 694.962C1265.31 702.723 1265.29 710.587 1265.26 718.413C1265.26 724.08 1265.26 729.774 1264.2 735.33C1263.67 738.21 1262.88 741.025 1262.5 743.923C1262.23 746.481 1262.12 749.056 1262.17 751.629V762.409C1262.1 764.387 1262.23 766.368 1262.57 768.316C1263.06 770.679 1264.12 772.857 1264.84 775.155C1265.58 777.796 1266.08 780.502 1266.35 783.24L1267.76 794.398C1268.2 797.914 1268.53 801.781 1266.5 804.55C1265.62 805.824 1264.37 806.848 1263.44 808.122C1259.91 812.866 1261.07 819.649 1259.61 825.454C1258.47 829.704 1256.11 833.487 1252.85 836.299C1250.36 838.514 1247.13 840.249 1243.93 839.63C1239.6 838.791 1236.99 834.093 1235.81 829.598C1234.63 825.104 1234.21 820.277 1231.65 816.511C1229.55 813.429 1226.35 811.49 1223.39 809.294C1220.42 807.097 1217.6 804.264 1216.96 800.535C1216.68 798.911 1216.86 797.24 1216.69 795.598C1216.46 793.515 1215.69 791.536 1214.48 789.868C1213.27 788.201 1211.64 786.906 1209.79 786.119C1207.57 785.196 1204.84 784.892 1203.61 782.769C1206.84 780.868 1208.97 777.351 1210.1 773.65C1211.23 769.949 1211.46 766.018 1211.68 762.141L1212.42 749.174C1212.75 743.378 1212.9 737.638 1215.35 732.432C1216.43 730.097 1217.79 727.919 1218.93 725.621C1220.43 722.387 1221.71 719.047 1222.77 715.626C1224.53 710.31 1226.3 704.994 1227.89 699.613C1228.52 697.014 1229.46 694.508 1230.69 692.156C1231.95 689.904 1233.91 686.96 1236.41 686.471Z" fill="#EC3838"/>
<path d="M1208.88 770.715L1212.16 770.835L1212.86 765.658C1212.95 764.619 1213.18 763.6 1213.55 762.631C1214.09 761.609 1214.72 760.642 1215.43 759.742C1218.66 754.97 1218.43 748.667 1219.23 742.843C1220.3 735.109 1223.39 727.873 1226.44 720.757L1232.83 705.907C1234.09 703.385 1234.7 700.558 1234.59 697.712C1234.66 695.414 1235.3 687.07 1235.36 684.791C1235.36 683.942 1233.6 684.412 1233.2 683.656C1232.41 682.004 1231.31 686.48 1229.82 687.458C1228.33 688.436 1227.5 690.227 1226.87 691.944C1225.5 695.681 1224.66 699.613 1223.34 703.388C1222.03 707.163 1220.28 710.873 1217.39 713.54C1216.09 714.74 1214.59 715.681 1213.35 716.964C1209.39 721.062 1209 727.532 1208.86 733.374C1208.79 736.798 1208.12 770.715 1208.88 770.715Z" fill="#2F2E41"/>
<path d="M1256.11 680.278C1252.92 681.588 1251.18 685.206 1250.29 688.676C1249.39 692.147 1249.02 695.857 1247.31 698.967C1243.3 706.249 1233.1 708.372 1230.29 716.244C1229.4 718.819 1229.4 721.643 1229.15 724.384C1228.64 730.024 1226.86 735.46 1226.34 741.108C1226.06 745.489 1226.16 749.887 1226.63 754.25L1230.16 798.726C1230.68 805.187 1230.67 812.044 1229.1 818.283C1232.71 819.012 1236.47 818.034 1239.81 816.437C1243.15 814.841 1246.22 812.644 1249.44 810.789C1254.98 807.586 1261.1 805.325 1265.95 801.061C1266.83 800.346 1267.58 799.474 1268.17 798.486C1269.15 796.733 1269.23 794.601 1269.69 792.626C1270.11 791.047 1270.65 789.504 1271.29 788.011C1273.07 783.529 1274.62 778.951 1275.93 774.296C1276.84 771.21 1277.55 768.065 1278.06 764.883C1278.45 762.354 1278.66 759.788 1278.87 757.231C1279.13 753.226 1279.89 749.273 1281.13 745.473C1284.23 736.417 1285.99 726.918 1286.35 717.306C1286.45 715.918 1286.35 714.522 1286.07 713.162C1285.53 711.512 1284.81 709.933 1283.92 708.455C1282.44 705.538 1281.54 702.327 1280.15 699.355C1276.99 692.663 1271.4 687.578 1265.56 683.323C1262.72 681.247 1259.37 678.949 1256.11 680.278Z" fill="#2F2E41"/>
<path d="M1181.56 752.838C1179.03 751.447 1176.73 749.622 1174.78 747.439C1173.89 746.35 1173.15 745.123 1172.24 744.052C1169.95 741.492 1166.97 739.716 1163.7 738.958C1160.45 738.212 1157.13 737.874 1153.81 737.952C1151.58 737.803 1149.35 738.085 1147.22 738.782C1146.16 739.146 1145.2 739.787 1144.44 740.644C1143.68 741.501 1143.13 742.547 1142.86 743.683C1142.38 746.452 1144.11 749.137 1146.18 750.919C1148.11 752.567 1150.39 753.72 1152.82 754.287C1154.8 754.646 1156.8 754.89 1158.81 755.016C1170.62 756.309 1181.16 763.027 1191.46 769.146C1200.55 774.53 1209.82 779.557 1219.26 784.227C1219.63 781.269 1219.78 778.285 1219.72 775.302C1219.67 773.078 1219.56 769.682 1217.55 768.371C1215.21 766.848 1211.37 766.525 1208.73 765.602C1202.64 763.517 1196.7 761.004 1190.94 758.081C1187.76 756.45 1184.63 754.703 1181.56 752.838Z" fill="#FBBEBE"/>
<path d="M1254.07 667.064C1257.04 655.248 1250.34 643.164 1239.1 640.074C1227.87 636.984 1216.35 644.059 1213.38 655.875C1210.41 667.691 1217.11 679.775 1228.35 682.865C1239.59 685.955 1251.1 678.88 1254.07 667.064Z" fill="#FBBEBE"/>
<path d="M1262.13 705.363C1260.25 707.652 1259.3 710.605 1258.04 713.319C1255.45 718.912 1251.37 723.711 1249.33 729.562C1247.18 735.727 1247.25 743.055 1243.03 747.901C1242.3 748.741 1241.42 749.553 1241.2 750.669C1241.18 751.348 1241.1 752.023 1240.98 752.691C1240.38 754.444 1237.63 754.537 1237.12 756.327C1236.97 756.853 1237.05 757.425 1236.86 757.942C1236.44 759.096 1234.98 759.271 1234 759.973C1231.96 761.422 1232.37 764.781 1230.91 766.876C1230.27 767.66 1229.45 768.251 1228.52 768.589C1227.58 768.926 1226.58 768.998 1225.62 768.796C1223.71 768.385 1221.87 767.666 1220.16 766.664C1219.56 766.313 1218.89 766.096 1218.21 766.027C1217.39 766.054 1216.6 766.333 1215.94 766.83C1212.05 769.414 1210.23 774.536 1210.25 779.373C1210.28 784.209 1211.87 788.86 1213.49 793.383C1213.72 794.145 1214.08 794.854 1214.57 795.468C1215.86 796.89 1218.1 796.668 1219.81 795.875C1221.52 795.081 1223.08 793.835 1224.91 793.484C1228.17 792.866 1231.36 795.21 1234.62 795.016C1237.04 794.869 1239.18 793.401 1241.19 791.98C1244.4 789.709 1247.66 787.365 1250.01 784.153C1251.46 782.178 1252.52 779.936 1253.78 777.822C1255.4 775.247 1257.16 772.781 1259.08 770.439L1271.2 754.915C1272.42 753.445 1273.51 751.867 1274.47 750.199C1275.57 747.946 1276.42 745.567 1277.01 743.111C1278.16 738.967 1279.33 734.804 1279.52 730.476C1279.59 726.924 1279.3 723.376 1278.64 719.89C1278.22 716.416 1277.33 713.022 1275.99 709.811C1273.5 704.052 1267.08 699.318 1262.13 705.363Z" fill="#2F2E41"/>
<path d="M1298.81 695.488C1299.78 691.699 1299.87 687.724 1299.09 683.889C1298.3 680.054 1296.66 676.469 1294.29 673.43C1297.51 659.06 1290.49 644.671 1278.14 639.346C1278.58 625.871 1270.42 613.504 1257.84 610.034C1244.77 606.444 1231.36 613.661 1225.72 626.49C1217.78 622.179 1209.38 622.641 1206.61 627.708C1203.71 633.005 1208.07 641.339 1216.32 646.314C1218.92 647.904 1221.76 649.006 1224.73 649.572C1226 653.336 1228.01 656.781 1230.63 659.683C1233.26 662.586 1236.43 664.882 1239.95 666.425C1239.73 671.873 1240.97 677.276 1243.53 682.029C1246.09 686.781 1249.86 690.694 1254.42 693.328C1254.92 697.115 1256.26 700.728 1258.33 703.877C1258.09 704.538 1257.89 705.213 1257.72 705.898C1255.12 716.189 1260.73 726.655 1270.24 729.267C1279.74 731.879 1289.56 725.658 1292.14 715.367C1292.84 712.624 1292.96 709.756 1292.5 706.96C1295.55 703.798 1297.73 699.835 1298.81 695.488Z" fill="#3F3D56"/>
<path opacity="0.1" d="M1212.05 630.384C1214.83 625.317 1223.22 624.847 1231.17 629.166C1236.79 616.337 1250.21 609.111 1263.29 612.71C1263.88 612.867 1264.46 613.061 1265.05 613.264C1262.82 611.822 1260.39 610.734 1257.85 610.034C1244.78 606.444 1231.37 613.661 1225.73 626.49C1217.79 622.179 1209.39 622.641 1206.62 627.708C1203.72 633.005 1208.07 641.339 1216.33 646.314C1217.87 647.246 1219.51 648.019 1221.2 648.621C1213.31 643.582 1209.23 635.553 1212.05 630.384Z" fill="black"/>
<path opacity="0.1" d="M1263.17 708.575C1263.34 707.889 1263.55 707.214 1263.79 706.554C1261.72 703.401 1260.38 699.785 1259.88 695.995C1255.31 693.363 1251.54 689.452 1248.98 684.701C1246.43 679.95 1245.19 674.548 1245.41 669.101C1241.88 667.558 1238.71 665.262 1236.09 662.36C1233.47 659.457 1231.45 656.013 1230.18 652.248C1228.45 651.926 1226.76 651.409 1225.14 650.707C1226.49 654.219 1228.49 657.414 1231.03 660.108C1233.57 662.802 1236.6 664.94 1239.94 666.397C1239.72 671.845 1240.96 677.249 1243.52 682.001C1246.08 686.753 1249.85 690.666 1254.42 693.3C1254.91 697.087 1256.25 700.7 1258.33 703.849C1258.08 704.51 1257.88 705.185 1257.71 705.871C1255.12 716.124 1260.69 726.553 1270.14 729.211C1267.11 726.921 1264.82 723.718 1263.58 720.031C1262.33 716.344 1262.19 712.348 1263.17 708.575Z" fill="black"/>
<path d="M1242.8 669.083C1244.22 667.952 1244.21 665.419 1242.76 663.426C1241.31 661.433 1238.98 660.735 1237.56 661.866C1236.13 662.998 1236.15 665.531 1237.6 667.524C1239.05 669.517 1241.38 670.215 1242.8 669.083Z" fill="#FBBEBE"/>
<path d="M984.078 474.308C992.018 474.308 998.455 467.577 998.455 459.273C998.455 450.97 992.018 444.239 984.078 444.239C976.138 444.239 969.702 450.97 969.702 459.273C969.702 467.577 976.138 474.308 984.078 474.308Z" fill="#3F3D56"/>
<path d="M1015.28 547.275C1037.55 547.275 1055.6 522.813 1055.6 492.637C1055.6 462.462 1037.55 438 1015.28 438C993.006 438 974.953 462.462 974.953 492.637C974.953 522.813 993.006 547.275 1015.28 547.275Z" fill="#3F3D56"/>
<path opacity="0.1" d="M1015.28 530.773C995.074 530.773 978.342 510.644 975.403 484.386C975.097 487.125 974.944 489.88 974.944 492.637C974.944 522.808 993 547.275 1015.28 547.275C1037.55 547.275 1055.6 522.808 1055.6 492.637C1055.6 489.88 1055.45 487.125 1055.14 484.386C1052.21 510.681 1035.48 530.773 1015.28 530.773Z" fill="black"/>
<path d="M1101.2 652.655C1100.32 656.346 1096.6 659.355 1092.47 661.432C1083.77 665.815 1073.06 667.117 1062.65 667.56C1060 667.728 1057.35 667.675 1054.71 667.403C1049.26 666.729 1044.21 664.302 1041.06 660.841C1040.61 660.463 1040.3 659.935 1040.18 659.346C1040.2 658.992 1040.29 658.647 1040.44 658.33C1040.6 658.013 1040.81 657.73 1041.06 657.5C1046.61 651.169 1055.86 647.274 1065.15 644.505C1072.21 642.373 1084.51 636.854 1092.21 637.602C1099.7 638.275 1102.29 647.948 1101.2 652.655Z" fill="#3F3D56"/>
<path opacity="0.1" d="M1101.2 652.655C1100.32 656.346 1096.6 659.355 1092.47 661.432C1083.77 665.815 1073.06 667.117 1062.65 667.56C1060 667.728 1057.35 667.675 1054.71 667.403C1049.26 666.729 1044.21 664.302 1041.06 660.841C1040.61 660.463 1040.3 659.935 1040.18 659.346C1040.2 658.992 1040.29 658.647 1040.44 658.33C1040.6 658.013 1040.81 657.73 1041.06 657.5C1046.61 651.169 1055.86 647.274 1065.15 644.505C1072.21 642.373 1084.51 636.854 1092.21 637.602C1099.7 638.275 1102.29 647.948 1101.2 652.655Z" fill="black"/>
<path d="M990.653 624.837C988.006 630.268 987.527 636.574 989.32 642.373C991.149 648.14 994.574 653.209 999.161 656.937C1010.43 666.397 1025.89 667.698 1040.3 667.578C1052.94 667.459 1065.56 666.553 1078.09 664.865C1082.27 664.302 1086.49 663.637 1090.35 661.893C1095.06 659.761 1099.18 655.857 1100.86 650.818C1102.55 645.779 1101.36 639.54 1097.33 636.162C1093.8 633.19 1089.01 632.784 1084.52 632.47L1058.79 630.855C1061.34 628.16 1064.72 626.637 1067.81 624.69C1071.92 622.087 1074.64 617.731 1077.64 613.808C1082.05 607.939 1087.34 602.807 1092.64 597.703C1093.52 602.724 1096.51 606.85 1100.09 610.32C1103.66 613.79 1107.78 616.577 1111.51 619.872C1120.51 627.865 1126.99 638.718 1136.46 646.102C1142.97 644.31 1149.06 641.131 1154.35 636.762L1150.67 629.794C1150.36 629.064 1149.89 628.428 1149.28 627.948C1148.23 627.283 1146.89 627.625 1145.68 627.44C1142.45 626.933 1141.04 623.029 1139.77 619.881C1136.29 611.224 1129.62 604.515 1123.88 597.26C1119.7 591.912 1115.99 586.176 1112.8 580.122C1110.89 576.513 1109.14 572.738 1106.54 569.628C1103.94 566.518 1100.31 564.09 1096.35 564.09C1092.82 564.09 1089.65 565.936 1086.65 567.782C1077.51 573.461 1068.71 579.728 1060.31 586.545C1055.9 590.108 1051.55 593.882 1046.39 596.07C1044.22 596.993 1041.98 597.62 1039.85 598.737C1036.21 600.703 1033.44 604.025 1030.46 606.97C1019.83 617.482 1005.28 624.293 990.653 624.837Z" fill="#605D82"/>
<path d="M1044.45 549.988C1044.34 553.205 1043.68 556.376 1042.52 559.356C1041.93 560.836 1041.06 562.174 1039.95 563.286C1038.84 564.397 1037.53 565.259 1036.09 565.816C1034.05 566.39 1031.91 566.462 1029.83 566.029C1028.01 565.824 1026.27 565.193 1024.72 564.183C1022.31 562.448 1021.11 559.356 1020.67 556.329C1020.23 553.301 1020.43 550.21 1020.15 547.164C1019.87 544.702 1019.42 542.265 1018.81 539.873C1018.62 539.079 1018.43 538.285 1018.23 537.492C1018.04 536.698 1017.87 535.904 1017.7 535.11C1017.53 534.317 1017.4 533.625 1017.28 532.868C1017.16 532.111 1017.08 531.594 1017.02 530.957C1016.97 529.054 1016.67 527.167 1016.14 525.346C1015.64 524.167 1015.01 523.052 1014.26 522.023C1013.94 521.543 1013.63 521.1 1013.38 520.574C1012.56 519.289 1012.17 517.75 1012.29 516.209C1012.33 515.97 1012.38 515.735 1012.46 515.507C1012.49 515.419 1012.52 515.333 1012.56 515.249C1012.87 515.159 1013.16 514.99 1013.4 514.757C1013.64 514.523 1013.82 514.233 1013.93 513.911C1014.05 513.215 1013.99 512.499 1013.76 511.834C1013.5 510.906 1013.14 510.011 1012.69 509.167C1012.4 508.613 1011.4 507.607 1011.39 506.97C1011.39 505.688 1013.78 504.654 1014.75 504.146C1017.71 502.591 1021.02 501.89 1024.33 502.116C1026.45 502.263 1028.74 502.946 1029.92 504.811C1030.98 506.481 1030.8 508.65 1031.28 510.597C1031.33 510.882 1031.44 511.15 1031.61 511.373C1031.84 511.592 1032.13 511.731 1032.44 511.77C1032.96 511.879 1033.49 511.9 1034.01 511.834C1034.15 511.826 1034.29 511.805 1034.43 511.77C1035.24 511.612 1036.01 511.265 1036.69 510.754C1037.13 510.625 1037.57 510.533 1038 510.45H1038.05C1039.82 516.246 1040.04 522.448 1041.48 528.373C1042.19 531.308 1043.24 534.206 1043.36 537.233C1043.36 537.362 1043.36 537.501 1043.36 537.63C1043.36 538.608 1043.31 539.587 1043.36 540.556C1043.37 540.99 1043.42 541.421 1043.5 541.848C1043.66 542.535 1043.85 543.213 1044.08 543.878C1044.14 544.091 1044.21 544.303 1044.26 544.524C1044.3 544.679 1044.34 544.836 1044.36 544.995C1044.62 546.646 1044.65 548.328 1044.45 549.988Z" fill="#FBBEBE"/>
<path d="M1019.85 512.074C1031.27 512.074 1040.53 502.389 1040.53 490.441C1040.53 478.493 1031.27 468.807 1019.85 468.807C1008.42 468.807 999.161 478.493 999.161 490.441C999.161 502.389 1008.42 512.074 1019.85 512.074Z" fill="#FBBEBE"/>
<path d="M1151.19 608.317C1150.59 602.421 1148.59 596.776 1145.36 591.898L1146.98 601.912C1146.31 602.113 1145.59 602.105 1144.93 601.891C1144.26 601.676 1143.67 601.263 1143.23 600.703C1142.35 599.565 1141.69 598.27 1141.26 596.882C1138.91 590.781 1135.83 585.014 1132.11 579.716C1118.94 578.562 1105.91 572.858 1094.33 566.195C1082.75 559.531 1071.91 551.566 1060.47 544.635C1058.49 543.384 1056.42 542.28 1054.29 541.331C1050.72 539.836 1046.7 539.061 1043.31 537.298L1042.63 536.919C1041.87 536.488 1041.14 535.982 1040.46 535.406C1040.1 535.092 1039.76 534.756 1039.43 534.4C1037.74 532.344 1036.39 529.999 1035.46 527.469C1033.64 523.26 1032.99 518.175 1031.18 513.966C1032.01 513.154 1032.95 512.461 1033.96 511.908L1034.4 511.677C1035.12 511.326 1035.87 511.042 1036.63 510.828C1037.07 510.699 1037.52 510.607 1037.95 510.524H1038C1040.05 510.178 1042.15 510.352 1044.13 511.031C1047 512.056 1049.42 514.086 1051.86 516.015C1055.7 519.052 1059.68 521.913 1063.17 525.392C1065.17 527.395 1066.99 529.591 1069.14 531.41C1070.92 532.853 1072.81 534.161 1074.78 535.323L1109.67 557.058C1113.61 559.503 1117.55 561.958 1121.4 564.561C1127.25 568.502 1132.87 572.775 1138.52 577.048L1148.49 584.598C1149.58 585.338 1150.53 586.275 1151.31 587.367C1151.99 588.59 1152.42 589.953 1152.55 591.363C1153.38 597.047 1152.92 602.856 1151.19 608.317Z" fill="#FBBEBE"/>
<path d="M1049.59 566.259C1048.19 572.803 1041.87 576.762 1038.56 582.512C1034.44 589.646 1036.12 597.943 1037.67 606.121L1029.21 613.744C1027.66 615.138 1026.1 616.513 1024.43 617.777C1021.98 619.497 1019.42 621.039 1016.78 622.392L1009.29 626.416C1006.97 627.78 1004.51 628.869 1001.96 629.664C997.034 630.984 991.809 630.061 986.955 628.538C986.381 628.382 985.829 628.146 985.314 627.837C985.011 627.647 984.747 627.396 984.537 627.099C984.053 626.199 983.879 625.154 984.043 624.136C984.537 615.571 986.54 607.182 988.535 598.857C989.583 593.858 991.002 588.951 992.78 584.183C994.531 580.101 996.545 576.147 998.808 572.351C1001.46 567.671 1004.1 562.955 1007.63 558.94C1009.14 557.205 1010.83 555.563 1011.73 553.403C1012.97 550.431 1012.49 547.025 1012.74 543.795C1012.93 541.363 1013.55 538.989 1014.56 536.79C1015.1 535.607 1015.75 534.482 1016.5 533.431C1016.85 534.261 1017.18 535.092 1017.53 535.913L1018.19 537.538C1018.48 538.23 1018.76 538.931 1019.07 539.624C1019.89 541.605 1020.71 543.589 1021.52 545.576C1022.4 548.08 1023.65 550.42 1025.24 552.508C1026.93 554.501 1029.4 555.95 1031.93 555.664C1033.11 555.457 1034.24 554.977 1035.23 554.259C1036.21 553.541 1037.03 552.602 1037.63 551.511C1038.81 549.325 1039.67 546.963 1040.16 544.506C1040.86 541.516 1040.95 538.408 1040.45 535.378C1039.56 529.536 1037.22 523.574 1035.5 518.147C1034.8 516.339 1034.4 514.42 1034.3 512.471C1034.3 512.251 1034.32 512.031 1034.36 511.816V511.65C1035.08 511.299 1035.83 511.014 1036.6 510.801C1037.04 510.671 1037.48 510.579 1037.91 510.496C1039.43 519.11 1040.95 527.705 1042.48 536.283C1042.48 536.486 1042.55 536.689 1042.59 536.892C1042.8 538.128 1043.02 539.356 1043.27 540.583C1043.52 541.811 1043.73 542.808 1043.99 543.906C1044.08 544.275 1044.18 544.654 1044.28 545.023C1044.55 546.038 1044.85 547.035 1045.16 548.031C1047.31 554.058 1050.9 560.066 1049.59 566.259Z" fill="#EC3838"/>
<path d="M1133.55 658.248C1133.48 659.518 1133.71 660.789 1134.23 661.939C1135.52 664.413 1138.65 664.976 1141.29 665.206C1157 666.56 1172.8 666.059 1188.39 663.711C1189.24 663.647 1190.06 663.378 1190.79 662.927C1193.01 661.302 1191.68 657.343 1189.22 656.069C1186.77 654.796 1183.93 655.146 1181.28 654.565C1178.64 653.867 1176.12 652.726 1173.83 651.187C1168.45 647.951 1163.15 644.567 1157.95 641.035C1154.83 638.94 1151.15 636.706 1147.65 637.952C1138.12 641.312 1133.48 647.532 1133.55 658.248Z" fill="#2F2E41"/>
<path d="M1017.78 534.677L1017.7 535.129L1017.57 535.886C1017.14 538.211 1016.6 540.5 1015.99 542.835C1014.3 549.194 1012.05 555.461 1009.81 561.626L991.8 611.28C990.282 615.451 988.773 619.586 987.052 623.702C986.479 625.059 985.887 626.471 985.287 627.819C983.178 632.775 981.148 637.897 980.477 643.185C980.036 646.683 979.595 650.255 980.257 653.716C980.919 657.177 982.904 660.564 986.09 661.838C987.626 662.465 989.823 663.305 989.4 664.976C989.179 665.899 988.182 666.342 987.282 666.489C986.101 666.688 984.893 666.612 983.745 666.266C982.596 665.92 981.534 665.312 980.636 664.486C978.959 662.936 977.662 660.509 975.429 660.25C973.885 660.075 972.464 661.044 971.017 661.718C965.236 664.486 958.511 662.548 952.439 660.583C952.916 658.017 955.387 656.319 957.831 655.811C960.276 655.303 962.818 655.654 965.324 655.589C966.126 655.633 966.921 655.417 967.601 654.971C968.216 654.397 968.655 653.645 968.863 652.811C970.471 647.821 971.667 642.695 972.437 637.491C973.249 632.046 973.585 626.526 974.732 621.155C975.615 616.965 977.009 612.904 978.192 608.788C980.487 600.316 982.369 591.728 983.831 583.057C984.572 579.457 985.102 575.814 985.419 572.148C985.622 569.102 985.525 566.038 985.808 563.011C986.276 559.066 987.062 555.17 988.155 551.363C989.232 547.201 990.3 543.057 991.377 538.904C992.965 532.757 994.668 526.38 998.693 521.608C1000.09 519.926 1001.8 518.563 1003.72 517.602C1005.65 516.642 1007.74 516.105 1009.87 516.024C1010.66 516.021 1011.46 516.11 1012.24 516.292L1012.63 516.393C1013.48 516.623 1014.3 516.977 1015.05 517.446C1016.3 516.615 1016.93 516.91 1017.76 518.175C1018.48 519.525 1018.82 521.061 1018.74 522.605C1018.8 526.652 1018.48 530.695 1017.78 534.677Z" fill="#FBBEBE"/>
<path d="M1019.14 539.577L1019.09 539.633L1018.81 539.928L1015.99 542.872L1014.6 536.799L1009.87 515.997C1010.66 515.993 1011.46 516.083 1012.24 516.264C1012.27 516.025 1012.33 515.79 1012.41 515.563L1012.63 516.366L1014.23 522.079L1017.28 532.923L1017.78 534.714L1019.14 539.577Z" fill="#EC3838"/>
<path d="M1034.95 458.535H1011.24C1005.39 458.535 1000.65 463.494 1000.65 469.61V476.8C1000.65 482.917 1005.39 487.875 1011.24 487.875H1034.95C1040.8 487.875 1045.54 482.917 1045.54 476.8V469.61C1045.54 463.494 1040.8 458.535 1034.95 458.535Z" fill="#3F3D56"/>
<path d="M1048.16 474.308C1056.1 474.308 1062.54 467.577 1062.54 459.273C1062.54 450.97 1056.1 444.239 1048.16 444.239C1040.22 444.239 1033.78 450.97 1033.78 459.273C1033.78 467.577 1040.22 474.308 1048.16 474.308Z" fill="#3F3D56"/>
<path opacity="0.1" d="M1047.81 444.23H1047.29C1050.99 444.396 1054.49 446.051 1057.05 448.85C1059.61 451.649 1061.04 455.375 1061.04 459.25C1061.04 463.126 1059.61 466.852 1057.05 469.651C1054.49 472.45 1050.99 474.105 1047.29 474.271H1047.81C1051.63 474.271 1055.28 472.687 1057.98 469.868C1060.68 467.048 1062.19 463.224 1062.19 459.237C1062.19 455.249 1060.68 451.425 1057.98 448.606C1055.28 445.786 1051.63 444.202 1047.81 444.202V444.23Z" fill="black"/>
<path opacity="0.1" d="M984.078 444.23H984.608C980.905 444.396 977.407 446.051 974.843 448.85C972.279 451.649 970.848 455.375 970.848 459.25C970.848 463.126 972.279 466.852 974.843 469.651C977.407 472.45 980.905 474.105 984.608 474.271H984.078C982.19 474.271 980.321 473.882 978.576 473.127C976.832 472.371 975.247 471.264 973.912 469.868C972.577 468.471 971.518 466.814 970.796 464.99C970.074 463.166 969.702 461.211 969.702 459.237C969.702 457.262 970.074 455.307 970.796 453.483C971.518 451.659 972.577 450.002 973.912 448.606C975.247 447.209 976.832 446.102 978.576 445.347C980.321 444.591 982.19 444.202 984.078 444.202V444.23Z" fill="black"/>
<path opacity="0.1" d="M1045.98 484.931H1009.55C1008.43 484.931 1007.36 484.468 1006.57 483.645C1005.79 482.821 1005.34 481.704 1005.34 480.538V483.463C1005.34 484.63 1005.78 485.749 1006.57 486.574C1007.36 487.399 1008.43 487.863 1009.55 487.866H1046.01C1047.13 487.863 1048.2 487.399 1048.99 486.574C1049.78 485.749 1050.22 484.63 1050.22 483.463V480.538C1050.22 481.118 1050.11 481.692 1049.9 482.227C1049.68 482.762 1049.37 483.247 1048.97 483.655C1048.58 484.063 1048.11 484.386 1047.6 484.605C1047.08 484.824 1046.53 484.935 1045.98 484.931Z" fill="black"/>
<path d="M1169.57 638.829C1169.57 638.829 1171.85 639.244 1172.22 637.315C1172.4 636.393 1171.78 630.467 1171.06 624.542C1170.72 621.626 1170.35 618.718 1170.05 616.393C1169.68 613.541 1169.42 611.575 1169.42 611.575L1169 610.135L1166.55 601.515L1164.24 593.393L1162.54 590.2L1150.28 596.439L1142.65 610.218L1145.02 611.778L1145.43 612.055L1149.78 616.817L1161.98 630.2L1167.47 636.226L1168.11 636.928L1169.57 638.829Z" fill="#FFE09C"/>
<path d="M1159.93 584.718C1159.93 584.718 1146.5 591.308 1143.27 598.469C1143.27 598.469 1140.25 604.496 1139.87 607.699C1139.87 607.699 1138.99 610.624 1144.56 611.344C1144.56 611.344 1147.09 600.592 1154.69 595.922L1162.3 591.261L1159.93 584.718Z" fill="#E7C4C3"/>
<path d="M1163.43 601.26C1164.09 598.704 1162.94 596.161 1160.87 595.581C1158.8 595 1156.59 596.602 1155.93 599.158C1155.28 601.714 1156.43 604.257 1158.5 604.838C1160.57 605.418 1162.78 603.817 1163.43 601.26Z" fill="#FF7F8E"/>
<path d="M1161.97 617.97C1162.62 615.424 1161.48 612.893 1159.41 612.318C1157.35 611.744 1155.15 613.342 1154.5 615.888C1153.86 618.435 1155 620.965 1157.06 621.54C1159.13 622.115 1161.33 620.516 1161.97 617.97Z" fill="#FF7F8E"/>
<path d="M1149.78 616.817C1150.49 616.518 1151.11 616.049 1151.61 615.447C1152.1 614.845 1152.45 614.128 1152.63 613.356C1153.29 610.809 1152.14 608.271 1150.07 607.699C1148.01 607.127 1145.81 608.723 1145.17 611.27C1145.12 611.443 1145.08 611.618 1145.05 611.797L1145.47 612.073L1149.78 616.817Z" fill="#FF7F8E"/>
<path d="M1166.19 610.661C1166.67 610.789 1167.18 610.809 1167.67 610.718C1168.16 610.627 1168.63 610.429 1169.04 610.135L1166.59 601.515C1165.86 601.799 1165.2 602.266 1164.69 602.876C1164.17 603.486 1163.8 604.22 1163.62 605.013C1162.98 607.588 1164.12 610.089 1166.19 610.661Z" fill="#FF7F8E"/>
<path d="M1167.61 625.576C1168.23 625.728 1168.87 625.713 1169.48 625.532C1170.09 625.351 1170.65 625.011 1171.1 624.542C1170.75 621.626 1170.38 618.718 1170.08 616.393H1169.97C1167.9 615.811 1165.7 617.417 1165.05 619.964C1164.4 622.512 1165.55 625.004 1167.61 625.576Z" fill="#FF7F8E"/>
<path d="M1167.47 636.199C1167.72 635.752 1167.91 635.27 1168.04 634.768C1168.7 632.221 1167.55 629.692 1165.48 629.12C1164.86 628.961 1164.2 628.975 1163.59 629.16C1162.97 629.344 1162.4 629.693 1161.95 630.172L1167.47 636.199Z" fill="#FF7F8E"/>
<path d="M1161.41 597.602L1162.82 597.999C1162.26 599.067 1161.93 600.247 1161.86 601.46C1161.85 601.54 1161.85 601.62 1161.86 601.7C1162.04 603.223 1160.44 601.303 1160.44 601.303C1160.44 601.303 1160.72 598.174 1161.41 597.602Z" fill="#94CC79"/>
<path d="M1154.97 607.126L1156.39 607.523C1155.83 608.586 1155.5 609.765 1155.43 610.975C1155.43 611.055 1155.43 611.135 1155.43 611.215C1155.62 612.738 1154.02 610.818 1154.02 610.818C1154.02 610.818 1154.28 607.689 1154.97 607.126Z" fill="#94CC79"/>
<path d="M1159.37 610.274L1160.78 610.661C1160.22 611.729 1159.9 612.91 1159.82 614.122C1159.81 614.202 1159.81 614.282 1159.82 614.362C1160.01 615.885 1158.4 613.965 1158.4 613.965C1158.4 613.965 1158.7 610.837 1159.37 610.274Z" fill="#94CC79"/>
<path d="M1165.02 618.22L1166.44 618.608C1165.88 619.674 1165.55 620.855 1165.47 622.069C1165.47 622.149 1165.47 622.229 1165.47 622.309C1165.66 623.832 1164.06 621.912 1164.06 621.912C1164.06 621.912 1164.34 618.783 1165.02 618.22Z" fill="#94CC79"/>
<path d="M1168.54 631.298L1169.95 631.695C1169.39 632.76 1169.07 633.937 1168.99 635.147C1168.98 635.226 1168.98 635.307 1168.99 635.387C1169.18 636.909 1167.57 634.999 1167.57 634.999C1167.57 634.999 1167.85 631.861 1168.54 631.298Z" fill="#94CC79"/>
<path d="M1160.88 622.152L1162.29 622.549C1161.73 623.627 1161.41 624.822 1161.34 626.047C1161.34 626.126 1161.34 626.207 1161.34 626.286C1161.53 627.809 1159.93 625.899 1159.93 625.899C1159.93 625.899 1160.2 622.715 1160.88 622.152Z" fill="#94CC79"/>
<path d="M1164.3 585.936C1164.3 585.936 1162.28 581.146 1159.89 584.718C1160.09 587.618 1161 590.415 1162.54 592.84C1162.54 592.84 1169.85 613.652 1169.24 616.836C1169.24 616.836 1172.13 636.937 1171.41 638.063C1171.41 638.063 1172.21 639.484 1172.77 634.141C1173.34 628.797 1170.86 613.098 1170.86 613.098L1167.23 596.78L1164.8 591.243L1164.3 585.936Z" fill="#E7C4C3"/>
<path opacity="0.2" d="M1164.3 585.936C1164.3 585.936 1162.28 581.146 1159.89 584.718C1160.09 587.618 1161 590.415 1162.54 592.84C1162.54 592.84 1169.85 613.652 1169.24 616.836C1169.24 616.836 1172.13 636.937 1171.41 638.063C1171.41 638.063 1172.21 639.484 1172.77 634.141C1173.34 628.797 1170.86 613.098 1170.86 613.098L1167.23 596.78L1164.8 591.243L1164.3 585.936Z" fill="white"/>
<path d="M1140.03 593.873C1140.03 593.873 1143.66 604.801 1146.98 601.893L1144.33 587.616L1140.03 593.873Z" fill="#FBBEBE"/>
<path d="M891.95 638.755C891.95 638.755 923.942 695.118 931.417 702.65C931.417 702.65 963.383 737.352 947.135 734.952C945.944 734.777 922.548 714.094 921.18 710.697C919.812 707.301 875.579 647.209 875.579 647.209L881.889 641.136L891.95 638.755Z" fill="#A0616A"/>
<path opacity="0.1" d="M891.95 638.755C891.95 638.755 923.942 695.118 931.417 702.65C931.417 702.65 963.383 737.352 947.135 734.952C945.944 734.777 922.548 714.094 921.18 710.697C919.812 707.301 875.579 647.209 875.579 647.209L881.889 641.136L891.95 638.755Z" fill="black"/>
<path d="M921.206 822.833C921.206 822.833 910.969 836.216 915.241 841.569C919.512 846.922 940.79 857.157 947.656 856.732C954.91 856.289 979.224 857.655 980.08 846.026C980.08 846.026 981.784 840.673 959.605 839.778C937.427 838.883 944.241 814.794 944.241 814.794L921.206 822.833Z" fill="#2F2E41"/>
<path d="M799.205 709.516C799.205 709.516 788.967 746.092 819.68 752.34L852.951 750.559C852.951 750.559 899.875 740.739 912.681 747.882C912.681 747.882 917.8 748.805 916.088 755.912C914.376 763.018 918.647 811.232 918.647 811.232V827.291C918.647 827.291 947.656 827.291 951.071 823.719C951.071 823.719 948.512 809.441 951.071 797.877C953.631 786.313 946.809 749.691 946.809 749.691L946.129 727.716C946.077 724.993 945.333 722.333 943.973 720.011C942.612 717.688 940.685 715.786 938.389 714.5C936.776 713.607 934.982 713.129 933.156 713.106C933.156 713.106 875.138 703.296 854.663 705.077C834.189 706.858 799.205 709.516 799.205 709.516Z" fill="#605D82"/>
<path d="M856.367 592.627C856.367 592.627 871.723 611.363 873.426 617.611C875.129 623.859 893.936 639.89 893.936 639.89C893.936 639.89 880.283 650.596 882.843 655.949C885.402 661.302 864.927 638.109 864.927 638.109L840.984 601.552L856.367 592.627Z" fill="#EC3838"/>
<path opacity="0.1" d="M856.367 592.627C856.367 592.627 871.723 611.363 873.426 617.611C875.129 623.859 893.936 639.89 893.936 639.89C893.936 639.89 880.283 650.596 882.843 655.949C885.402 661.302 864.927 638.109 864.927 638.109L840.984 601.552L856.367 592.627Z" fill="black"/>
<path d="M866.577 571.215C866.577 571.215 858.899 597.057 858.899 606.905C858.899 616.753 826.475 604.229 827.331 598.876C828.187 593.523 846.103 573.892 846.959 565.862C847.815 557.833 866.577 571.215 866.577 571.215Z" fill="#A0616A"/>
<path opacity="0.1" d="M840.984 589.056C840.984 589.056 811.119 581.026 806.856 626.536C802.594 672.045 810.263 677.389 797.466 705.049C784.67 732.709 884.493 708.621 884.493 708.621C884.493 708.621 879.374 702.373 863.162 705.049L855.484 680.961C855.484 680.961 852.925 670.255 867.434 670.255C881.942 670.255 875.112 639.023 875.112 639.023C875.112 639.023 867.434 612.258 863.162 609.581C858.891 606.905 851.248 590.846 840.984 589.056Z" fill="black"/>
<path d="M840.984 587.284C840.984 587.284 811.119 579.254 806.856 624.754C802.594 670.255 810.263 675.617 797.466 703.277C784.67 730.937 884.493 706.849 884.493 706.849C884.493 706.849 879.374 700.601 863.162 703.277L855.484 679.189C855.484 679.189 852.951 668.501 867.46 668.501C881.969 668.501 875.138 637.269 875.138 637.269C875.138 637.269 867.46 610.504 863.189 607.828C858.917 605.151 851.248 589.056 840.984 587.284Z" fill="#EC3838"/>
<path d="M858.926 587.274C874.474 587.274 887.079 574.093 887.079 557.833C887.079 541.573 874.474 528.392 858.926 528.392C843.378 528.392 830.773 541.573 830.773 557.833C830.773 574.093 843.378 587.274 858.926 587.274Z" fill="#A0616A"/>
<path d="M853.49 708.584L924.242 752.811L990.07 688.667L911.596 660.084L855.122 700.287L853.49 708.584Z" fill="#DADAE5"/>
<path d="M936.986 584.782L914.967 653.264L987.97 675.22L1019.13 582.614L936.986 584.782Z" fill="#DADAE5"/>
<path opacity="0.03" d="M931.108 579.725L937.083 585.438L1019.23 583.269L1021.12 577.657L931.108 579.725Z" fill="black"/>
<path opacity="0.03" d="M909.425 649.323L931.108 579.725L937.083 585.438L915.62 652.202L909.425 649.323Z" fill="black"/>
<path d="M931.011 579.07L936.986 584.782L1019.13 582.614L1021.02 577.002L931.011 579.07Z" fill="#EFF0F4"/>
<path d="M909.328 648.677L931.011 579.07L936.986 584.782L915.523 651.547L909.328 648.677Z" fill="#EFF0F4"/>
<path opacity="0.03" d="M931.011 579.07L940.145 588.003L1022.3 585.835L1021.02 577.002L931.011 579.07Z" fill="black"/>
<path opacity="0.03" d="M909.328 648.677L931.011 579.07L940.146 588.003L918.682 654.768L909.328 648.677Z" fill="black"/>
<path opacity="0.03" d="M909.469 649.655L911.463 662.899L990.423 691.565L988.12 676.198L909.469 649.655Z" fill="black"/>
<path opacity="0.03" d="M851.098 693.18L909.469 649.655L912.019 662.89L854.681 707.486L851.098 693.18Z" fill="black"/>
<path d="M909.328 648.677L911.04 660.093L990 688.759L987.97 675.22L909.328 648.677Z" fill="#EFF0F4"/>
<path d="M850.948 692.193L909.327 648.677L911.596 660.084L854.257 704.68L850.948 692.193Z" fill="#EFF0F4"/>
<path opacity="0.03" d="M909.328 648.677L911.04 660.093L990 688.759L987.97 675.22L909.328 648.677Z" fill="black"/>
<path opacity="0.03" d="M850.948 692.193L909.327 648.677L911.596 660.084L854.257 704.68L850.948 692.193Z" fill="black"/>
<path d="M850.948 692.193L853.587 708.649L924.145 752.737L922.407 735.801L850.948 692.193Z" fill="#CCCAD6"/>
<path d="M883.099 689.59C883.099 689.59 881.872 692.036 883.743 693.162C884.625 693.697 891.006 695.008 897.413 696.263C900.555 696.872 903.706 697.463 906.239 697.924C909.327 698.496 911.463 698.847 911.463 698.847H913.087L922.901 699.041L932.132 699.225L936.042 698.386L933.791 682.345L922.107 668.917L919.662 671.076L919.247 671.445L912.822 674.713L894.695 683.942L886.54 688.095L885.587 688.584L883.099 689.59Z" fill="#FFE09C"/>
<path d="M942.643 697.333C942.643 697.333 940.446 679.798 934.109 673.651C934.109 673.651 928.902 668.114 925.699 666.6C925.699 666.6 922.971 664.579 920.289 670.67C920.289 670.67 930.588 677.26 932.812 687.514L935.027 697.767L942.643 697.333Z" fill="#E7C4C3"/>
<path d="M930.257 691.074C931.569 688.927 930.668 685.873 928.245 684.254C925.821 682.635 922.793 683.064 921.481 685.212C920.169 687.36 921.07 690.413 923.494 692.032C925.917 693.651 928.945 693.222 930.257 691.074Z" fill="#FF7F8E"/>
<path d="M914.159 687.266C915.471 685.118 914.57 682.065 912.146 680.446C909.723 678.827 906.694 679.256 905.383 681.403C904.071 683.551 904.972 686.605 907.395 688.224C909.819 689.843 912.847 689.414 914.159 687.266Z" fill="#FF7F8E"/>
<path d="M912.822 674.722C912.891 675.63 913.167 676.507 913.628 677.279C914.089 678.052 914.72 678.697 915.47 679.161C917.888 680.776 920.915 680.352 922.221 678.238C923.527 676.125 922.636 673.042 920.209 671.427C920.043 671.316 919.873 671.215 919.697 671.122L919.282 671.491L912.822 674.722Z" fill="#FF7F8E"/>
<path d="M913.528 695.478C913.228 695.984 913.033 696.55 912.955 697.14C912.878 697.73 912.919 698.331 913.078 698.902L922.892 699.096C922.854 698.157 922.592 697.243 922.13 696.437C921.667 695.631 921.019 694.958 920.244 694.482C917.862 692.903 914.835 693.337 913.528 695.478Z" fill="#FF7F8E"/>
<path d="M897.537 691.944C897.164 692.592 896.956 693.33 896.935 694.086C896.913 694.843 897.078 695.592 897.413 696.263C900.555 696.872 903.706 697.463 906.239 697.924L906.318 697.804C907.624 695.663 906.724 692.608 904.306 690.993C901.888 689.378 898.852 689.802 897.537 691.944Z" fill="#FF7F8E"/>
<path d="M886.54 688.113C886.918 688.554 887.352 688.939 887.829 689.258C890.247 690.873 893.274 690.448 894.58 688.335C894.956 687.684 895.164 686.942 895.184 686.182C895.204 685.422 895.036 684.669 894.695 683.997L886.54 688.113Z" fill="#FF7F8E"/>
<path d="M928.743 694.555L927.861 696.023C926.946 695.025 925.835 694.247 924.604 693.743L924.348 693.679C922.698 693.365 925.231 692.211 925.231 692.211C925.231 692.211 928.399 693.586 928.743 694.555Z" fill="#94CC79"/>
<path d="M921.074 683.96L920.191 685.437C919.278 684.435 918.167 683.654 916.935 683.148L916.679 683.083C915.037 682.779 917.561 681.616 917.561 681.616C917.561 681.616 920.73 682.991 921.074 683.96Z" fill="#94CC79"/>
<path d="M916.291 687.883L915.408 689.35C914.494 688.352 913.383 687.574 912.152 687.07L911.896 687.006C910.245 686.692 912.778 685.538 912.778 685.538C912.778 685.538 915.938 686.895 916.291 687.883Z" fill="#94CC79"/>
<path d="M906.08 691.574L905.197 693.051C904.284 692.049 903.173 691.268 901.941 690.762L901.685 690.698C900.034 690.393 902.567 689.23 902.567 689.23C902.567 689.23 905.727 690.568 906.08 691.574Z" fill="#94CC79"/>
<path d="M891.288 691.021L890.406 692.497C889.489 691.496 888.375 690.715 887.141 690.208L886.885 690.144C885.243 689.839 887.767 688.676 887.767 688.676C887.767 688.676 890.927 690.042 891.288 691.021Z" fill="#94CC79"/>
<path d="M903.423 685.483L902.541 686.951C901.628 685.949 900.516 685.167 899.284 684.662L899.028 684.597C897.378 684.292 899.911 683.13 899.911 683.13C899.911 683.13 903.07 684.505 903.423 685.483Z" fill="#94CC79"/>
<path d="M939.828 701.883C939.828 701.883 945.503 701.237 942.608 697.333C939.533 696.549 936.318 696.606 933.271 697.5C933.271 697.5 909.116 698.626 905.983 696.817C905.983 696.817 884.096 693.125 883.213 691.962C883.213 691.962 881.448 692.368 886.814 694.86C892.18 697.352 909.345 699.955 909.345 699.955L927.552 701.468L934.1 700.619L939.828 701.883Z" fill="#E7C4C3"/>
<path opacity="0.2" d="M939.828 701.883C939.828 701.883 945.503 701.237 942.608 697.333C939.533 696.549 936.318 696.606 933.271 697.5C933.271 697.5 909.116 698.626 905.983 696.817C905.983 696.817 884.096 693.125 883.213 691.962C883.213 691.962 881.448 692.368 886.814 694.86C892.18 697.352 909.345 699.955 909.345 699.955L927.552 701.468L934.1 700.619L939.828 701.883Z" fill="white"/>
<path d="M922.618 692.83C922.353 693.693 922.29 694.61 922.432 695.504C922.575 696.398 922.92 697.244 923.439 697.97C925.098 700.416 928.055 701.21 930.049 699.742C932.044 698.275 932.3 695.128 930.632 692.636C930.517 692.47 930.394 692.303 930.27 692.147L929.741 692.331L922.618 692.83Z" fill="#FF7F8E"/>
<path d="M922.407 735.801L987.97 675.22L989.982 688.593L924.145 752.737L922.407 735.801Z" fill="#CCCAD6"/>
<path d="M996.478 678.672L987.97 675.22L1021.02 577.002L1027.32 581.654L996.478 678.672Z" fill="#CCCAD6"/>
<g opacity="0.1">
<path opacity="0.1" d="M943.27 821.827C943.336 819.451 943.665 817.091 944.249 814.794L943.817 814.951C943.393 817.215 943.21 819.521 943.27 821.827Z" fill="white"/>
<path opacity="0.1" d="M947.656 854.933C940.79 855.357 919.503 845.113 915.24 839.76C914.678 839.038 914.334 838.158 914.252 837.231C914.126 837.983 914.149 838.755 914.319 839.498C914.489 840.24 914.802 840.939 915.24 841.55C919.503 846.903 940.79 857.138 947.656 856.714C954.91 856.271 979.224 857.637 980.08 846.008C980.139 845.695 980.099 845.371 979.965 845.085C978.006 855.772 954.725 854.517 947.656 854.933Z" fill="white"/>
</g>
<path d="M972.588 638.395C972.588 638.395 974.106 636.549 972.729 635.22C972.067 634.574 966.878 632.101 961.653 629.683C959.085 628.502 956.499 627.339 954.443 626.416L950.162 624.505L948.777 624.136L940.437 621.912L932.591 619.817L929.061 619.715L927.878 633.919L935.283 647.837L937.772 646.508L938.204 646.277L944.32 644.837L961.6 640.813L969.357 638.968L970.24 638.755L972.588 638.395Z" fill="#FFE09C"/>
<path d="M923.236 619.281C923.236 619.281 921.745 634.713 925.972 641.293C925.972 641.293 929.361 647.089 931.797 649.083C931.797 649.083 933.738 651.372 937.207 646.739C937.207 646.739 929.67 638.949 929.749 629.729L929.82 620.5L923.236 619.281Z" fill="#E7C4C3"/>
<path d="M938.973 634.148C940.504 632.592 940.321 629.798 938.564 627.909C936.808 626.019 934.143 625.749 932.612 627.305C931.081 628.861 931.264 631.655 933.021 633.544C934.777 635.434 937.442 635.704 938.973 634.148Z" fill="#FF7F8E"/>
<path d="M951.991 640.772C953.522 639.215 953.339 636.422 951.583 634.532C949.826 632.643 947.161 632.373 945.63 633.929C944.1 635.485 944.283 638.278 946.039 640.168C947.796 642.058 950.46 642.328 951.991 640.772Z" fill="#FF7F8E"/>
<path d="M944.355 644.847C944.472 644.061 944.409 643.258 944.169 642.503C943.93 641.749 943.522 641.065 942.978 640.509C941.213 638.663 938.566 638.349 937.021 639.909C935.477 641.469 935.68 644.256 937.436 646.148C937.553 646.278 937.677 646.401 937.807 646.517L938.239 646.286L944.355 644.847Z" fill="#FF7F8E"/>
<path d="M947.771 626.969C948.125 626.601 948.4 626.157 948.578 625.669C948.756 625.18 948.833 624.658 948.803 624.136L940.463 621.912C940.319 622.714 940.367 623.54 940.603 624.318C940.839 625.096 941.254 625.801 941.814 626.37C943.543 628.271 946.209 628.538 947.771 626.969Z" fill="#FF7F8E"/>
<path d="M960.709 633.356C961.155 632.877 961.477 632.286 961.642 631.639C961.808 630.993 961.811 630.313 961.653 629.664C959.085 628.483 956.499 627.32 954.443 626.397L954.346 626.48C952.819 628.04 953.004 630.837 954.76 632.729C956.517 634.621 959.182 634.916 960.709 633.356Z" fill="#FF7F8E"/>
<path d="M969.357 638.967C969.124 638.509 968.826 638.089 968.475 637.722C966.71 635.83 964.062 635.562 962.527 637.122C962.078 637.599 961.755 638.191 961.591 638.838C961.427 639.485 961.427 640.166 961.591 640.813L969.357 638.967Z" fill="#FF7F8E"/>
<path d="M934.533 624.57L935.583 623.508C936.175 624.552 936.976 625.449 937.93 626.139L938.133 626.25C939.484 626.859 937.083 627.311 937.083 627.311C937.083 627.311 934.683 625.474 934.533 624.57Z" fill="#94CC79"/>
<path d="M939.086 635.276L940.128 634.205C940.718 635.252 941.519 636.153 942.475 636.845L942.678 636.946C944.029 637.565 941.628 638.017 941.628 638.017C941.628 638.017 939.192 636.125 939.086 635.276Z" fill="#94CC79"/>
<path d="M943.914 632.904L944.964 631.833C945.555 632.88 946.356 633.781 947.312 634.473L947.515 634.574C948.865 635.193 946.465 635.645 946.465 635.645C946.465 635.645 944.029 633.808 943.914 632.904Z" fill="#94CC79"/>
<path d="M953.339 631.907L954.39 630.837C954.979 631.882 955.777 632.782 956.728 633.476L956.94 633.587C958.282 634.196 955.89 634.648 955.89 634.648C955.89 634.648 953.454 632.812 953.339 631.907Z" fill="#94CC79"/>
<path d="M965.88 635.47L966.93 634.399C967.516 635.447 968.315 636.348 969.269 637.039L969.481 637.14C970.823 637.758 968.431 638.211 968.431 638.211C968.431 638.211 965.995 636.365 965.88 635.47Z" fill="#94CC79"/>
<path d="M954.443 637.638L955.493 636.577C956.085 637.621 956.886 638.518 957.84 639.207C957.903 639.253 957.971 639.291 958.043 639.318C959.394 639.927 956.993 640.389 956.993 640.389C956.993 640.389 954.557 638.543 954.443 637.638Z" fill="#94CC79"/>
<path d="M926.484 615.977C926.484 615.977 921.515 615.341 923.236 619.281C925.71 620.602 928.466 621.238 931.241 621.127C931.241 621.127 952.077 625.244 954.407 627.44C954.407 627.44 972.385 635.174 972.941 636.374C972.941 636.374 974.52 636.374 970.425 633.135C966.33 629.895 952.183 624.035 952.183 624.035L936.933 618.912L931.179 618.257L926.484 615.977Z" fill="#E7C4C3"/>
<path opacity="0.2" d="M926.484 615.977C926.484 615.977 921.515 615.341 923.236 619.281C925.71 620.602 928.466 621.238 931.241 621.127C931.241 621.127 952.077 625.244 954.407 627.44C954.407 627.44 972.385 635.174 972.941 636.374C972.941 636.374 974.52 636.374 970.425 633.135C966.33 629.895 952.183 624.035 952.183 624.035L936.933 618.912L931.179 618.257L926.484 615.977Z" fill="white"/>
<path d="M901.076 637.472C903.61 636.081 905.904 634.256 907.862 632.073C908.745 630.984 909.486 629.757 910.395 628.686C912.687 626.126 915.665 624.35 918.938 623.592C922.186 622.846 925.507 622.508 928.831 622.586C931.056 622.437 933.288 622.719 935.415 623.416C936.479 623.78 937.437 624.421 938.2 625.278C938.963 626.135 939.505 627.181 939.775 628.317C940.26 631.086 938.531 633.771 936.457 635.553C934.525 637.201 932.253 638.354 929.82 638.921C927.837 639.28 925.836 639.524 923.827 639.65C912.019 640.943 901.482 647.661 891.174 653.781C882.084 659.161 876.93 658.912 867.495 663.582C867.125 660.629 862.853 662.918 862.915 659.936C862.968 657.712 863.074 654.316 865.086 653.005C867.425 651.482 871.264 651.159 873.911 650.236C879.994 648.151 885.935 645.638 891.694 642.715C894.877 641.084 898.005 639.337 901.076 637.472Z" fill="#A0616A"/>
<path opacity="0.1" d="M823.095 629.212L868.343 672.036C868.343 672.036 876.877 654.196 879.436 654.196C881.995 654.196 848.724 601.589 848.724 601.589C848.724 601.589 840.19 590.883 835.071 596.236C829.952 601.589 814.561 597.98 823.095 629.212Z" fill="black"/>
<path d="M822.239 627.431L867.46 670.255C867.46 670.255 875.994 652.405 878.553 652.405C881.113 652.405 847.832 599.798 847.832 599.798C847.832 599.798 839.298 589.083 834.18 594.436C829.061 599.789 813.705 596.199 822.239 627.431Z" fill="#EC3838"/>
<path d="M896.69 551.945C897.677 550.796 898.479 549.487 899.064 548.068C902.964 538.839 896.778 527.247 886.214 524.072C880.919 522.457 874.988 522.78 869.702 521.064C865.448 519.688 861.865 517.086 857.964 515.055C850.634 511.278 842.523 509.458 834.356 509.758C826.369 510.053 817.685 512.988 814.411 519.439C809.628 528.835 818.426 540.666 813.096 549.813C809.178 556.532 799.673 558.516 791.792 561.432C783.632 564.383 776.204 569.198 770.046 575.525C763.868 581.986 759.456 590.846 762.562 598.857C764.371 603.555 768.457 607.228 771.705 611.28C777.124 617.928 780.293 626.26 780.722 634.984C781.152 643.708 778.817 652.336 774.079 659.53C772.561 661.81 770.787 664.034 770.161 666.618C768.66 672.784 774.715 678.986 781.713 680.185C788.712 681.385 795.975 678.653 801.42 674.62C806.447 670.996 810.494 666.074 813.167 660.333C819.636 645.991 815.091 629.877 814.446 614.436C814.367 612.636 814.446 610.68 815.655 609.268C817.526 607.154 821.056 607.21 824.075 606.933C831.885 606.213 839.078 601.635 842.387 595.322C848.715 583.177 841.346 566.204 852.404 557.067C866.322 545.567 886.355 563.749 896.69 551.945Z" fill="#3F3D56"/>
<path opacity="0.1" d="M886.214 524.035H886.126C890.256 529.038 891.809 535.793 889.356 541.626C888.771 543.045 887.969 544.354 886.982 545.503C876.647 557.307 856.614 539.125 842.696 550.625C831.638 559.762 839.007 576.734 832.679 588.88C829.396 595.193 822.177 599.771 814.367 600.491C811.349 600.768 807.818 600.712 805.947 602.826C804.703 604.238 804.659 606.194 804.738 607.994C805.383 623.435 809.928 639.549 803.459 653.891C800.786 659.632 796.739 664.554 791.712 668.178C786.267 672.193 779.013 674.962 772.005 673.762L771.52 673.651C772.716 675.399 774.234 676.881 775.984 678.009C777.734 679.137 779.682 679.89 781.713 680.222C788.72 681.413 795.931 678.644 801.42 674.62C806.447 670.996 810.494 666.074 813.167 660.333C819.636 645.991 815.091 629.877 814.446 614.436C814.367 612.636 814.446 610.68 815.655 609.268C817.526 607.154 821.056 607.21 824.075 606.933C831.885 606.213 839.078 601.635 842.387 595.322C848.715 583.177 841.346 566.204 852.404 557.067C866.322 545.567 886.355 563.749 896.69 551.945C897.677 550.796 898.479 549.487 899.064 548.068C902.964 538.811 896.778 527.293 886.214 524.035Z" fill="black"/>
<defs>
<linearGradient id="paint0_linear" x1="238" y1="143" x2="797" y2="1024" gradientUnits="userSpaceOnUse">
<stop stop-color="#FC0A0A"/>
<stop offset="0.255208" stop-color="#FC2308" stop-opacity="0.76"/>
<stop offset="0.5" stop-color="#FC0505" stop-opacity="0.9"/>
<stop offset="0.744792" stop-color="#FDE403" stop-opacity="0.8"/>
<stop offset="1" stop-color="#FD6A00"/>
</linearGradient>
</defs>
</svg>
