<svg width="375" height="812" viewBox="0 0 375 812" fill="none" xmlns="http://www.w3.org/2000/svg">
<rect width="375" height="812" fill="url(#paint0_linear)"/>
<path d="M342.629 515.415C335.764 502.123 326.033 490.694 314.211 482.039C313.366 481.428 312.391 481.042 311.372 480.917C312.764 471.317 312.472 460.709 307.304 452.71C295.039 433.728 232.554 453.317 232.554 453.317C188.754 437.401 150.792 457.603 150.792 457.603C150.792 457.603 102.32 449.645 80.1302 455.769C69.6647 458.658 67.1226 469.847 67.3605 480.87H67.3258C66.3979 480.868 65.4816 481.086 64.6452 481.507C63.8087 481.928 63.0735 482.541 62.4944 483.301C56.5927 491.031 38.7637 514.838 39.2494 519.436C39.8341 524.947 59.105 596.572 58.2329 631.164L327.447 628.047C327.447 628.047 331.906 558.438 343.061 520.334C343.544 518.699 343.389 516.93 342.629 515.415V515.415Z" fill="#3F3D56"/>
<path opacity="0.1" d="M61.7412 519.747L72.836 496.48L82.1767 541.783L82.2857 562.812L61.7412 519.747Z" fill="black"/>
<path opacity="0.1" d="M316.352 519.747L305.257 496.48L292.388 539.435L294.866 563.851L316.352 519.747Z" fill="black"/>
<path d="M81.364 540.547L292.408 539.337L294.747 563.825L82.1766 563.212L81.364 540.547Z" fill="#3F3D56"/>
<path opacity="0.1" d="M81.364 540.547L292.408 539.337L294.747 563.825L82.1766 563.212L81.364 540.547Z" fill="black"/>
<path opacity="0.1" d="M290.669 561.44H86.4828C83.6175 561.44 81.2946 563.875 81.2946 566.879V582.328C81.2946 585.332 83.6175 587.767 86.4828 587.767H290.669C293.534 587.767 295.857 585.332 295.857 582.328V566.879C295.857 563.875 293.534 561.44 290.669 561.44Z" fill="white"/>
<path d="M251.948 473.369C251.948 473.369 251.235 472.33 250.392 472.891C249.991 473.166 248.103 475.66 246.25 478.195C245.338 479.436 244.431 480.688 243.713 481.686C242.826 482.912 242.226 483.764 242.226 483.764L241.869 484.465L239.704 488.709L237.667 492.699L237.172 494.579L244.05 497.031L251.879 494.792L251.542 493.27L251.483 493.01L251.547 489.509L251.725 479.639L251.81 475.198V474.678L251.948 473.369Z" fill="#FFE09C"/>
<path d="M236.201 497.701C236.201 497.701 243.634 500.48 247.444 499.026C247.444 499.026 250.739 497.924 252.038 496.859C252.038 496.859 253.42 496.101 251.542 493.628C251.542 493.628 246.731 496.719 242.177 495.504L237.623 494.283L236.201 497.701Z" fill="#E7C4C3"/>
<path d="M244.491 494.185C245.651 493.472 246.124 492.06 245.548 491.031C244.973 490.001 243.566 489.744 242.407 490.456C241.248 491.168 240.774 492.58 241.35 493.61C241.926 494.639 243.332 494.897 244.491 494.185Z" fill="#FF7F8E"/>
<path d="M249.434 487.972C250.594 487.26 251.067 485.848 250.491 484.818C249.916 483.788 248.509 483.531 247.35 484.243C246.191 484.955 245.717 486.367 246.293 487.397C246.869 488.427 248.275 488.684 249.434 487.972Z" fill="#FF7F8E"/>
<path d="M251.542 489.509C251.169 489.346 250.764 489.278 250.36 489.311C249.957 489.345 249.567 489.478 249.223 489.701C248.064 490.413 247.588 491.826 248.168 492.854C248.747 493.883 250.15 494.143 251.304 493.431C251.384 493.379 251.463 493.327 251.537 493.27L251.478 493.01L251.542 489.509Z" fill="#FF7F8E"/>
<path d="M243.133 485.39C242.995 485.151 242.811 484.945 242.593 484.786C242.374 484.626 242.126 484.517 241.865 484.465L239.699 488.709C240.078 488.888 240.493 488.967 240.908 488.938C241.323 488.909 241.725 488.773 242.078 488.543C243.237 487.831 243.708 486.418 243.133 485.39Z" fill="#FF7F8E"/>
<path d="M247.95 479.171C247.771 478.871 247.521 478.624 247.226 478.453C246.93 478.282 246.598 478.193 246.26 478.195C245.348 479.436 244.441 480.688 243.723 481.686L243.753 481.748C244.327 482.787 245.735 483.031 246.894 482.319C248.054 481.608 248.515 480.2 247.95 479.171Z" fill="#FF7F8E"/>
<path d="M251.805 475.192C251.549 475.26 251.304 475.364 251.076 475.504C249.917 476.216 249.446 477.629 250.021 478.657C250.201 478.959 250.451 479.207 250.749 479.378C251.047 479.549 251.381 479.637 251.721 479.634L251.805 475.192Z" fill="#FF7F8E"/>
<path d="M240.264 492.226L239.868 491.525C240.461 491.339 241.009 491.02 241.473 490.589C241.503 490.558 241.528 490.522 241.552 490.491C242.048 489.836 241.944 491.197 241.944 491.197C241.944 491.197 240.725 492.283 240.264 492.226Z" fill="#94CC79"/>
<path d="M246.111 491.14L245.715 490.434C246.308 490.247 246.856 489.928 247.32 489.499C247.32 489.467 247.375 489.436 247.4 489.4C247.895 488.751 247.791 490.106 247.791 490.106C247.791 490.106 246.572 491.197 246.111 491.14Z" fill="#94CC79"/>
<path d="M245.576 488.231L245.18 487.525C245.772 487.339 246.32 487.022 246.785 486.595C246.81 486.558 246.84 486.527 246.864 486.496C247.36 485.842 247.256 487.197 247.256 487.197C247.256 487.197 246.037 488.278 245.576 488.231Z" fill="#94CC79"/>
<path d="M246.285 482.984L245.888 482.278C246.481 482.091 247.029 481.772 247.494 481.343C247.494 481.312 247.548 481.281 247.573 481.244C248.068 480.59 247.964 481.951 247.964 481.951C247.964 481.951 246.745 483.036 246.285 482.984Z" fill="#94CC79"/>
<path d="M249.639 476.636L249.248 475.93C249.84 475.744 250.386 475.425 250.848 474.995C250.877 474.964 250.904 474.931 250.928 474.896C251.423 474.247 251.324 475.603 251.324 475.603C251.324 475.603 250.1 476.688 249.639 476.636Z" fill="#94CC79"/>
<path d="M249.263 483.114L248.866 482.408C249.46 482.224 250.007 481.906 250.472 481.478C250.472 481.442 250.526 481.41 250.551 481.379C251.047 480.725 250.943 482.081 250.943 482.081C250.943 482.081 249.724 483.171 249.263 483.114Z" fill="#94CC79"/>
<path d="M234.982 495.504C234.982 495.504 234.03 498.101 236.201 497.685C237.166 496.512 237.827 495.096 238.118 493.576C238.118 493.576 242.811 482.797 244.198 481.81C244.198 481.81 250.313 473.047 250.972 472.917C250.972 472.917 251.185 472.065 249.05 473.868C246.914 475.67 242.236 482.61 242.236 482.61L237.776 490.231L236.726 493.27L234.982 495.504Z" fill="#E7C4C3"/>
<path opacity="0.2" d="M234.982 495.504C234.982 495.504 234.03 498.101 236.201 497.685C237.166 496.512 237.827 495.096 238.118 493.576C238.118 493.576 242.811 482.797 244.198 481.81C244.198 481.81 250.313 473.047 250.972 472.917C250.972 472.917 251.185 472.065 249.05 473.868C246.914 475.67 242.236 482.61 242.236 482.61L237.776 490.231L236.726 493.27L234.982 495.504Z" fill="white"/>
<path d="M161.272 548.266C162.09 551.084 163.097 553.837 164.285 556.505C167.697 555.757 171.054 554.754 174.329 553.503C174.434 553.466 172.451 550.749 172.243 550.526C171.436 549.591 170.474 548.816 169.404 548.24C168.358 547.763 167.07 548.126 165.935 548.188C164.389 548.272 162.835 548.298 161.272 548.266Z" fill="#FBBEBE"/>
<path d="M169.424 552.531C167.719 551.97 166.679 550.168 165.985 548.433C165.291 546.698 164.731 544.796 163.413 543.529C163.163 543.569 162.926 543.673 162.723 543.833C162.521 543.992 162.36 544.202 162.254 544.443C162.048 544.93 161.818 545.405 161.565 545.866C161.02 546.698 160.078 547.103 159.36 547.809C158.641 548.516 158.24 549.591 157.492 550.303C156.55 551.196 155.222 551.42 153.988 551.716C152.077 552.171 150.231 552.887 148.498 553.846C147.86 554.249 147.178 554.57 146.466 554.801C145.683 554.962 144.88 554.99 144.088 554.884L138.637 554.479C138.151 554.414 137.659 554.435 137.18 554.542C136.629 554.752 136.16 555.149 135.846 555.668C135.532 556.188 135.391 556.802 135.446 557.414C135.515 558.024 135.705 558.613 136.001 559.143C136.298 559.673 136.696 560.133 137.17 560.495C138.123 561.204 139.172 561.76 140.282 562.141C145.037 564.026 149.933 565.492 154.92 566.526V567.658C158.386 569.45 162.199 570.381 166.064 570.38C166.349 570.402 166.635 570.35 166.897 570.23C167.254 569.958 167.505 569.559 167.6 569.108C168.912 565.084 169.678 560.887 169.875 556.64C169.972 555.566 169.893 554.482 169.642 553.435C169.344 552.396 170.365 552.838 169.419 552.433" fill="#2F2E41"/>
<path d="M274.138 530.952C257.949 531.991 241.929 526.999 225.745 526.469C223.73 526.336 221.707 526.472 219.725 526.875C217.643 527.363 215.701 528.35 213.778 529.295C205.082 533.534 196.093 537.046 187.109 540.552L176.792 544.583C174.731 545.388 172.595 546.204 170.4 546.064C169.409 546.001 168.205 545.846 167.655 546.703C165.975 549.3 166.768 553.139 167.878 556.053C168.234 556.999 168.869 558.027 169.81 558.131C170.489 558.204 171.123 557.793 171.792 557.612C173.67 557.092 175.544 558.412 177.476 558.625C179.864 558.89 182.079 557.466 184.334 556.593C188.07 555.144 192.158 555.191 196.088 554.516C202.678 553.362 208.783 550.157 214.492 546.505C216.662 545.113 218.862 543.622 221.36 543.113C224.229 542.526 227.177 543.3 229.997 544.152C236.708 546.142 243.314 548.5 249.788 551.217C253.197 552.651 256.587 554.183 260.135 555.175C267.81 557.291 275.927 556.794 283.315 553.757C285.902 552.682 288.721 550.786 288.87 547.856C288.954 546.183 287.716 544.739 286.888 543.285C286.363 542.365 285.833 541.451 285.253 540.568C282.443 536.277 279.054 530.646 274.138 530.952Z" fill="#2F2E41"/>
<path opacity="0.1" d="M274.138 530.952C257.949 531.991 241.929 526.999 225.745 526.469C223.73 526.336 221.707 526.472 219.725 526.875C217.643 527.363 215.701 528.35 213.778 529.295C205.082 533.534 196.093 537.046 187.109 540.552L176.792 544.583C174.731 545.388 172.595 546.204 170.4 546.064C169.409 546.001 168.205 545.846 167.655 546.703C165.975 549.3 166.768 553.139 167.878 556.053C168.234 556.999 168.869 558.027 169.81 558.131C170.489 558.204 171.123 557.793 171.792 557.612C173.67 557.092 175.544 558.412 177.476 558.625C179.864 558.89 182.079 557.466 184.334 556.593C188.07 555.144 192.158 555.191 196.088 554.516C202.678 553.362 208.783 550.157 214.492 546.505C216.662 545.113 218.862 543.622 221.36 543.113C224.229 542.526 227.177 543.3 229.997 544.152C236.708 546.142 243.314 548.5 249.788 551.217C253.197 552.651 256.587 554.183 260.135 555.175C267.81 557.291 275.927 556.794 283.315 553.757C285.902 552.682 288.721 550.786 288.87 547.856C288.954 546.183 287.716 544.739 286.888 543.285C286.363 542.365 285.833 541.451 285.253 540.568C282.443 536.277 279.054 530.646 274.138 530.952Z" fill="black"/>
<path d="M192.352 549.092C194.882 549.996 197.439 550.829 200.022 551.591C201.464 549.108 204.165 547.378 204.779 544.542C204.805 544.479 204.818 544.411 204.817 544.343C204.816 544.275 204.801 544.207 204.774 544.146C204.746 544.084 204.706 544.029 204.657 543.984C204.607 543.94 204.55 543.907 204.487 543.887C202.641 542.816 200.592 542.186 198.486 542.043C196.821 541.934 196.063 543.752 195.305 545.035C195.003 545.55 193.031 549.336 192.352 549.092Z" fill="#FBBEBE"/>
<path d="M195.92 547.279C195.163 547.145 194.441 546.848 193.799 546.406C193.158 545.964 192.611 545.388 192.193 544.713C191.836 544.059 191.455 543.155 190.741 543.222C190.028 543.29 189.75 544.1 189.621 544.781C189.141 547.357 188.443 549.882 187.535 552.329C186.624 554.78 185.08 556.917 183.075 558.5C182.134 559.18 181.093 559.695 180.172 560.412C179.344 561.051 178.626 561.861 177.694 562.354C177.085 562.65 176.456 562.897 175.811 563.092C174.865 563.442 173.961 563.904 173.115 564.469C172.373 564.919 171.744 565.55 171.282 566.308C171.049 566.691 170.912 567.131 170.885 567.585C170.858 568.04 170.942 568.494 171.128 568.905C171.324 569.241 171.586 569.529 171.896 569.751C172.206 569.973 172.557 570.124 172.927 570.193C173.665 570.328 174.418 570.349 175.162 570.256C178.11 570.027 181.059 569.736 184.007 569.476C185.253 569.397 186.492 569.224 187.714 568.957C188.363 568.791 188.992 568.578 189.636 568.401C190.739 568.104 191.868 567.93 193.006 567.882C193.339 567.854 193.674 567.886 193.997 567.975C194.681 568.209 195.161 568.921 195.87 569.066C196.322 569.111 196.778 569.047 197.203 568.879C199.324 568.271 201.559 568.287 203.754 568.162C204.745 568.11 205.855 567.918 206.301 567.009C206.856 565.876 205.934 564.609 205.572 563.373C205.388 562.595 205.285 561.799 205.265 560.999C205.098 559.023 204.545 557.104 203.64 555.362C202.892 553.918 201.866 552.318 202.391 550.765C202.569 550.246 202.926 549.726 202.887 549.207C202.718 546.718 197.262 547.575 195.92 547.279Z" fill="#2F2E41"/>
<path d="M249.862 503.727C246.997 502.4 244.702 500.007 243.42 497.01C243.148 496.366 242.925 495.696 242.667 495.047C241.817 492.885 240.497 490.962 238.812 489.431C238.631 489.224 238.409 489.059 238.162 488.95C237.915 488.841 237.648 488.789 237.38 488.797C237.121 488.88 236.887 489.033 236.703 489.241C236.518 489.449 236.389 489.705 236.33 489.982C236.181 490.573 236.144 491.189 236.221 491.795C236.365 493.222 236.6 494.638 236.924 496.034L237.707 499.779C237.804 500.356 237.97 500.918 238.203 501.452C238.539 502.083 238.984 502.643 239.516 503.104C240.234 503.8 240.963 504.47 241.701 505.124C242.73 506.157 244.071 506.782 245.492 506.891C248.703 507.514 251.973 508.418 254.689 510.615C254.654 510.615 254.689 508.101 254.629 507.815C254.505 507.062 254.406 506.314 253.94 505.805C252.875 504.662 251.146 504.335 249.862 503.727Z" fill="#FBBEBE"/>
<path opacity="0.1" d="M249.862 503.727C246.997 502.4 244.702 500.007 243.42 497.01C243.148 496.366 242.925 495.696 242.667 495.047C241.817 492.885 240.497 490.962 238.812 489.431C238.631 489.224 238.409 489.059 238.162 488.95C237.915 488.841 237.648 488.789 237.38 488.797C237.121 488.88 236.887 489.033 236.703 489.241C236.518 489.449 236.389 489.705 236.33 489.982C236.181 490.573 236.144 491.189 236.221 491.795C236.365 493.222 236.6 494.638 236.924 496.034L237.707 499.779C237.804 500.356 237.97 500.918 238.203 501.452C238.539 502.083 238.984 502.643 239.516 503.104C240.234 503.8 240.963 504.47 241.701 505.124C242.73 506.157 244.071 506.782 245.492 506.891C248.703 507.514 251.973 508.418 254.689 510.615C254.654 510.615 254.689 508.101 254.629 507.815C254.505 507.062 254.406 506.314 253.94 505.805C252.875 504.662 251.146 504.335 249.862 503.727Z" fill="black"/>
<path d="M282.83 475.047C285.005 475.047 286.769 473.189 286.769 470.896C286.769 468.604 285.005 466.746 282.83 466.746C280.654 466.746 278.89 468.604 278.89 470.896C278.89 473.189 280.654 475.047 282.83 475.047Z" fill="#2F2E41"/>
<path d="M280.392 468.387C279.326 468.263 278.137 468.174 277.28 468.86C276.825 469.279 276.461 469.797 276.214 470.377C275.333 471.965 274.645 473.663 274.168 475.431C273.816 476.948 273.756 478.548 273.32 480.023C272.513 482.787 270.446 485.119 270.209 488.002C270.104 489.291 270.313 490.802 269.411 491.686C269.191 491.879 268.955 492.053 268.707 492.205C268.084 492.643 267.556 493.212 267.156 493.878C266.885 494.475 266.513 495.016 266.056 495.473C265.253 496.096 263.925 496.028 263.529 496.995C263.132 497.961 264.153 499.072 263.915 500.111C263.722 500.963 262.815 501.353 262.191 501.935C261.388 502.678 261.022 503.794 260.704 504.865C259.388 505.125 258.033 505.085 256.733 504.745C255.433 504.405 254.218 503.774 253.172 502.896C254.268 505.732 254.292 508.864 254.342 511.929C254.342 512.922 254.342 514.038 253.648 514.729C256.785 514.802 259.842 515.69 262.9 516.418C264.237 516.734 265.689 517.01 266.933 516.418C267.635 516.021 268.262 515.493 268.781 514.859C270.446 513.088 272.191 511.161 272.597 508.703C272.825 507.332 272.597 505.919 272.666 504.548C272.819 502.825 273.152 501.125 273.657 499.478C274.539 496.062 275.131 492.571 275.426 489.047C275.605 486.875 277.408 485.125 278.34 483.177C280.124 479.509 281.943 475.686 282.076 471.566C282.141 470.205 281.695 468.538 280.392 468.387Z" fill="#2F2E41"/>
<path opacity="0.1" d="M280.392 468.387C279.326 468.263 278.137 468.174 277.28 468.86C276.825 469.279 276.461 469.797 276.214 470.377C275.333 471.965 274.645 473.663 274.168 475.431C273.816 476.948 273.756 478.548 273.32 480.023C272.513 482.787 270.446 485.119 270.209 488.002C270.104 489.291 270.313 490.802 269.411 491.686C269.191 491.879 268.955 492.053 268.707 492.205C268.084 492.643 267.556 493.212 267.156 493.878C266.885 494.475 266.513 495.016 266.056 495.473C265.253 496.096 263.925 496.028 263.529 496.995C263.132 497.961 264.153 499.072 263.915 500.111C263.722 500.963 262.815 501.353 262.191 501.935C261.388 502.678 261.022 503.794 260.704 504.865C259.388 505.125 258.033 505.085 256.733 504.745C255.433 504.405 254.218 503.774 253.172 502.896C254.268 505.732 254.292 508.864 254.342 511.929C254.342 512.922 254.342 514.038 253.648 514.729C256.785 514.802 259.842 515.69 262.9 516.418C264.237 516.734 265.689 517.01 266.933 516.418C267.635 516.021 268.262 515.493 268.781 514.859C270.446 513.088 272.191 511.161 272.597 508.703C272.825 507.332 272.597 505.919 272.666 504.548C272.819 502.825 273.152 501.125 273.657 499.478C274.539 496.062 275.131 492.571 275.426 489.047C275.605 486.875 277.408 485.125 278.34 483.177C280.124 479.509 281.943 475.686 282.076 471.566C282.141 470.205 281.695 468.538 280.392 468.387Z" fill="black"/>
<path d="M276.69 534.526C273.32 532.843 270.853 529.711 268.127 527.025C262.924 521.903 256.557 518.277 251.086 513.472C247.459 510.293 244.218 506.584 240.234 503.919C236.728 501.583 232.755 500.125 228.624 499.659C228.151 499.571 227.665 499.596 227.202 499.732C226.68 499.974 226.224 500.352 225.879 500.828C224.114 502.917 222.544 505.178 221.191 507.581C214.254 519.919 204.403 530.308 196.242 541.773C195.984 542.046 195.831 542.409 195.813 542.792C195.795 543.176 195.912 543.553 196.142 543.851L197.802 547.259C198.729 549.17 200.221 551.414 202.223 551.014C203.139 550.838 203.868 550.131 204.542 549.456L211.974 541.991L219.789 534.158C224.368 529.571 229.021 524.875 232.009 519.01C234.338 523.249 238.48 526.023 241.319 529.919C242.4 531.394 243.302 533.035 244.243 534.594C245.789 537.098 247.548 539.451 249.302 541.799L258.266 553.794C259.485 555.425 260.744 557.097 262.414 558.204C264.54 559.612 267.121 559.986 269.619 560.219C272.986 560.535 276.367 560.663 279.747 560.604C282.324 560.557 284.98 560.38 287.294 559.18C289.608 557.981 291.506 555.544 291.387 552.801C291.246 551.392 290.804 550.034 290.094 548.827C286.913 542.646 282.726 537.529 276.69 534.526Z" fill="#2F2E41"/>
<path d="M285.253 476.964C286.925 476.964 288.28 475.533 288.28 473.769C288.28 472.005 286.925 470.574 285.253 470.574C283.581 470.574 282.225 472.005 282.225 473.769C282.225 475.533 283.581 476.964 285.253 476.964Z" fill="#E8E8F0"/>
<path d="M284.584 471.369C285.265 472.791 285.384 474.437 284.916 475.951C284.447 477.444 283.792 478.866 282.968 480.179C282.259 481.535 281.41 482.805 280.436 483.966C285.109 484.205 289.643 482.283 293.766 479.951C297.086 478.081 300.396 475.764 302.19 472.263C301.662 472.396 301.114 472.412 300.581 472.309C300.047 472.207 299.54 471.987 299.093 471.665C298.203 471.014 297.405 470.234 296.724 469.348L294.375 466.579C293.824 465.978 293.34 465.312 292.933 464.595C292.424 463.614 292.208 462.496 292.314 461.385C291.382 462.409 290.339 463.315 289.207 464.086C287.532 465.229 285.684 466.06 284.004 467.203C283.409 467.603 282.081 468.242 282.423 469.068C282.765 469.894 284.123 470.496 284.584 471.369Z" fill="#FBBEBE"/>
<path opacity="0.1" d="M284.584 471.369C285.265 472.791 285.384 474.437 284.916 475.951C284.447 477.444 283.792 478.866 282.968 480.179C282.259 481.535 281.41 482.805 280.436 483.966C285.109 484.205 289.643 482.283 293.766 479.951C297.086 478.081 300.396 475.764 302.19 472.263C301.662 472.396 301.114 472.412 300.581 472.309C300.047 472.207 299.54 471.987 299.093 471.665C298.203 471.014 297.405 470.234 296.724 469.348L294.375 466.579C293.824 465.978 293.34 465.312 292.933 464.595C292.424 463.614 292.208 462.496 292.314 461.385C291.382 462.409 290.339 463.315 289.207 464.086C287.532 465.229 285.684 466.06 284.004 467.203C283.409 467.603 282.081 468.242 282.423 469.068C282.765 469.894 284.123 470.496 284.584 471.369Z" fill="black"/>
<path d="M284.648 471.852C283.771 473.411 283.583 475.229 284.648 476.642C284.782 476.818 285.273 477.909 285.486 477.92C285.692 477.898 285.883 477.796 286.021 477.634C287.156 476.548 288.003 475.161 288.994 473.93C289.985 472.699 291.249 471.582 292.765 471.333C294.593 471.037 296.362 472.05 297.963 473.031C298.659 473.387 299.266 473.908 299.737 474.553C300.074 475.193 300.274 475.902 300.322 476.631C300.872 481 300.862 485.426 300.847 489.831C300.847 493.021 300.847 496.226 300.252 499.353C299.955 500.974 299.509 502.558 299.296 504.189C299.143 505.629 299.082 507.078 299.112 508.527V514.594C299.072 515.708 299.147 516.822 299.335 517.919C299.608 519.249 300.208 520.475 300.609 521.768C301.023 523.255 301.307 524.778 301.456 526.319L302.249 532.599C302.497 534.578 302.68 536.755 301.541 538.313C301.045 539.03 300.346 539.607 299.826 540.324C297.844 542.994 298.493 546.812 297.675 550.079C297.032 552.471 295.708 554.601 293.88 556.183C292.477 557.43 290.669 558.406 288.87 558.058C286.437 557.586 284.975 554.942 284.311 552.412C283.647 549.882 283.409 547.165 281.972 545.046C280.798 543.311 278.999 542.22 277.334 540.983C275.669 539.747 274.084 538.152 273.727 536.054C273.568 535.139 273.667 534.199 273.573 533.274C273.444 532.102 273.016 530.989 272.334 530.05C271.652 529.111 270.741 528.382 269.698 527.939C268.454 527.42 266.918 527.249 266.23 526.054C268.043 524.984 269.242 523.004 269.877 520.921C270.511 518.838 270.64 516.625 270.764 514.444L271.18 507.145C271.363 503.883 271.447 500.652 272.82 497.722C273.43 496.408 274.193 495.182 274.832 493.888C275.675 492.068 276.395 490.188 276.987 488.262C277.978 485.27 278.969 482.278 279.861 479.249C280.216 477.786 280.746 476.376 281.437 475.052C282.141 473.785 283.241 472.127 284.648 471.852Z" fill="#EC3838"/>
<path d="M269.188 519.269L271.031 519.337L271.423 516.423C271.473 515.838 271.603 515.264 271.809 514.719C272.114 514.144 272.469 513.6 272.87 513.093C274.683 510.407 274.549 506.859 275 503.581C275.6 499.228 277.334 495.156 279.049 491.15L282.636 482.792C283.347 481.372 283.689 479.781 283.627 478.179C283.662 476.886 284.024 472.19 284.059 470.907C284.059 470.429 283.067 470.694 282.844 470.268C282.398 469.338 281.784 471.857 280.947 472.408C280.109 472.959 279.643 473.966 279.292 474.933C278.519 477.036 278.048 479.249 277.309 481.374C276.571 483.499 275.59 485.587 273.97 487.088C273.236 487.764 272.394 488.293 271.7 489.015C269.475 491.322 269.257 494.963 269.178 498.252C269.138 500.179 268.762 519.269 269.188 519.269Z" fill="#2F2E41"/>
<path d="M295.708 468.366C293.919 469.104 292.938 471.14 292.438 473.094C291.937 475.047 291.729 477.135 290.768 478.886C288.518 482.984 282.79 484.179 281.209 488.61C280.714 490.06 280.714 491.649 280.57 493.192C280.283 496.366 279.287 499.426 278.994 502.605C278.838 505.071 278.893 507.546 279.158 510.002L281.14 535.035C281.432 538.672 281.422 542.531 280.54 546.043C282.567 546.453 284.678 545.903 286.556 545.004C288.434 544.105 290.153 542.869 291.962 541.825C295.074 540.022 298.508 538.75 301.233 536.35C301.727 535.947 302.15 535.456 302.482 534.9C303.027 533.913 303.077 532.713 303.334 531.602C303.569 530.713 303.869 529.845 304.231 529.004C305.23 526.481 306.1 523.905 306.838 521.285C307.345 519.548 307.744 517.778 308.032 515.986C308.25 514.563 308.369 513.119 308.488 511.68C308.633 509.425 309.06 507.2 309.756 505.062C311.498 499.965 312.485 494.618 312.685 489.208C312.741 488.427 312.689 487.641 312.531 486.875C312.226 485.947 311.82 485.058 311.322 484.226C310.49 482.584 309.989 480.777 309.206 479.104C307.432 475.338 304.296 472.475 301.015 470.081C299.42 468.912 297.537 467.618 295.708 468.366Z" fill="#2F2E41"/>
<path d="M253.851 509.207C252.428 508.424 251.14 507.397 250.041 506.168C249.545 505.555 249.129 504.865 248.619 504.262C247.332 502.821 245.66 501.821 243.822 501.394C241.998 500.975 240.134 500.785 238.267 500.828C237.018 500.745 235.765 500.903 234.57 501.296C233.973 501.501 233.435 501.861 233.007 502.344C232.579 502.826 232.274 503.415 232.123 504.054C231.85 505.613 232.821 507.124 233.986 508.127C235.07 509.054 236.346 509.704 237.712 510.023C238.825 510.225 239.949 510.362 241.077 510.433C247.707 511.161 253.623 514.942 259.411 518.386C264.515 521.417 269.716 524.246 275.015 526.875C275.224 525.21 275.312 523.53 275.278 521.851C275.248 520.599 275.189 518.688 274.059 517.95C272.746 517.093 270.59 516.911 269.104 516.392C265.688 515.218 262.352 513.803 259.119 512.158C257.332 511.24 255.576 510.257 253.851 509.207Z" fill="#FBBEBE"/>
<path d="M294.565 460.929C296.233 454.278 292.47 447.477 286.16 445.738C279.85 443.999 273.383 447.98 271.715 454.631C270.047 461.282 273.81 468.084 280.12 469.823C286.43 471.562 292.897 467.58 294.565 460.929Z" fill="#FBBEBE"/>
<path d="M299.088 482.486C298.032 483.774 297.502 485.436 296.793 486.964C295.337 490.112 293.047 492.813 291.903 496.106C290.694 499.576 290.733 503.701 288.365 506.428C287.953 506.901 287.458 507.358 287.339 507.987C287.323 508.368 287.281 508.748 287.215 509.124C286.878 510.111 285.332 510.163 285.045 511.171C284.96 511.467 285.005 511.789 284.901 512.08C284.663 512.729 283.845 512.828 283.295 513.223C282.146 514.038 282.379 515.929 281.561 517.109C281.202 517.55 280.737 517.883 280.215 518.073C279.692 518.262 279.13 518.303 278.588 518.189C277.514 517.958 276.481 517.553 275.526 516.989C275.186 516.791 274.812 516.669 274.425 516.631C273.968 516.646 273.524 516.803 273.152 517.083C270.972 518.537 269.946 521.42 269.961 524.142C269.976 526.864 270.868 529.482 271.779 532.028C271.905 532.457 272.111 532.856 272.384 533.202C273.107 534.002 274.366 533.877 275.327 533.43C276.289 532.984 277.161 532.282 278.191 532.085C280.02 531.737 281.809 533.056 283.642 532.947C285 532.864 286.204 532.038 287.329 531.238C289.133 529.96 290.966 528.641 292.284 526.833C293.097 525.721 293.691 524.459 294.4 523.269C295.307 521.82 296.3 520.432 297.373 519.114L304.182 510.376C304.865 509.549 305.479 508.661 306.015 507.722C306.635 506.453 307.114 505.115 307.442 503.732C308.091 501.4 308.745 499.057 308.855 496.621C308.892 494.622 308.726 492.624 308.359 490.662C308.124 488.707 307.623 486.796 306.872 484.99C305.47 481.748 301.868 479.083 299.088 482.486Z" fill="#2F2E41"/>
<path d="M319.682 476.927C320.227 474.795 320.281 472.558 319.84 470.399C319.399 468.241 318.475 466.223 317.145 464.512C318.953 456.424 315.014 448.325 308.077 445.328C308.324 437.744 303.741 430.783 296.68 428.829C289.341 426.809 281.814 430.871 278.647 438.092C274.188 435.666 269.47 435.925 267.914 438.777C266.289 441.759 268.732 446.45 273.365 449.25C274.825 450.145 276.424 450.765 278.087 451.084C278.802 453.202 279.932 455.141 281.404 456.775C282.876 458.408 284.658 459.701 286.635 460.569C286.513 463.636 287.209 466.677 288.645 469.352C290.08 472.027 292.198 474.229 294.762 475.712C295.042 477.843 295.794 479.877 296.957 481.649C296.821 482.021 296.705 482.401 296.61 482.787C295.153 488.579 298.305 494.47 303.642 495.94C308.978 497.41 314.489 493.909 315.941 488.117C316.331 486.573 316.398 484.958 316.139 483.384C317.851 481.605 319.075 479.374 319.682 476.927V476.927Z" fill="#3F3D56"/>
<path opacity="0.1" d="M270.972 440.284C272.528 437.432 277.24 437.167 281.705 439.598C284.861 432.377 292.398 428.31 299.737 430.336C300.069 430.424 300.396 430.533 300.728 430.648C299.473 429.836 298.11 429.223 296.684 428.829C289.346 426.809 281.819 430.871 278.652 438.092C274.193 435.666 269.475 435.925 267.919 438.777C266.294 441.759 268.737 446.45 273.37 449.25C274.24 449.775 275.156 450.209 276.105 450.549C271.675 447.712 269.386 443.193 270.972 440.284Z" fill="black"/>
<path opacity="0.1" d="M299.672 484.293C299.767 483.908 299.883 483.528 300.019 483.156C298.856 481.381 298.104 479.346 297.824 477.213C295.261 475.732 293.142 473.53 291.707 470.856C290.271 468.182 289.575 465.141 289.698 462.076C287.72 461.207 285.938 459.915 284.466 458.281C282.994 456.648 281.864 454.709 281.15 452.59C280.179 452.409 279.231 452.118 278.32 451.723C279.077 453.699 280.202 455.498 281.628 457.014C283.055 458.53 284.755 459.733 286.63 460.554C286.508 463.62 287.204 466.661 288.64 469.336C290.075 472.011 292.193 474.214 294.757 475.696C295.037 477.828 295.789 479.861 296.952 481.634C296.816 482.006 296.7 482.386 296.605 482.771C295.153 488.543 298.28 494.413 303.587 495.909C301.886 494.619 300.6 492.817 299.9 490.742C299.201 488.667 299.121 486.417 299.672 484.293V484.293Z" fill="black"/>
<path d="M288.235 462.066C289.035 461.429 289.024 460.003 288.212 458.881C287.399 457.76 286.091 457.367 285.292 458.003C284.492 458.64 284.502 460.066 285.315 461.188C286.128 462.31 287.435 462.703 288.235 462.066Z" fill="#FBBEBE"/>
<path d="M142.968 352.436C147.426 352.436 151.04 348.647 151.04 343.974C151.04 339.3 147.426 335.512 142.968 335.512C138.51 335.512 134.896 339.3 134.896 343.974C134.896 348.647 138.51 352.436 142.968 352.436Z" fill="#3F3D56"/>
<path d="M160.484 393.505C172.988 393.505 183.125 379.737 183.125 362.753C183.125 345.768 172.988 332 160.484 332C147.98 332 137.844 345.768 137.844 362.753C137.844 379.737 147.98 393.505 160.484 393.505Z" fill="#3F3D56"/>
<path opacity="0.1" d="M160.484 384.217C149.142 384.217 139.747 372.888 138.097 358.109C137.925 359.65 137.839 361.201 137.839 362.753C137.839 379.734 147.977 393.505 160.484 393.505C172.992 393.505 183.125 379.734 183.125 362.753C183.125 361.201 183.039 359.65 182.867 358.109C181.222 372.908 171.827 384.217 160.484 384.217Z" fill="black"/>
<path d="M208.729 452.819C208.233 454.897 206.147 456.59 203.828 457.759C198.942 460.226 192.927 460.959 187.084 461.208C185.598 461.303 184.107 461.273 182.625 461.12C179.567 460.741 176.733 459.374 174.964 457.426C174.711 457.214 174.537 456.917 174.468 456.585C174.481 456.386 174.531 456.191 174.616 456.013C174.701 455.834 174.819 455.676 174.964 455.546C178.081 451.982 183.274 449.79 188.487 448.232C192.451 447.032 199.358 443.925 203.684 444.346C207.886 444.725 209.343 450.169 208.729 452.819Z" fill="#3F3D56"/>
<path opacity="0.1" d="M208.729 452.819C208.233 454.897 206.147 456.59 203.828 457.759C198.942 460.226 192.927 460.959 187.084 461.208C185.598 461.303 184.107 461.273 182.625 461.12C179.567 460.741 176.733 459.374 174.964 457.426C174.711 457.214 174.537 456.917 174.468 456.585C174.481 456.386 174.531 456.191 174.616 456.013C174.701 455.834 174.819 455.676 174.964 455.546C178.081 451.982 183.274 449.79 188.487 448.232C192.451 447.032 199.358 443.925 203.684 444.346C207.886 444.725 209.343 450.169 208.729 452.819Z" fill="black"/>
<path d="M146.659 437.162C145.173 440.218 144.904 443.768 145.911 447.032C146.938 450.278 148.861 453.131 151.436 455.229C157.764 460.554 166.446 461.286 174.538 461.219C181.633 461.152 188.718 460.642 195.756 459.691C198.1 459.374 200.468 459 202.639 458.019C205.28 456.819 207.594 454.621 208.54 451.785C209.487 448.949 208.818 445.437 206.558 443.536C204.576 441.863 201.886 441.634 199.363 441.458L184.919 440.549C186.346 439.032 188.244 438.175 189.983 437.079C192.287 435.614 193.818 433.162 195.498 430.954C197.976 427.65 200.949 424.762 203.922 421.889C204.418 424.715 206.098 427.037 208.104 428.991C210.111 430.944 212.425 432.513 214.517 434.367C219.571 438.866 223.208 444.975 228.525 449.13C232.183 448.122 235.602 446.332 238.569 443.873L236.503 439.951C236.333 439.541 236.065 439.183 235.725 438.912C235.135 438.538 234.382 438.731 233.703 438.627C231.89 438.341 231.097 436.144 230.383 434.372C228.431 429.5 224.685 425.723 221.464 421.64C219.115 418.63 217.033 415.401 215.245 411.993C214.17 409.962 213.189 407.838 211.727 406.087C210.265 404.336 208.228 402.97 206.008 402.97C204.026 402.97 202.242 404.009 200.558 405.048C195.425 408.245 190.487 411.772 185.771 415.609C183.294 417.614 180.851 419.739 177.957 420.97C176.738 421.489 175.479 421.843 174.285 422.471C172.238 423.578 170.682 425.448 169.008 427.105C163.041 433.022 154.87 436.855 146.659 437.162Z" fill="#605D82"/>
<path d="M176.867 395.033C176.802 396.843 176.435 398.628 175.781 400.305C175.451 401.139 174.959 401.892 174.339 402.517C173.718 403.143 172.981 403.628 172.174 403.942C171.026 404.264 169.822 404.305 168.656 404.061C167.637 403.946 166.656 403.591 165.787 403.022C164.434 402.046 163.76 400.305 163.512 398.601C163.264 396.898 163.378 395.157 163.22 393.443C163.065 392.058 162.814 390.686 162.467 389.339C162.363 388.893 162.254 388.446 162.145 387.999C162.036 387.552 161.941 387.106 161.847 386.659C161.753 386.212 161.679 385.822 161.609 385.396C161.54 384.971 161.5 384.68 161.466 384.321C161.434 383.25 161.267 382.188 160.97 381.163C160.688 380.499 160.334 379.872 159.915 379.293C159.736 379.023 159.563 378.773 159.419 378.477C158.958 377.753 158.743 376.888 158.81 376.02C158.829 375.886 158.86 375.753 158.904 375.625C158.919 375.576 158.937 375.527 158.958 375.48C159.135 375.429 159.297 375.334 159.431 375.203C159.565 375.071 159.666 374.908 159.726 374.727C159.794 374.335 159.762 373.932 159.632 373.558C159.487 373.035 159.285 372.532 159.033 372.056C158.869 371.745 158.309 371.179 158.304 370.82C158.304 370.098 159.642 369.516 160.187 369.231C161.852 368.355 163.71 367.961 165.569 368.088C166.758 368.171 168.046 368.555 168.705 369.605C169.3 370.545 169.201 371.766 169.473 372.862C169.496 373.022 169.559 373.172 169.657 373.298C169.786 373.421 169.949 373.499 170.122 373.521C170.413 373.583 170.711 373.595 171.004 373.558V373.558C171.083 373.553 171.161 373.541 171.237 373.521C171.696 373.433 172.129 373.237 172.506 372.95C172.754 372.877 173.001 372.825 173.244 372.779H173.274C174.265 376.041 174.389 379.532 175.197 382.867C175.598 384.519 176.188 386.15 176.252 387.854C176.252 387.926 176.252 388.004 176.252 388.077C176.252 388.628 176.222 389.178 176.252 389.724C176.261 389.968 176.288 390.211 176.331 390.451C176.421 390.838 176.53 391.219 176.658 391.594C176.693 391.713 176.728 391.833 176.758 391.957C176.782 392.044 176.802 392.133 176.817 392.222V392.222C176.962 393.152 176.979 394.098 176.867 395.033V395.033Z" fill="#FBBEBE"/>
<path d="M163.051 373.693C169.466 373.693 174.666 368.241 174.666 361.516C174.666 354.792 169.466 349.34 163.051 349.34C156.636 349.34 151.436 354.792 151.436 361.516C151.436 368.241 156.636 373.693 163.051 373.693Z" fill="#FBBEBE"/>
<path d="M236.8 427.863C236.462 424.544 235.336 421.367 233.525 418.622L234.432 424.258C234.055 424.371 233.656 424.367 233.282 424.246C232.908 424.125 232.576 423.893 232.326 423.578C231.836 422.937 231.461 422.208 231.221 421.427C229.901 417.993 228.175 414.747 226.082 411.765C218.689 411.116 211.375 407.905 204.874 404.155C198.372 400.404 192.282 395.921 185.86 392.02C184.747 391.316 183.588 390.694 182.392 390.16C180.385 389.318 178.13 388.882 176.227 387.89L175.846 387.677C175.414 387.434 175.006 387.149 174.627 386.825C174.423 386.649 174.229 386.46 174.047 386.259C173.097 385.101 172.342 383.782 171.817 382.358C170.796 379.989 170.43 377.126 169.414 374.758C169.883 374.3 170.407 373.911 170.975 373.599V373.599L171.222 373.469C171.626 373.272 172.046 373.112 172.476 372.992C172.724 372.919 172.972 372.867 173.214 372.82H173.244C174.396 372.625 175.575 372.723 176.683 373.106C178.299 373.682 179.656 374.825 181.024 375.911C183.18 377.62 185.419 379.23 187.377 381.189C188.496 382.316 189.522 383.552 190.726 384.576C191.73 385.388 192.788 386.124 193.893 386.778L213.486 399.012C215.696 400.388 217.911 401.77 220.071 403.235C223.357 405.453 226.513 407.858 229.685 410.264L235.279 414.513C235.892 414.929 236.429 415.457 236.865 416.071C237.248 416.76 237.487 417.527 237.563 418.321C238.028 421.52 237.767 424.79 236.8 427.863V427.863Z" fill="#FBBEBE"/>
<path d="M179.75 404.191C178.963 407.874 175.415 410.103 173.556 413.339C171.247 417.354 172.189 422.024 173.061 426.627L168.309 430.918C167.437 431.702 166.56 432.476 165.623 433.188C164.249 434.156 162.814 435.024 161.327 435.785L157.125 438.05C155.821 438.818 154.44 439.431 153.007 439.879C150.242 440.622 147.308 440.102 144.583 439.245C144.261 439.157 143.951 439.024 143.661 438.85C143.491 438.743 143.343 438.602 143.225 438.435C142.954 437.928 142.856 437.34 142.948 436.767C143.225 431.946 144.35 427.224 145.47 422.539C146.059 419.725 146.855 416.963 147.854 414.279C148.837 411.982 149.967 409.757 151.238 407.619C152.725 404.986 154.211 402.331 156.193 400.072C157.041 399.095 157.987 398.17 158.492 396.955C159.191 395.282 158.919 393.365 159.062 391.547C159.169 390.178 159.515 388.842 160.083 387.604V387.604C160.387 386.938 160.752 386.305 161.173 385.713C161.367 386.181 161.555 386.648 161.748 387.111L162.12 388.025C162.283 388.415 162.442 388.809 162.615 389.199C163.078 390.314 163.537 391.431 163.993 392.55C164.485 393.959 165.189 395.276 166.079 396.451C167.025 397.573 168.418 398.388 169.835 398.227C170.501 398.111 171.133 397.841 171.687 397.437C172.24 397.032 172.701 396.504 173.036 395.89C173.7 394.66 174.18 393.33 174.458 391.947C174.849 390.264 174.903 388.515 174.617 386.809C174.121 383.521 172.808 380.165 171.842 377.111C171.448 376.093 171.22 375.013 171.168 373.916C171.167 373.792 171.179 373.669 171.203 373.547V373.454C171.606 373.256 172.026 373.096 172.456 372.976C172.704 372.903 172.952 372.851 173.195 372.804C174.047 377.653 174.901 382.491 175.757 387.319C175.757 387.433 175.801 387.547 175.821 387.661C175.94 388.357 176.064 389.048 176.203 389.739C176.341 390.43 176.46 390.991 176.609 391.609C176.658 391.817 176.713 392.03 176.767 392.238C176.921 392.809 177.089 393.37 177.263 393.931C178.472 397.324 180.489 400.705 179.75 404.191Z" fill="#EC3838"/>
<path d="M226.895 455.967C226.852 456.682 226.983 457.397 227.276 458.045C228 459.437 229.754 459.754 231.24 459.884C240.058 460.645 248.929 460.363 257.687 459.042C258.162 459.006 258.624 458.854 259.034 458.6C260.278 457.686 259.53 455.458 258.152 454.741C256.775 454.024 255.179 454.221 253.693 453.894C252.21 453.501 250.798 452.859 249.51 451.993C246.488 450.171 243.515 448.266 240.591 446.279C238.842 445.099 236.775 443.842 234.808 444.544C229.462 446.434 226.855 449.936 226.895 455.967Z" fill="#2F2E41"/>
<path d="M161.892 386.415L161.847 386.669L161.773 387.095C161.53 388.404 161.228 389.693 160.886 391.007C159.939 394.586 158.676 398.113 157.417 401.583L147.303 429.531C146.451 431.879 145.604 434.206 144.638 436.523C144.315 437.286 143.983 438.081 143.647 438.84C142.462 441.629 141.322 444.512 140.946 447.489C140.698 449.458 140.45 451.468 140.822 453.416C141.194 455.364 142.309 457.271 144.097 457.987C144.96 458.341 146.193 458.813 145.956 459.754C145.832 460.273 145.272 460.522 144.766 460.606C144.104 460.718 143.425 460.675 142.78 460.48C142.135 460.285 141.539 459.943 141.035 459.478C140.094 458.606 139.365 457.239 138.111 457.094C137.244 456.995 136.447 457.541 135.634 457.92C132.388 459.478 128.612 458.387 125.203 457.281C125.471 455.837 126.858 454.881 128.231 454.595C129.603 454.31 131.03 454.507 132.438 454.471C132.888 454.495 133.334 454.374 133.716 454.123C134.061 453.799 134.308 453.376 134.425 452.907C135.328 450.098 135.999 447.213 136.432 444.284C136.888 441.219 137.076 438.112 137.72 435.089C138.216 432.731 138.998 430.445 139.662 428.128C140.951 423.36 142.008 418.526 142.829 413.645C143.245 411.619 143.543 409.569 143.721 407.505C143.835 405.791 143.78 404.066 143.939 402.362C144.202 400.142 144.643 397.949 145.257 395.807C145.862 393.464 146.461 391.131 147.066 388.794C147.958 385.334 148.914 381.745 151.174 379.059C151.958 378.112 152.92 377.345 153.999 376.804C155.078 376.264 156.252 375.961 157.447 375.916C157.895 375.914 158.342 375.965 158.78 376.067L158.998 376.124C159.476 376.253 159.935 376.452 160.361 376.716C161.059 376.249 161.411 376.415 161.877 377.126C162.281 377.887 162.472 378.751 162.427 379.62C162.463 381.898 162.283 384.174 161.892 386.415Z" fill="#FBBEBE"/>
<path d="M162.655 389.173L162.625 389.204L162.467 389.37L160.886 391.028L160.108 387.609L157.447 375.901C157.895 375.898 158.342 375.949 158.78 376.051C158.799 375.917 158.83 375.784 158.874 375.656L158.998 376.108L159.9 379.324L161.609 385.428L161.892 386.435L162.655 389.173Z" fill="#EC3838"/>
<path d="M171.53 343.558H158.22C154.936 343.558 152.274 346.349 152.274 349.792V353.839C152.274 357.281 154.936 360.072 158.22 360.072H171.53C174.814 360.072 177.476 357.281 177.476 353.839V349.792C177.476 346.349 174.814 343.558 171.53 343.558Z" fill="#3F3D56"/>
<path d="M178.948 352.436C183.406 352.436 187.02 348.647 187.02 343.974C187.02 339.3 183.406 335.512 178.948 335.512C174.49 335.512 170.876 339.3 170.876 343.974C170.876 348.647 174.49 352.436 178.948 352.436Z" fill="#3F3D56"/>
<path opacity="0.1" d="M178.754 335.506H178.457C180.536 335.6 182.5 336.532 183.94 338.107C185.379 339.682 186.183 341.779 186.183 343.961C186.183 346.142 185.379 348.239 183.94 349.815C182.5 351.39 180.536 352.322 178.457 352.415H178.754C180.895 352.415 182.948 351.524 184.462 349.937C185.976 348.35 186.827 346.197 186.827 343.953C186.827 341.709 185.976 339.556 184.462 337.969C182.948 336.382 180.895 335.491 178.754 335.491V335.506Z" fill="black"/>
<path opacity="0.1" d="M142.968 335.506H143.265C141.186 335.6 139.222 336.532 137.782 338.107C136.343 339.682 135.539 341.779 135.539 343.961C135.539 346.142 136.343 348.239 137.782 349.815C139.222 351.39 141.186 352.322 143.265 352.415H142.968C141.908 352.415 140.858 352.196 139.879 351.771C138.899 351.346 138.009 350.722 137.26 349.937C136.51 349.151 135.916 348.218 135.51 347.191C135.104 346.165 134.896 345.064 134.896 343.953C134.896 342.842 135.104 341.741 135.51 340.715C135.916 339.688 136.51 338.755 137.26 337.969C138.009 337.184 138.899 336.56 139.879 336.135C140.858 335.71 141.908 335.491 142.968 335.491V335.506Z" fill="black"/>
<path opacity="0.1" d="M177.724 358.415H157.269C156.642 358.415 156.042 358.155 155.599 357.691C155.156 357.228 154.906 356.599 154.905 355.942V357.589C154.906 358.246 155.156 358.875 155.599 359.34C156.042 359.804 156.642 360.066 157.269 360.067H177.744C178.37 360.066 178.971 359.804 179.414 359.34C179.857 358.875 180.106 358.246 180.107 357.589V355.942C180.106 356.269 180.043 356.592 179.923 356.893C179.802 357.194 179.626 357.467 179.405 357.697C179.183 357.927 178.921 358.108 178.632 358.232C178.344 358.355 178.035 358.417 177.724 358.415V358.415Z" fill="black"/>
<path d="M247.117 445.037C247.117 445.037 248.396 445.271 248.604 444.185C248.708 443.666 248.356 440.331 247.955 436.996C247.761 435.354 247.553 433.718 247.385 432.409C247.181 430.803 247.033 429.697 247.033 429.697L246.8 428.887L245.422 424.035L244.124 419.463L243.168 417.666L236.285 421.178L232.004 428.933L233.332 429.811L233.564 429.967L236.007 432.648L242.856 440.18L245.938 443.572L246.299 443.967L247.117 445.037Z" fill="#FFE09C"/>
<path d="M241.706 414.58C241.706 414.58 234.164 418.289 232.35 422.321C232.35 422.321 230.656 425.713 230.443 427.515C230.443 427.515 229.947 429.162 233.074 429.567C233.074 429.567 234.496 423.515 238.763 420.887L243.034 418.263L241.706 414.58Z" fill="#E7C4C3"/>
<path d="M243.671 423.891C244.039 422.453 243.395 421.021 242.232 420.695C241.069 420.368 239.829 421.269 239.461 422.708C239.093 424.147 239.737 425.578 240.9 425.905C242.063 426.232 243.303 425.33 243.671 423.891Z" fill="#FF7F8E"/>
<path d="M242.853 433.296C243.217 431.863 242.574 430.439 241.415 430.115C240.257 429.792 239.023 430.692 238.658 432.125C238.294 433.558 238.938 434.982 240.096 435.306C241.254 435.629 242.489 434.73 242.853 433.296Z" fill="#FF7F8E"/>
<path d="M236.007 432.648C236.403 432.479 236.754 432.215 237.032 431.876C237.31 431.538 237.508 431.134 237.608 430.7C237.975 429.266 237.33 427.837 236.171 427.515C235.011 427.193 233.778 428.092 233.416 429.526C233.387 429.622 233.366 429.721 233.351 429.822L233.584 429.978L236.007 432.648Z" fill="#FF7F8E"/>
<path d="M245.219 429.183C245.491 429.255 245.774 429.266 246.05 429.215C246.326 429.164 246.588 429.052 246.82 428.887L245.442 424.035C245.032 424.194 244.665 424.458 244.375 424.801C244.085 425.144 243.879 425.557 243.777 426.004C243.416 427.453 244.06 428.861 245.219 429.183Z" fill="#FF7F8E"/>
<path d="M246.017 437.577C246.364 437.663 246.725 437.655 247.068 437.553C247.41 437.451 247.722 437.259 247.974 436.996C247.781 435.354 247.573 433.718 247.405 432.409H247.34C246.181 432.081 244.947 432.985 244.58 434.419C244.213 435.853 244.862 437.255 246.017 437.577Z" fill="#FF7F8E"/>
<path d="M245.938 443.557C246.08 443.305 246.188 443.034 246.26 442.751C246.627 441.318 245.982 439.894 244.823 439.572C244.472 439.483 244.105 439.491 243.757 439.594C243.41 439.698 243.094 439.895 242.841 440.164L245.938 443.557Z" fill="#FF7F8E"/>
<path d="M242.533 421.832L243.326 422.056C243.015 422.657 242.831 423.321 242.786 424.004C242.784 424.049 242.784 424.094 242.786 424.139C242.89 424.996 241.993 423.915 241.993 423.915C241.993 423.915 242.147 422.154 242.533 421.832Z" fill="#94CC79"/>
<path d="M238.921 427.193L239.719 427.417C239.405 428.015 239.22 428.678 239.179 429.359C239.176 429.404 239.176 429.449 239.179 429.494C239.283 430.352 238.386 429.271 238.386 429.271C238.386 429.271 238.535 427.51 238.921 427.193Z" fill="#94CC79"/>
<path d="M241.389 428.965L242.182 429.183C241.87 429.784 241.686 430.448 241.642 431.131C241.639 431.176 241.639 431.221 241.642 431.266C241.751 432.123 240.849 431.042 240.849 431.042C240.849 431.042 241.012 429.281 241.389 428.965Z" fill="#94CC79"/>
<path d="M244.56 433.437L245.358 433.655C245.044 434.255 244.86 434.92 244.818 435.603C244.815 435.648 244.815 435.693 244.818 435.738C244.922 436.596 244.025 435.515 244.025 435.515C244.025 435.515 244.179 433.754 244.56 433.437Z" fill="#94CC79"/>
<path d="M246.537 440.798L247.33 441.021C247.019 441.621 246.835 442.284 246.79 442.964C246.787 443.009 246.787 443.054 246.79 443.099C246.899 443.957 245.997 442.881 245.997 442.881C245.997 442.881 246.151 441.115 246.537 440.798Z" fill="#94CC79"/>
<path d="M242.236 435.65L243.029 435.874C242.716 436.481 242.535 437.153 242.499 437.842C242.496 437.887 242.496 437.932 242.499 437.977C242.603 438.835 241.706 437.759 241.706 437.759C241.706 437.759 241.855 435.967 242.236 435.65Z" fill="#94CC79"/>
<path d="M244.159 415.266C244.159 415.266 243.024 412.57 241.681 414.58C241.794 416.213 242.306 417.787 243.168 419.152C243.168 419.152 247.276 430.866 246.934 432.658C246.934 432.658 248.554 443.972 248.153 444.606C248.153 444.606 248.599 445.406 248.916 442.398C249.233 439.39 247.841 430.554 247.841 430.554L245.804 421.37L244.441 418.253L244.159 415.266Z" fill="#E7C4C3"/>
<path opacity="0.2" d="M244.159 415.266C244.159 415.266 243.024 412.57 241.681 414.58C241.794 416.213 242.306 417.787 243.168 419.152C243.168 419.152 247.276 430.866 246.934 432.658C246.934 432.658 248.554 443.972 248.153 444.606C248.153 444.606 248.599 445.406 248.916 442.398C249.233 439.39 247.841 430.554 247.841 430.554L245.804 421.37L244.441 418.253L244.159 415.266Z" fill="white"/>
<path d="M230.532 419.734C230.532 419.734 232.568 425.884 234.432 424.248L232.945 416.212L230.532 419.734Z" fill="#FBBEBE"/>
<path d="M91.2398 444.995C91.2398 444.995 109.203 476.72 113.4 480.958C113.4 480.958 131.348 500.491 122.225 499.14C121.556 499.041 108.42 487.4 107.652 485.488C106.884 483.577 82.0479 449.754 82.0479 449.754L85.5909 446.336L91.2398 444.995Z" fill="#A0616A"/>
<path opacity="0.1" d="M91.2398 444.995C91.2398 444.995 109.203 476.72 113.4 480.958C113.4 480.958 131.348 500.491 122.225 499.14C121.556 499.041 108.42 487.4 107.652 485.488C106.884 483.577 82.0479 449.754 82.0479 449.754L85.5909 446.336L91.2398 444.995Z" fill="black"/>
<path d="M107.666 548.604C107.666 548.604 101.918 556.136 104.317 559.149C106.715 562.162 118.662 567.923 122.517 567.684C126.591 567.435 140.242 568.204 140.723 561.658C140.723 561.658 141.679 558.645 129.227 558.142C116.774 557.638 120.6 544.079 120.6 544.079L107.666 548.604Z" fill="#2F2E41"/>
<path d="M39.1651 484.823C39.1651 484.823 33.417 505.41 50.6613 508.927L69.3426 507.924C69.3426 507.924 95.6896 502.397 102.88 506.418C102.88 506.418 105.754 506.937 104.792 510.937C103.831 514.937 106.229 542.074 106.229 542.074V551.113C106.229 551.113 122.517 551.113 124.435 549.103C124.435 549.103 122.998 541.066 124.435 534.558C125.872 528.049 122.042 507.436 122.042 507.436L121.66 495.067C121.631 493.535 121.213 492.038 120.449 490.73C119.686 489.423 118.603 488.352 117.314 487.628C116.408 487.126 115.401 486.857 114.376 486.844C114.376 486.844 81.8001 481.322 70.3039 482.325C58.8077 483.327 39.1651 484.823 39.1651 484.823Z" fill="#605D82"/>
<path d="M71.2602 419.032C71.2602 419.032 79.8824 429.578 80.8387 433.094C81.7951 436.611 92.3547 445.634 92.3547 445.634C92.3547 445.634 84.6889 451.66 86.126 454.673C87.563 457.686 76.0668 444.632 76.0668 444.632L62.6232 424.056L71.2602 419.032Z" fill="#EC3838"/>
<path opacity="0.1" d="M71.2602 419.032C71.2602 419.032 79.8824 429.578 80.8387 433.094C81.7951 436.611 92.3547 445.634 92.3547 445.634C92.3547 445.634 84.6889 451.66 86.126 454.673C87.563 457.686 76.0668 444.632 76.0668 444.632L62.6232 424.056L71.2602 419.032Z" fill="black"/>
<path d="M76.9935 406.981C76.9935 406.981 72.6824 421.526 72.6824 427.068C72.6824 432.611 54.4768 425.562 54.9575 422.549C55.4382 419.536 65.4973 408.487 65.978 403.968C66.4586 399.448 76.9935 406.981 76.9935 406.981Z" fill="#A0616A"/>
<path opacity="0.1" d="M62.6232 417.022C62.6232 417.022 45.8547 412.502 43.4613 438.118C41.0679 463.733 45.374 466.741 38.1889 482.309C31.0038 497.878 87.0526 484.319 87.0526 484.319C87.0526 484.319 84.1786 480.803 75.0758 482.309L70.7647 468.751C70.7647 468.751 69.3277 462.725 77.4741 462.725C85.6205 462.725 81.7852 445.146 81.7852 445.146C81.7852 445.146 77.4741 430.081 75.0758 428.575C72.6774 427.068 68.3862 418.03 62.6232 417.022Z" fill="black"/>
<path d="M62.6232 416.025C62.6232 416.025 45.8547 411.505 43.4613 437.115C41.0679 462.725 45.374 465.743 38.1889 481.312C31.0038 496.88 87.0526 483.322 87.0526 483.322C87.0526 483.322 84.1786 479.805 75.0758 481.312L70.7647 467.753C70.7647 467.753 69.3425 461.738 77.489 461.738C85.6354 461.738 81.8 444.159 81.8 444.159C81.8 444.159 77.489 429.094 75.0906 427.588C72.6923 426.081 68.3862 417.022 62.6232 416.025Z" fill="#EC3838"/>
<path d="M72.6972 416.019C81.4273 416.019 88.5045 408.6 88.5045 399.448C88.5045 390.296 81.4273 382.877 72.6972 382.877C63.9671 382.877 56.89 390.296 56.89 399.448C56.89 408.6 63.9671 416.019 72.6972 416.019Z" fill="#A0616A"/>
<path d="M69.6448 484.299L109.371 509.192L146.332 473.088L102.27 457L70.5616 479.629L69.6448 484.299Z" fill="#DADAE5"/>
<path d="M116.526 414.617L104.163 453.162L145.153 465.52L162.65 413.396L116.526 414.617Z" fill="#DADAE5"/>
<path opacity="0.03" d="M113.226 411.77L116.581 414.986L162.704 413.765L163.765 410.606L113.226 411.77Z" fill="black"/>
<path opacity="0.03" d="M101.051 450.943L113.226 411.77L116.581 414.986L104.53 452.564L101.051 450.943Z" fill="black"/>
<path d="M113.172 411.401L116.526 414.617L162.65 413.396L163.71 410.238L113.172 411.401Z" fill="#EFF0F4"/>
<path d="M100.997 450.58L113.172 411.401L116.526 414.617L104.475 452.195L100.997 450.58Z" fill="#EFF0F4"/>
<path opacity="0.03" d="M113.172 411.401L118.3 416.43L164.429 415.209L163.71 410.238L113.172 411.401Z" fill="black"/>
<path opacity="0.03" d="M100.997 450.58L113.172 411.401L118.3 416.43L106.249 454.008L100.997 450.58Z" fill="black"/>
<path opacity="0.03" d="M101.076 451.13L102.196 458.585L146.53 474.72L145.237 466.07L101.076 451.13Z" fill="black"/>
<path opacity="0.03" d="M68.3019 475.629L101.076 451.13L102.508 458.58L70.3138 483.68L68.3019 475.629Z" fill="black"/>
<path d="M100.997 450.58L101.958 457.006L146.293 473.14L145.153 465.52L100.997 450.58Z" fill="#EFF0F4"/>
<path d="M68.2178 475.073L100.997 450.58L102.27 457L70.076 482.101L68.2178 475.073Z" fill="#EFF0F4"/>
<path opacity="0.03" d="M100.997 450.58L101.958 457.006L146.293 473.14L145.153 465.52L100.997 450.58Z" fill="black"/>
<path opacity="0.03" d="M68.2178 475.073L100.997 450.58L102.27 457L70.076 482.101L68.2178 475.073Z" fill="black"/>
<path d="M68.2178 475.073L69.6994 484.335L109.317 509.15L108.34 499.618L68.2178 475.073Z" fill="#CCCAD6"/>
<path d="M86.2697 473.608C86.2697 473.608 85.5809 474.985 86.6314 475.618C87.1269 475.92 90.7096 476.657 94.3071 477.364C96.0712 477.707 97.8402 478.039 99.2623 478.299C100.997 478.621 102.196 478.818 102.196 478.818H103.108L108.618 478.927L113.801 479.031L115.996 478.558L114.733 469.53L108.172 461.972L106.799 463.187L106.566 463.395L102.959 465.234L92.7809 470.429L88.2022 472.766L87.6671 473.042L86.2697 473.608Z" fill="#FFE09C"/>
<path d="M119.703 477.966C119.703 477.966 118.469 468.096 114.911 464.637C114.911 464.637 111.987 461.52 110.189 460.668C110.189 460.668 108.657 459.53 107.151 462.959C107.151 462.959 112.934 466.668 114.183 472.439L115.426 478.21L119.703 477.966Z" fill="#E7C4C3"/>
<path d="M112.748 474.443C113.485 473.235 112.979 471.516 111.618 470.605C110.257 469.693 108.557 469.935 107.821 471.144C107.084 472.352 107.59 474.071 108.951 474.982C110.311 475.894 112.012 475.652 112.748 474.443Z" fill="#FF7F8E"/>
<path d="M103.709 472.3C104.446 471.091 103.94 469.372 102.579 468.461C101.219 467.55 99.5183 467.791 98.7817 469C98.045 470.209 98.551 471.928 99.9117 472.839C101.272 473.75 102.973 473.509 103.709 472.3Z" fill="#FF7F8E"/>
<path d="M102.959 465.239C102.997 465.75 103.153 466.244 103.411 466.679C103.67 467.114 104.025 467.477 104.446 467.738C105.803 468.647 107.503 468.408 108.236 467.218C108.97 466.029 108.469 464.294 107.107 463.385C107.014 463.323 106.918 463.265 106.819 463.213L106.586 463.421L102.959 465.239Z" fill="#FF7F8E"/>
<path d="M103.355 476.922C103.187 477.207 103.077 477.526 103.034 477.858C102.99 478.19 103.014 478.528 103.103 478.849L108.613 478.958C108.592 478.43 108.445 477.915 108.185 477.462C107.925 477.008 107.561 476.63 107.126 476.361C105.788 475.473 104.089 475.717 103.355 476.922Z" fill="#FF7F8E"/>
<path d="M94.3765 474.933C94.167 475.298 94.0506 475.713 94.0384 476.139C94.0263 476.564 94.1188 476.986 94.3071 477.364C96.0712 477.707 97.8402 478.039 99.2624 478.299L99.3069 478.231C100.04 477.026 99.5349 475.307 98.1772 474.398C96.8194 473.488 95.1148 473.727 94.3765 474.933Z" fill="#FF7F8E"/>
<path d="M88.2022 472.777C88.4145 473.025 88.6579 473.241 88.9257 473.421C90.2834 474.33 91.9831 474.091 92.7165 472.901C92.9274 472.535 93.0443 472.117 93.0556 471.69C93.0668 471.262 92.9722 470.838 92.7809 470.46L88.2022 472.777Z" fill="#FF7F8E"/>
<path d="M111.898 476.403L111.403 477.229C110.889 476.667 110.265 476.229 109.574 475.946L109.431 475.909C108.504 475.733 109.926 475.083 109.926 475.083C109.926 475.083 111.705 475.857 111.898 476.403Z" fill="#94CC79"/>
<path d="M107.592 470.439L107.097 471.27C106.584 470.706 105.96 470.267 105.268 469.982L105.124 469.946C104.203 469.774 105.62 469.12 105.62 469.12C105.62 469.12 107.399 469.894 107.592 470.439Z" fill="#94CC79"/>
<path d="M104.906 472.647L104.411 473.473C103.897 472.911 103.274 472.473 102.582 472.19L102.439 472.153C101.512 471.977 102.934 471.327 102.934 471.327C102.934 471.327 104.708 472.091 104.906 472.647Z" fill="#94CC79"/>
<path d="M99.1732 474.725L98.6776 475.556C98.165 474.992 97.5409 474.552 96.8491 474.268L96.7054 474.231C95.7788 474.06 97.201 473.405 97.201 473.405C97.201 473.405 98.975 474.159 99.1732 474.725Z" fill="#94CC79"/>
<path d="M90.8682 474.413L90.3727 475.244C89.8578 474.681 89.2322 474.241 88.5392 473.956L88.3955 473.92C87.4739 473.748 88.8911 473.094 88.8911 473.094C88.8911 473.094 90.665 473.862 90.8682 474.413Z" fill="#94CC79"/>
<path d="M97.6817 471.296L97.1861 472.122C96.6735 471.558 96.0494 471.119 95.3577 470.834L95.214 470.798C94.2873 470.626 95.7095 469.972 95.7095 469.972C95.7095 469.972 97.4835 470.746 97.6817 471.296Z" fill="#94CC79"/>
<path d="M118.122 480.527C118.122 480.527 121.308 480.164 119.683 477.966C117.957 477.525 116.151 477.557 114.44 478.06C114.44 478.06 100.878 478.694 99.1187 477.675C99.1187 477.675 86.8297 475.598 86.3342 474.943C86.3342 474.943 85.3431 475.172 88.3559 476.574C91.3687 477.977 101.007 479.442 101.007 479.442L111.229 480.294L114.906 479.816L118.122 480.527Z" fill="#E7C4C3"/>
<path opacity="0.2" d="M118.122 480.527C118.122 480.527 121.308 480.164 119.683 477.966C117.957 477.525 116.151 477.557 114.44 478.06C114.44 478.06 100.878 478.694 99.1187 477.675C99.1187 477.675 86.8297 475.598 86.3342 474.943C86.3342 474.943 85.3431 475.172 88.3559 476.574C91.3687 477.977 101.007 479.442 101.007 479.442L111.229 480.294L114.906 479.816L118.122 480.527Z" fill="white"/>
<path d="M108.459 475.431C108.31 475.917 108.275 476.433 108.355 476.937C108.435 477.44 108.629 477.916 108.92 478.325C109.852 479.701 111.512 480.148 112.632 479.322C113.752 478.496 113.895 476.725 112.959 475.322C112.894 475.229 112.825 475.135 112.756 475.047L112.458 475.151L108.459 475.431Z" fill="#FF7F8E"/>
<path d="M108.34 499.618L145.153 465.52L146.283 473.047L109.317 509.15L108.34 499.618Z" fill="#CCCAD6"/>
<path d="M149.93 467.463L145.153 465.52L163.71 410.238L167.248 412.856L149.93 467.463Z" fill="#CCCAD6"/>
<g opacity="0.1">
<path opacity="0.1" d="M120.055 548.038C120.092 546.701 120.276 545.372 120.605 544.079L120.362 544.168C120.124 545.442 120.021 546.74 120.055 548.038Z" fill="white"/>
<path opacity="0.1" d="M122.517 566.671C118.662 566.91 106.71 561.144 104.317 558.131C104.001 557.725 103.808 557.23 103.762 556.708C103.691 557.131 103.704 557.565 103.799 557.984C103.895 558.402 104.071 558.795 104.317 559.139C106.71 562.152 118.662 567.913 122.517 567.674C126.591 567.424 140.242 568.193 140.723 561.648C140.756 561.472 140.734 561.29 140.659 561.129C139.558 567.144 126.487 566.437 122.517 566.671Z" fill="white"/>
</g>
<path d="M136.516 444.793C136.516 444.793 137.368 443.754 136.595 443.006C136.224 442.642 133.31 441.25 130.376 439.889C128.934 439.224 127.482 438.57 126.328 438.05L123.925 436.975L123.147 436.767L118.464 435.515L114.059 434.336L112.077 434.279L111.413 442.273L115.57 450.107L116.967 449.359L117.21 449.229L120.644 448.419L130.347 446.154L134.702 445.115L135.198 444.995L136.516 444.793Z" fill="#FFE09C"/>
<path d="M108.806 434.035C108.806 434.035 107.969 442.72 110.342 446.424C110.342 446.424 112.245 449.686 113.613 450.808C113.613 450.808 114.703 452.097 116.65 449.489C116.65 449.489 112.419 445.105 112.463 439.915L112.503 434.72L108.806 434.035Z" fill="#E7C4C3"/>
<path d="M117.642 442.402C118.502 441.526 118.399 439.954 117.413 438.89C116.426 437.827 114.93 437.675 114.071 438.551C113.211 439.427 113.314 440.999 114.3 442.062C115.286 443.126 116.783 443.278 117.642 442.402Z" fill="#FF7F8E"/>
<path d="M124.952 446.13C125.811 445.254 125.708 443.682 124.722 442.619C123.736 441.555 122.24 441.403 121.38 442.279C120.521 443.155 120.623 444.727 121.61 445.791C122.596 446.854 124.092 447.006 124.952 446.13Z" fill="#FF7F8E"/>
<path d="M120.664 448.424C120.73 447.982 120.694 447.53 120.56 447.105C120.425 446.68 120.196 446.296 119.891 445.982C118.9 444.944 117.413 444.767 116.546 445.645C115.679 446.523 115.793 448.091 116.779 449.156C116.845 449.23 116.914 449.299 116.987 449.364L117.23 449.234L120.664 448.424Z" fill="#FF7F8E"/>
<path d="M122.582 438.362C122.781 438.154 122.935 437.905 123.035 437.63C123.135 437.355 123.178 437.061 123.162 436.767L118.479 435.515C118.398 435.966 118.425 436.432 118.557 436.869C118.69 437.307 118.923 437.704 119.237 438.024C120.208 439.094 121.705 439.245 122.582 438.362Z" fill="#FF7F8E"/>
<path d="M129.846 441.957C130.097 441.687 130.277 441.354 130.37 440.99C130.463 440.626 130.465 440.244 130.376 439.879C128.934 439.214 127.482 438.559 126.328 438.04L126.273 438.086C125.416 438.964 125.52 440.538 126.506 441.603C127.492 442.668 128.989 442.834 129.846 441.957Z" fill="#FF7F8E"/>
<path d="M134.702 445.115C134.571 444.857 134.404 444.621 134.207 444.414C133.216 443.349 131.729 443.198 130.867 444.076C130.615 444.345 130.434 444.678 130.342 445.042C130.25 445.406 130.25 445.79 130.342 446.154L134.702 445.115Z" fill="#FF7F8E"/>
<path d="M115.149 437.011L115.739 436.414C116.071 437.001 116.521 437.506 117.057 437.894L117.171 437.957C117.929 438.299 116.581 438.554 116.581 438.554C116.581 438.554 115.233 437.52 115.149 437.011Z" fill="#94CC79"/>
<path d="M117.706 443.037L118.291 442.434C118.622 443.024 119.072 443.531 119.609 443.92L119.723 443.977C120.481 444.325 119.133 444.58 119.133 444.58C119.133 444.58 117.765 443.515 117.706 443.037Z" fill="#94CC79"/>
<path d="M120.416 441.702L121.006 441.099C121.338 441.689 121.787 442.196 122.324 442.585L122.438 442.642C123.196 442.99 121.848 443.245 121.848 443.245C121.848 443.245 120.481 442.211 120.416 441.702Z" fill="#94CC79"/>
<path d="M125.709 441.141L126.298 440.538C126.629 441.127 127.077 441.633 127.611 442.024L127.73 442.086C128.483 442.429 127.141 442.684 127.141 442.684C127.141 442.684 125.773 441.65 125.709 441.141Z" fill="#94CC79"/>
<path d="M132.75 443.146L133.34 442.544C133.669 443.133 134.117 443.641 134.653 444.029L134.772 444.086C135.525 444.434 134.182 444.689 134.182 444.689C134.182 444.689 132.814 443.65 132.75 443.146Z" fill="#94CC79"/>
<path d="M126.328 444.367L126.918 443.769C127.25 444.357 127.7 444.862 128.236 445.25C128.271 445.276 128.309 445.297 128.35 445.312C129.108 445.655 127.76 445.915 127.76 445.915C127.76 445.915 126.392 444.876 126.328 444.367Z" fill="#94CC79"/>
<path d="M110.63 432.175C110.63 432.175 107.84 431.816 108.806 434.035C110.195 434.778 111.742 435.136 113.301 435.074C113.301 435.074 125 437.39 126.308 438.627C126.308 438.627 136.402 442.98 136.714 443.655C136.714 443.655 137.601 443.655 135.302 441.832C133.003 440.009 125.059 436.71 125.059 436.71L116.497 433.827L113.266 433.458L110.63 432.175Z" fill="#E7C4C3"/>
<path opacity="0.2" d="M110.63 432.175C110.63 432.175 107.84 431.816 108.806 434.035C110.195 434.778 111.742 435.136 113.301 435.074C113.301 435.074 125 437.39 126.308 438.627C126.308 438.627 136.402 442.98 136.714 443.655C136.714 443.655 137.601 443.655 135.302 441.832C133.003 440.009 125.059 436.71 125.059 436.71L116.497 433.827L113.266 433.458L110.63 432.175Z" fill="white"/>
<path d="M96.3636 444.273C97.7866 443.49 99.0746 442.463 100.174 441.234C100.67 440.621 101.086 439.931 101.596 439.328C102.883 437.887 104.555 436.887 106.393 436.461C108.217 436.041 110.081 435.851 111.948 435.894C113.197 435.811 114.45 435.969 115.644 436.362C116.242 436.567 116.78 436.927 117.208 437.41C117.636 437.892 117.941 438.481 118.092 439.12C118.365 440.679 117.394 442.19 116.229 443.193C115.145 444.12 113.869 444.77 112.503 445.089C111.389 445.291 110.266 445.428 109.138 445.499C102.508 446.227 96.5915 450.008 90.8038 453.452C85.6999 456.481 82.806 456.341 77.5089 458.969C77.3007 457.307 74.9024 458.595 74.9371 456.917C74.9668 455.665 75.0263 453.754 76.1561 453.016C77.4692 452.159 79.6247 451.977 81.1113 451.458C84.5267 450.284 87.8626 448.869 91.0961 447.224C92.8833 446.306 94.6391 445.323 96.3636 444.273Z" fill="#A0616A"/>
<path opacity="0.1" d="M52.579 439.624L77.9845 463.728C77.9845 463.728 82.7763 453.686 84.2133 453.686C85.6503 453.686 66.969 424.076 66.969 424.076C66.969 424.076 62.1773 418.05 59.3033 421.063C56.4292 424.076 47.7873 422.045 52.579 439.624Z" fill="black"/>
<path d="M52.0983 438.622L77.489 462.725C77.489 462.725 82.2807 452.678 83.7178 452.678C85.1548 452.678 66.4685 423.069 66.4685 423.069C66.4685 423.069 61.6768 417.037 58.8028 420.05C55.9287 423.063 47.3066 421.043 52.0983 438.622Z" fill="#EC3838"/>
<path d="M93.9008 396.134C94.4553 395.487 94.9055 394.751 95.2338 393.952C97.424 388.757 93.9504 382.233 88.0189 380.446C85.0458 379.537 81.7159 379.719 78.7477 378.752C76.3592 377.978 74.3474 376.514 72.1572 375.371C68.0413 373.245 63.4874 372.22 58.9019 372.389C54.4174 372.555 49.5414 374.207 47.703 377.838C45.0173 383.126 49.9577 389.786 46.9647 394.934C44.7645 398.716 39.4278 399.833 35.0027 401.474C30.4215 403.135 26.2506 405.845 22.793 409.406C19.3243 413.043 16.8467 418.03 18.5909 422.539C19.6068 425.183 21.901 427.25 23.7246 429.531C26.7669 433.273 28.5465 437.962 28.7875 442.873C29.0285 447.783 27.7174 452.639 25.0575 456.689C24.2052 457.972 23.2092 459.224 22.8574 460.678C22.015 464.148 25.4143 467.639 29.3438 468.315C33.2733 468.99 37.3515 467.452 40.4089 465.182C43.2316 463.142 45.5035 460.372 47.0043 457.141C50.6365 449.068 48.0846 439.998 47.7228 431.307C47.6782 430.294 47.7228 429.193 48.4017 428.398C49.4522 427.209 51.4343 427.24 53.129 427.084C57.5144 426.679 61.5529 424.102 63.4112 420.549C66.9641 413.713 62.8264 404.16 69.0354 399.017C76.8498 392.544 88.0982 402.778 93.9008 396.134Z" fill="#3F3D56"/>
<path opacity="0.1" d="M88.019 380.425H87.9694C90.2885 383.241 91.1606 387.043 89.783 390.326C89.4548 391.125 89.0045 391.862 88.4501 392.508C82.6475 399.152 71.3991 388.918 63.5846 395.391C57.3757 400.534 61.5133 410.087 57.9604 416.923C56.1171 420.476 52.0637 423.053 47.6783 423.458C45.9836 423.614 44.0015 423.583 42.951 424.772C42.2523 425.567 42.2275 426.668 42.2721 427.681C42.6338 436.372 45.1858 445.442 41.5536 453.515C40.0528 456.746 37.7808 459.516 34.9582 461.556C31.9008 463.816 27.8275 465.374 23.8931 464.699L23.6205 464.637C24.2924 465.621 25.1446 466.455 26.1272 467.09C27.1099 467.725 28.2034 468.148 29.3439 468.335C33.2783 469.005 37.3268 467.447 40.4089 465.182C43.2316 463.142 45.5035 460.372 47.0044 457.141C50.6366 449.068 48.0846 439.998 47.7229 431.307C47.6783 430.294 47.7229 429.193 48.4017 428.398C49.4523 427.209 51.4344 427.24 53.1291 427.084C57.5144 426.679 61.553 424.102 63.4112 420.549C66.9641 413.713 62.8265 404.16 69.0354 399.017C76.8498 392.544 88.0982 402.778 93.9008 396.134C94.4553 395.487 94.9055 394.751 95.2338 393.952C97.424 388.742 93.9504 382.259 88.019 380.425Z" fill="black"/>
<defs>
<linearGradient id="paint0_linear" x1="-52.5" y1="284" x2="350.5" y2="524.5" gradientUnits="userSpaceOnUse">
<stop stop-color="#FF0000"/>
<stop offset="0.244792" stop-color="#FF7A00" stop-opacity="0.69"/>
<stop offset="0.489583" stop-color="#FFF500" stop-opacity="0.7"/>
<stop offset="0.765625" stop-color="#FFC300" stop-opacity="0.81"/>
<stop offset="1" stop-color="#FF9900"/>
</linearGradient>
</defs>
</svg>
